<?xml version="1.0" encoding="utf-8"?>
<!-- Generator: Adobe Illustrator 22.1.0, SVG Export Plug-In . SVG Version: 6.00 Build 0)  -->
<svg version="1.1" id="Layer_1" xmlns="http://www.w3.org/2000/svg" xmlns:xlink="http://www.w3.org/1999/xlink" x="0px" y="0px"
	 viewBox="0 0 175 175" style="enable-background:new 0 0 175 175;" xml:space="preserve">
<style type="text/css">
	.adapt1{fill:none;stroke:#F91791;stroke-width:2;stroke-miterlimit:10;}
</style>
<g>
	<path class="adapt1" d="M152.6,82.5c-0.3-0.9-1.1-1.4-2-1.7c-0.9-0.1-1.9,0.1-2.6,0.7l-6.1,6.1l-2.1-5.1c-0.3-0.9-1.1-1.4-2-1.7
		c-0.9-0.1-1.9,0.1-2.6,0.7l-6.6,6.6l-2.3-5.7c-0.3-0.9-1.1-1.4-2-1.7c-0.9-0.1-1.9,0.1-2.6,0.7l-7.4,7.4h-11.3l-0.3-1.6
		c0.1-0.1,0.3-0.1,0.4-0.3L144,46.2c0.9-0.9,1.1-2.3,0.4-3.4c-0.7-1.1-2-1.6-3.3-1.1c-13.4,4.8-25.9,12.8-35.9,22.9l-5.3,5.1
		l-2.8-17.4c-0.1-0.7-0.4-1.3-1-1.7c-1.1-1-3-0.7-3.8,0.4c-2.6,3.3-6.6,5.1-10.8,5.1s-8.3-1.9-10.8-5.1l-0.1-0.1
		c-0.1-0.1-0.1-0.1-0.3-0.3c-0.1-0.1-0.3-0.3-0.6-0.4c-0.1,0-0.1-0.1-0.3-0.1c-0.3-0.1-0.6-0.1-0.9-0.1H36.9c-0.1,0-0.4,0-0.6,0
		l-17.1,3.6c-0.7,0.1-1.4,0.6-1.9,1.3c-0.4,0.7-0.4,1.4-0.3,2.1c0.1,1,4.6,15.4,19.7,16.1c4.4,0.3,9.1,0.3,13.4,0.3
		c4.8,0,9.1-0.1,11.8-0.1l-7.1,42.5l-4.3,0.4l-0.6-6c0-0.7-0.4-1.4-1-1.9c-0.6-0.4-1.3-0.7-2-0.6l-6,0.6l-0.6-6c0-0.7-0.4-1.4-1-1.9
		c-0.6-0.4-1.3-0.7-2-0.6l-6,0.6l-0.3-6.1c-0.1-1.6-1.4-2.7-3-2.6l-8.7,0.7c-1.6,0.1-2.7,1.4-2.6,3l0.3,3.8c0.9,10,5.6,19,13.1,25.4
		l20.1,17c-0.3,2.4,0.3,4.8,1.7,6.8c1.6,2.1,3.8,3.7,6.4,4.1c3.7,0.7,7.4-0.7,9.8-3.8c0.1-0.1,0.3-0.4,0.4-0.7l12.4-31.6l12.5,31.8
		c0.1,0.3,0.3,0.4,0.4,0.7c1.9,2.6,4.8,4,8,4c0.6,0,1.1,0,1.9-0.1c2.6-0.4,4.8-2,6.4-4.1c1.4-2,2-4.6,1.7-7l20.8-13.7
		c0.7,4,3.3,7.4,7.3,9c1.4,0.6,2.9,0.7,4.1,0.7c4.7,0,9.1-2.8,11-7.6c2.3-6-0.7-12.8-6.7-15.1c-1.4-0.6-3,0.1-3.6,1.6
		c-0.6,1.4,0.1,3,1.6,3.6c3.1,1.3,4.8,4.8,3.6,8c-1.3,3.1-4.8,4.8-8,3.6c-3.1-1.3-4.8-4.8-3.6-8c0-0.1,0-0.1,0-0.3
		c0.3-0.9,0.3-1.7-0.3-2.4c-0.9-1.3-2.6-1.6-3.8-0.9L111,135.4l-6.8-40.9h11.5c0.7,0,1.4-0.3,2-0.9l5.3-5.3l3.7,8.8
		c0.4,1.1,1.4,1.7,2.6,1.7c0.3,0,0.7,0,1-0.1c1.4-0.6,2.1-2.1,1.6-3.6l-0.6-1.6l5.3-5.3l3.7,8.8c0.4,1.1,1.4,1.7,2.6,1.7
		c0.3,0,0.7,0,1-0.1c1.4-0.6,2.1-2.1,1.6-3.6l-0.9-2l4.8-4.8l3.7,8.8c0.4,1.1,1.4,1.7,2.6,1.7c0.3,0,0.7,0,1-0.1
		c1.1-0.6,1.9-2.1,1.3-3.6L152.6,82.5z"/>
	<ellipse transform="matrix(0.9732 -0.2298 0.2298 0.9732 -6.0133 19.6142)" class="adapt1" cx="81.2" cy="35.6" rx="13.4" ry="13.4"/>
</g>
</svg>
