<?xml version="1.0" encoding="utf-8"?>
<!-- Generator: Adobe Illustrator 22.1.0, SVG Export Plug-In . SVG Version: 6.00 Build 0)  -->
<svg version="1.1" id="Layer_1" xmlns="http://www.w3.org/2000/svg" xmlns:xlink="http://www.w3.org/1999/xlink" x="0px" y="0px"
	 viewBox="0 0 100 100" style="enable-background:new 0 0 100 100;" xml:space="preserve">
<style type="text/css">
	.analytics0{fill:#F91791;}
</style>
<g>
	<path class="analytics0" d="M93.9,51.2c0,10.9,0,21.7,0,32.6c0,7.8-2.5,10.3-10.1,10.3c-22,0-44,0-66.1-0.1c-7.5,0-9.9-2.5-10-9.8
		c0-3.8-0.1-7.6,0-11.3c0.1-5.9,2.7-8.7,8.6-8.9c4.7-0.2,9.4-0.2,14.2-0.1c3.2,0.1,4.6-1.2,4.5-4.5c-0.1-5.5-0.1-11,0-16.5
		c0.1-5.5,2.6-8.1,8.1-8.3c5.7-0.2,11.3-0.1,17-0.1c2.6,0,3.6-1,3.5-3.6c-0.2-4.4-0.1-8.8,0-13.2C63.7,10.3,67.1,7.1,74.4,7
		c3,0,6,0,9,0c7.4,0.1,10.5,3.1,10.5,10.7C93.9,28.8,93.8,40,93.9,51.2z"/>
</g>
</svg>
