<?xml version="1.0" encoding="utf-8"?>
<!-- Generator: Adobe Illustrator 22.1.0, SVG Export Plug-In . SVG Version: 6.00 Build 0)  -->
<svg version="1.1" id="Layer_1" xmlns="http://www.w3.org/2000/svg" xmlns:xlink="http://www.w3.org/1999/xlink" x="0px" y="0px"
	 viewBox="0 0 100 100" style="enable-background:new 0 0 100 100;" xml:space="preserve">
<style type="text/css">
	.st0{fill:#F91791;}
</style>
<path class="st0" d="M4.4,95.7c0-30.4,0-60.9,0-91.3c30.4,0,60.8,0,91.2,0c0,30.4,0,60.9,0,91.3c-0.6,0-1.2-0.1-1.8-0.1
	c-29.2,0-58.4,0-87.6,0C5.6,95.5,5,95.7,4.4,95.7z M91.6,8.4c-27.8,0-55.5,0-83.1,0c0,27.8,0,55.5,0,83.1c27.8,0,55.4,0,83.1,0
	C91.6,63.8,91.6,36.2,91.6,8.4z"/>
<path class="st0" d="M53.4,71c-2.2,0-4.1,0.1-6-0.1c-0.5,0-1.1-0.8-1.3-1.4c-0.9-2.9-1.7-5.9-2.5-8.8c-0.3-1.3-0.9-1.9-2.3-1.8
	c-3.1,0.1-6.1,0.1-9.2,0c-1.4,0-2,0.5-2.3,1.8c-0.7,2.8-1.5,5.6-2.2,8.5c-0.3,1.3-0.9,2-2.4,1.9c-1.3-0.1-2.7,0-4.4,0
	c0.2-1,0.2-1.7,0.4-2.4c3.4-12,6.8-24,10.3-36c0.2-0.6,0.4-1.1,0.4-1.7c0-2.1,1-2.8,3-2.6c1.9,0.2,4.2-0.5,5.5,0.5
	c1.2,0.9,1.4,3.3,2,5.1c3.5,11.6,6.9,23.3,10.3,34.9C53.1,69.5,53.2,70.1,53.4,71z M41.6,52.7c-1.6-6-3-11.7-4.5-17.5
	c-0.2,0-0.4,0-0.6,0.1C35,41,33.6,46.8,32.1,52.7C35.3,52.7,38.2,52.7,41.6,52.7z"/>
<path class="st0" d="M56.2,56.1c0-4.3,0-8.6,0.1-12.9c0-0.6,0.6-1.6,1.1-1.8c4.3-1.6,8.7-2.6,13.3-2.1c5.2,0.6,8.7,3.9,8.9,9.1
	c0.3,7.1,0.4,14.2,0,21.2c-0.1,2.9-3,1-4.6,1.4c-1,0.3-2,0.1-2-1.6c0.1-5.2,0-10.4,0-15.6c0-0.6,0-1.3,0-1.9c0-5.7-2.1-7.5-7.8-6.6
	c-1.6,0.2-2.3,0.8-2.3,2.6c0.1,6.9,0,13.8,0,20.6c0,2.5,0,2.5-2.6,2.5c-4.2,0-4.2,0-4.2-4.2C56.3,63.2,56.3,59.7,56.2,56.1
	C56.3,56.1,56.2,56.1,56.2,56.1z"/>
</svg>
