<?xml version="1.0" encoding="utf-8"?>
<!-- Generator: Adobe Illustrator 22.1.0, SVG Export Plug-In . SVG Version: 6.00 Build 0)  -->
<svg version="1.1" id="Layer_1" xmlns="http://www.w3.org/2000/svg" xmlns:xlink="http://www.w3.org/1999/xlink" x="0px" y="0px"
	 viewBox="0 0 100 100" style="enable-background:new 0 0 100 100;" xml:space="preserve">
<style type="text/css">
	.st0{fill:#F91791;}
	.st1{fill:none;}
</style>
<path class="st0" d="M4.4,95.7c0-30.4,0-60.9,0-91.3c30.4,0,60.8,0,91.2,0c0,30.4,0,60.9,0,91.3c-0.6,0-1.2-0.1-1.8-0.1
	c-29.2,0-58.4,0-87.6,0C5.6,95.5,5,95.7,4.4,95.7z M91.6,8.4c-27.8,0-55.5,0-83.1,0c0,27.8,0,55.5,0,83.1c27.8,0,55.4,0,83.1,0
	C91.6,63.8,91.6,36.2,91.6,8.4z"/>
<path class="st1" d="M91.6,8.4c0,27.8,0,55.4,0,83.1c-27.7,0-55.3,0-83.1,0c0-27.7,0-55.3,0-83.1C36.1,8.4,63.7,8.4,91.6,8.4z
	 M59.6,68.6c4.4,0.3,8.2-0.5,11.5-3c6.2-4.7,8.3-14.4,4.8-22c-2.1-4.5-5.8-6.8-10.6-6.8c-2.7,0-5.4,0.4-8,1.1
	c-4.2,1-4.2,1.1-4.1,5.4c0,0.3,0,0.7,0,1c0,10.4,0,20.9,0,31.4c0,0.7,0,1.5,0,2.3c1.7-0.1,3.1-0.3,4.5-0.3c1.4,0,2.1-0.5,2-2.1
	C59.5,73.3,59.6,71.1,59.6,68.6z M47.6,33.4c0-1.8,0.1-3.5-0.1-5.2c0-0.6-0.8-1.4-1.3-1.5c-6.9-1.1-13.5-0.4-18.4,5.2
	c-5,5.6-5.8,12.3-5.2,19.4c0.4,4.1,1.5,7.8,4.1,11.1c4,5.1,13.7,7.7,19.7,5.3c0.5-0.2,1.1-0.9,1.1-1.5c0.2-1.7,0-3.4,0-5.2
	c-1.3,0.3-2.3,0.5-3.4,0.7c-6.5,1-11.8-1.4-13.9-6.5c-1.9-4.6-2.1-9.3-0.6-14.1c2-6.6,7.4-9.8,14.1-8.5C45,32.8,46.2,33,47.6,33.4z"
	/>
<path class="st0" d="M59.6,68.6c0,2.5-0.1,4.7,0,6.9c0.1,1.6-0.6,2-2,2.1c-1.4,0-2.8,0.2-4.5,0.3c0-0.8,0-1.5,0-2.3
	c0-10.4,0-20.9,0-31.4c0-0.3,0-0.7,0-1c-0.1-4.3-0.2-4.4,4.1-5.4c2.6-0.6,5.3-1.1,8-1.1c4.9,0,8.5,2.4,10.6,6.8
	c3.6,7.6,1.4,17.3-4.8,22C67.8,68.1,64,68.9,59.6,68.6z M59.6,43.2c0,5.6,0,11.2,0,16.7c0,3,0.9,3.8,3.9,3c4.4-1.1,7.1-4.7,7.4-10
	c0-1.2,0-2.4-0.2-3.6C69.4,43.3,66,41.3,59.6,43.2z"/>
<path class="st0" d="M47.6,33.4c-1.4-0.3-2.6-0.5-3.8-0.8c-6.8-1.3-12.2,2-14.1,8.5c-1.5,4.8-1.3,9.5,0.6,14.1
	c2.1,5.1,7.4,7.6,13.9,6.5c1.1-0.2,2.1-0.4,3.4-0.7c0,1.8,0.1,3.5,0,5.2c0,0.5-0.6,1.3-1.1,1.5c-6,2.4-15.7-0.2-19.7-5.3
	c-2.5-3.3-3.7-7.1-4.1-11.1c-0.7-7.2,0.2-13.9,5.2-19.5c5-5.6,11.5-6.4,18.4-5.2c0.5,0.1,1.2,0.9,1.3,1.5
	C47.7,29.8,47.6,31.5,47.6,33.4z"/>
<path class="st1" d="M59.6,43.2c6.4-1.9,9.8,0,11,6.2c0.2,1.2,0.3,2.4,0.2,3.6c-0.2,5.3-3,8.9-7.4,10c-3,0.7-3.9,0-3.9-3
	C59.6,54.4,59.6,48.9,59.6,43.2z"/>
</svg>
