<?xml version="1.0" encoding="utf-8"?>
<!-- Generator: Adobe Illustrator 22.1.0, SVG Export Plug-In . SVG Version: 6.00 Build 0)  -->
<svg version="1.1" id="Layer_1" xmlns="http://www.w3.org/2000/svg" xmlns:xlink="http://www.w3.org/1999/xlink" x="0px" y="0px"
	 viewBox="0 0 100 100" style="enable-background:new 0 0 100 100;" xml:space="preserve">
<style type="text/css">
	.st0{fill:#F91791;}
</style>
<g>
	<path class="st0" d="M20.3,41.2c0.1-4.9,3.1-8.5,6.9-7.8c11.5,2.1,21.5-2.7,31.6-6.8c6-2.4,11.9-5.4,18.7-4.4
		c1.7,0.2,4,0.2,4.7,2.2c0.6,1.8-1,3-2.2,4.2c-6.5,6.9-12.9,13.9-19.6,20.5c-6.5,6.5-14.7,10.2-23.6,12.3c-1.3,0.3-2.8,0.7-3.7-0.5
		c-4.4-5.3-9.9-9.9-12.1-16.8C20.6,43.1,20.5,41.9,20.3,41.2z"/>
	<path class="st0" d="M70.3,73.5c-0.1,6.1-2.5,8.3-6.7,6.9c-8.1-2.8-16-1.7-24,0.2c-5.3,1.2-10.7,2.2-16.1,3.1
		c-1.8,0.3-3.9,0.3-5.1-1.2c-1.5-1.8,0.2-3.5,1-5c4-7.2,9.9-11.6,18.2-13.4c8.7-1.9,17.7-3.4,24.1-10.8c0.7-0.8,2.1-1.1,2.3,0.2
		C65,61.1,68.6,67.8,70.3,73.5z"/>
	<path class="st0" d="M33.4,30.2c-5.7,0.4-9-1.7-9.3-5.8c-0.3-4.8,2.8-8,8.3-8.3c5-0.3,10.2,3.8,10.6,8.5
		C43.4,28.5,41.5,29.7,33.4,30.2z"/>
</g>
</svg>
