<?xml version="1.0" encoding="utf-8"?>
<!-- Generator: Adobe Illustrator 22.1.0, SVG Export Plug-In . SVG Version: 6.00 Build 0)  -->
<svg version="1.1" id="Layer_1" xmlns="http://www.w3.org/2000/svg" xmlns:xlink="http://www.w3.org/1999/xlink" x="0px" y="0px"
	 viewBox="0 0 175 175" style="enable-background:new 0 0 175 175;" xml:space="preserve">
<style type="text/css">
	.creative0{fill:none;}
	.creative1{fill:#F91791;}
	.creative0:hover{fill:#F91791;}
	#bulb{fill:#F91791;}
</style>
<g>
	<path id="head" class="creative0" d="M64.9,106.2c-2.4-3.8-5.2-7.6-8.6-13.2c-3.1-5.2-4.9-11.3-4.9-17.7c0-19.5,17-35.3,37.1-35.3
		c6.2,0,12.1,1.5,17.2,4.1c17.4,8.8,19.9,27.4,19.9,27.4l-3,4.6l9.7,19.4l-8.1,1.5l-1.9,19.9c-0.1,1.4-1.5,2.6-3,2.6h-12.3v12.5
		H65.7h-0.8V106.2z"/>
	<path id="bulb" class="creative1" d="M91.3,133.5v-28.6c0-6.2,0.7-11.5,1.8-15.4c7.3-0.1,10.2-2.3,11.3-4.1c0.9-1.6,0.9-3.5-0.1-5.2
		c-0.8-1.4-2.3-2.4-4-2.5c-0.2,0-0.4,0-0.6,0c-1.9,0-3.9,0.9-5.4,2.6c-1.2,1.3-2.4,3.5-3.3,6.5h-6.3c0,0,0,0,0,0h-3.7
		c-1-3-2.2-5.2-3.3-6.5c-1.5-1.7-3.5-2.6-5.4-2.6c-0.2,0-0.4,0-0.6,0c-1.7,0.2-3.1,1.1-4,2.5c-1,1.7-1,3.6-0.1,5.2
		c1.1,1.8,3.9,4,11.3,4.1c1.1,4,1.8,9.2,1.8,15.4v28.6h2.8v-28.6c0-6.1-0.7-11.3-1.7-15.4h5.5c0,0,0,0,0,0h2.9
		c-1,4.1-1.7,9.3-1.7,15.4v28.6H91.3z M78,86.7c-5.8-0.3-7.5-2-8-2.7c-0.6-1-0.2-1.9,0.1-2.4c0.4-0.7,1-1.1,1.8-1.2
		c1.2-0.1,2.5,0.5,3.6,1.7C76.3,82.9,77.2,84.5,78,86.7z M93.9,86.7c0.8-2.2,1.6-3.7,2.5-4.7c1.1-1.2,2.4-1.8,3.6-1.7
		c0.8,0.1,1.4,0.5,1.8,1.2c0.3,0.5,0.7,1.4,0.1,2.4C101.4,84.7,99.8,86.4,93.9,86.7z"/>
	<g>
		<path class="creative1" d="M49.4,75.3c0,6.5,1.8,12.9,5.2,18.5c2,3.3,3.8,6,5.4,8.4c1,1.5,2,3,2.9,4.4v27h45.4v-12.5H119
			c2.4,0,4.4-1.8,4.6-4l1.8-18.8l8.9-1.7l-10.2-20.4l2.8-4.3l-0.1-0.6c-0.1-0.8-2.8-19.6-20.8-28.6c-5.5-2.8-11.7-4.3-17.9-4.3
			c-10.2,0-19.9,3.8-27.3,10.8C53.5,56.2,49.4,65.5,49.4,75.3z M52.6,75.3c0-18.6,15.9-33.7,35.5-33.7c5.7,0,11.4,1.4,16.4,4
			c14.8,7.5,18.4,22.7,19,25.7l-3.1,4.8l9.2,18.3l-7.2,1.4l-2.1,21.1c-0.1,0.6-0.7,1.2-1.4,1.2h-13.4v12.5h-0.5H92.9h-3.2h-6.8h-3.2
			H66.2v-24.7l-0.2-0.4c-1-1.6-2.1-3.2-3.2-4.9c-1.6-2.4-3.4-5-5.3-8.3C54.3,87.1,52.6,81.2,52.6,75.3z"/>
	</g>
	<g>
		<path class="creative1" d="M70.5,141.8h31c0.9,0,1.6-0.7,1.6-1.6s-0.7-1.6-1.6-1.6h-31c-0.9,0-1.6,0.7-1.6,1.6S69.6,141.8,70.5,141.8z"
			/>
	</g>
	<path class="creative1" d="M68.9,147.2c0,0.9,0.7,1.6,1.6,1.6h4.7c0.7,5.1,5,9.1,10.3,9.1s9.7-4,10.3-9.1h5.6c0.9,0,1.6-0.7,1.6-1.6
		c0-0.9-0.7-1.6-1.6-1.6h-31C69.6,145.6,68.9,146.3,68.9,147.2z M92.6,148.8c-0.6,3.4-3.6,5.9-7.1,5.9s-6.5-2.6-7.1-5.9"/>
	<g id="ray">
		<g>
			<g>
				<g>
					<g>
						<path class="creative1" d="M62.3,35.6c0.3,0,0.5-0.1,0.8-0.2c0.8-0.4,1-1.4,0.6-2.2l-4.4-7.6c-0.4-0.8-1.4-1-2.2-0.6
							c-0.8,0.4-1,1.4-0.6,2.2l4.4,7.6C61.2,35.3,61.7,35.6,62.3,35.6z"/>
					</g>
				</g>
			</g>
			<g>
				<g>
					<g>
						<path class="creative1" d="M51.8,43.6c0.4,0,0.8-0.2,1.1-0.5c0.6-0.6,0.6-1.6,0-2.2l-6.2-6.2c-0.6-0.6-1.6-0.6-2.2,0
							c-0.6,0.6-0.6,1.6,0,2.2l6.2,6.2C51,43.5,51.4,43.6,51.8,43.6z"/>
					</g>
				</g>
			</g>
			<g>
				<g>
					<g>
						<path class="creative1" d="M43.8,54.1c0.5,0,1.1-0.3,1.4-0.8c0.4-0.8,0.2-1.7-0.6-2.2L37,46.8c-0.8-0.4-1.7-0.2-2.2,0.6
							c-0.4,0.8-0.2,1.7,0.6,2.2l7.6,4.3C43.3,54,43.5,54.1,43.8,54.1z"/>
					</g>
				</g>
			</g>
			<g>
				<g>
					<g>
						<path class="creative1" d="M38.8,66.3c0.7,0,1.3-0.5,1.5-1.2c0.2-0.8-0.3-1.7-1.1-1.9l-8.5-2.3c-0.8-0.2-1.7,0.3-1.9,1.1
							s0.3,1.7,1.1,1.9l8.4,2.3C38.5,66.2,38.6,66.3,38.8,66.3z"/>
					</g>
				</g>
			</g>
			<g>
				<g>
					<g>
						<path class="creative1" d="M28.3,79.3H37c0.9,0,1.6-0.7,1.6-1.6s-0.7-1.6-1.6-1.6h-8.7c-0.9,0-1.6,0.7-1.6,1.6
							C26.7,78.6,27.4,79.3,28.3,79.3z"/>
					</g>
				</g>
				<g>
					<g>
						<path class="creative1" d="M138,79.3h8.7c0.9,0,1.6-0.7,1.6-1.6s-0.7-1.6-1.6-1.6H138c-0.9,0-1.6,0.7-1.6,1.6
							C136.4,78.6,137.1,79.3,138,79.3z"/>
					</g>
				</g>
			</g>
			<g>
				<g>
					<g>
						<path class="creative1" d="M136.2,66.3c0.1,0,0.3,0,0.4-0.1l8.4-2.3c0.8-0.2,1.3-1.1,1.1-1.9c-0.2-0.8-1.1-1.3-1.9-1.1l-8.4,2.3
							c-0.8,0.2-1.3,1.1-1.1,1.9C134.9,65.8,135.5,66.3,136.2,66.3z"/>
					</g>
				</g>
			</g>
			<g>
				<g>
					<g>
						<path class="creative1" d="M131.2,54.1c0.3,0,0.5-0.1,0.8-0.2l7.6-4.4c0.8-0.4,1-1.4,0.6-2.2s-1.4-1-2.2-0.6l-7.6,4.4
							c-0.8,0.4-1,1.4-0.6,2.2C130.1,53.8,130.7,54.1,131.2,54.1z"/>
					</g>
				</g>
			</g>
			<g>
				<g>
					<g>
						<path class="creative1" d="M123.2,43.6c0.4,0,0.8-0.2,1.1-0.5l6.2-6.2c0.6-0.6,0.6-1.6,0-2.2c-0.6-0.6-1.6-0.6-2.2,0l-6.2,6.2
							c-0.6,0.6-0.6,1.6,0,2.2C122.4,43.5,122.8,43.6,123.2,43.6z"/>
					</g>
				</g>
			</g>
			<g>
				<g>
					<g>
						<path class="creative1" d="M112.7,35.6c0.5,0,1.1-0.3,1.4-0.8l4.4-7.6c0.4-0.8,0.2-1.7-0.6-2.2c-0.8-0.4-1.7-0.2-2.2,0.6l-4.4,7.6
							c-0.4,0.8-0.2,1.7,0.6,2.2C112.2,35.6,112.5,35.6,112.7,35.6z"/>
					</g>
				</g>
			</g>
			<g>
				<g>
					<g>
						<path class="creative1" d="M100.6,30.6c0.7,0,1.3-0.5,1.5-1.2l2.3-8.4c0.2-0.8-0.3-1.7-1.1-1.9c-0.8-0.2-1.7,0.3-1.9,1.1L99,28.6
							c-0.2,0.8,0.3,1.7,1.1,1.9C100.3,30.6,100.4,30.6,100.6,30.6z"/>
					</g>
				</g>
			</g>
			<g>
				<g>
					<g>
						<path class="creative1" d="M87.5,28.9c0.9,0,1.6-0.7,1.6-1.6v-8.7c0-0.9-0.7-1.6-1.6-1.6s-1.6,0.7-1.6,1.6v8.7
							C85.9,28.2,86.6,28.9,87.5,28.9z"/>
					</g>
				</g>
			</g>
			<g>
				<g>
					<g>
						<path class="creative1" d="M74.4,30.6c0.1,0,0.3,0,0.4-0.1c0.8-0.2,1.3-1.1,1.1-1.9l-2.3-8.4c-0.2-0.8-1.1-1.3-1.9-1.1
							s-1.3,1.1-1.1,1.9l2.3,8.4C73.1,30.1,73.7,30.6,74.4,30.6z"/>
					</g>
				</g>
			</g>
			<g>
				<g>
					<g>
						<path class="creative1" d="M62.3,35.6c0.3,0,0.5-0.1,0.8-0.2c0.8-0.4,1-1.4,0.6-2.2l-4.4-7.6c-0.4-0.8-1.4-1-2.2-0.6
							c-0.8,0.4-1,1.4-0.6,2.2l4.4,7.6C61.2,35.3,61.7,35.6,62.3,35.6z"/>
					</g>
				</g>
			</g>
			<g>
				<g>
					<g>
						<path class="creative1" d="M51.8,43.6c0.4,0,0.8-0.2,1.1-0.5c0.6-0.6,0.6-1.6,0-2.2l-6.2-6.2c-0.6-0.6-1.6-0.6-2.2,0
							c-0.6,0.6-0.6,1.6,0,2.2l6.2,6.2C51,43.5,51.4,43.6,51.8,43.6z"/>
					</g>
				</g>
			</g>
			<g>
				<g>
					<g>
						<path class="creative1" d="M43.8,54.1c0.5,0,1.1-0.3,1.4-0.8c0.4-0.8,0.2-1.7-0.6-2.2L37,46.8c-0.8-0.4-1.7-0.2-2.2,0.6
							c-0.4,0.8-0.2,1.7,0.6,2.2l7.6,4.3C43.3,54,43.5,54.1,43.8,54.1z"/>
					</g>
				</g>
			</g>
			<g>
				<g>
					<g>
						<path class="creative1" d="M38.8,66.3c0.7,0,1.3-0.5,1.5-1.2c0.2-0.8-0.3-1.7-1.1-1.9l-8.5-2.3c-0.8-0.2-1.7,0.3-1.9,1.1
							s0.3,1.7,1.1,1.9l8.4,2.3C38.5,66.2,38.6,66.3,38.8,66.3z"/>
					</g>
				</g>
			</g>
			<g>
				<g>
					<g>
						<path class="creative1" d="M138,79.3h8.7c0.9,0,1.6-0.7,1.6-1.6s-0.7-1.6-1.6-1.6H138c-0.9,0-1.6,0.7-1.6,1.6
							C136.4,78.6,137.1,79.3,138,79.3z"/>
					</g>
				</g>
				<g>
					<g>
						<path class="creative1" d="M28.3,79.3H37c0.9,0,1.6-0.7,1.6-1.6s-0.7-1.6-1.6-1.6h-8.7c-0.9,0-1.6,0.7-1.6,1.6
							C26.7,78.6,27.4,79.3,28.3,79.3z"/>
					</g>
				</g>
			</g>
			<g>
				<g>
					<g>
						<path class="creative1" d="M136.2,66.3c0.1,0,0.3,0,0.4-0.1l8.4-2.3c0.8-0.2,1.3-1.1,1.1-1.9c-0.2-0.8-1.1-1.3-1.9-1.1l-8.4,2.3
							c-0.8,0.2-1.3,1.1-1.1,1.9C134.9,65.8,135.5,66.3,136.2,66.3z"/>
					</g>
				</g>
			</g>
			<g>
				<g>
					<g>
						<path class="creative1" d="M131.2,54.1c0.3,0,0.5-0.1,0.8-0.2l7.6-4.4c0.8-0.4,1-1.4,0.6-2.2s-1.4-1-2.2-0.6l-7.6,4.4
							c-0.8,0.4-1,1.4-0.6,2.2C130.1,53.8,130.7,54.1,131.2,54.1z"/>
					</g>
				</g>
			</g>
			<g>
				<g>
					<g>
						<path class="creative1" d="M123.2,43.6c0.4,0,0.8-0.2,1.1-0.5l6.2-6.2c0.6-0.6,0.6-1.6,0-2.2c-0.6-0.6-1.6-0.6-2.2,0l-6.2,6.2
							c-0.6,0.6-0.6,1.6,0,2.2C122.4,43.5,122.8,43.6,123.2,43.6z"/>
					</g>
				</g>
			</g>
			<g>
				<g>
					<g>
						<path class="creative1" d="M112.7,35.6c0.5,0,1.1-0.3,1.4-0.8l4.4-7.6c0.4-0.8,0.2-1.7-0.6-2.2c-0.8-0.4-1.7-0.2-2.2,0.6l-4.4,7.6
							c-0.4,0.8-0.2,1.7,0.6,2.2C112.2,35.6,112.5,35.6,112.7,35.6z"/>
					</g>
				</g>
			</g>
			<g>
				<g>
					<g>
						<path class="creative1" d="M100.6,30.6c0.7,0,1.3-0.5,1.5-1.2l2.3-8.4c0.2-0.8-0.3-1.7-1.1-1.9c-0.8-0.2-1.7,0.3-1.9,1.1L99,28.6
							c-0.2,0.8,0.3,1.7,1.1,1.9C100.3,30.6,100.4,30.6,100.6,30.6z"/>
					</g>
				</g>
			</g>
			<g>
				<g>
					<g>
						<path class="creative1" d="M87.5,28.9c0.9,0,1.6-0.7,1.6-1.6v-8.7c0-0.9-0.7-1.6-1.6-1.6s-1.6,0.7-1.6,1.6v8.7
							C85.9,28.2,86.6,28.9,87.5,28.9z"/>
					</g>
				</g>
			</g>
		</g>
	</g>
</g>
</svg>
