<?xml version="1.0" encoding="utf-8"?>
<!-- Generator: Adobe Illustrator 22.1.0, SVG Export Plug-In . SVG Version: 6.00 Build 0)  -->
<svg version="1.1" id="Layer_1" xmlns="http://www.w3.org/2000/svg" xmlns:xlink="http://www.w3.org/1999/xlink" x="0px" y="0px"
	 viewBox="0 0 135.5 100" style="enable-background:new 0 0 135.5 100;" xml:space="preserve">
<style type="text/css">
	.st0{clip-path:url(#SVGID_2_);fill:#F91791;}
</style>
<g>
	<defs>
		<rect id="SVGID_1_" x="5.2" y="3.9" width="125" height="92.2"/>
	</defs>
	<clipPath id="SVGID_2_">
		<use xlink:href="#SVGID_1_"  style="overflow:visible;"/>
	</clipPath>
	<path class="st0" d="M130.2,47.9v4.1c0,0.2-0.1,0.4-0.1,0.7c-0.2,1.8-0.4,3.6-0.6,5.4c-1,5.8-3,11.1-6.1,16.1
		c-4.7,7.5-11,13.3-19,17.2c-4.6,2.3-9.6,3.7-14.6,4.3c-1.1,0.1-2.3,0.2-3.4,0.4H42.4c-0.2,0-0.4-0.1-0.7-0.1
		c-4.4-0.3-8.7-1.3-12.7-3.1C20.1,89,13.6,82.8,9.2,74.1C7.3,70.3,6.1,66.2,5.6,62c-0.1-1-0.2-2.1-0.4-3.1v-4c0-0.2,0.1-0.4,0.1-0.7
		c0.2-3.8,1-7.6,2.4-11.1c3.7-9.6,10.2-16.8,19.5-21.4c4.8-2.4,9.9-3.7,15.2-3.9c2.6-0.1,5.2,0,7.8,0.4c0.2,0,0.6-0.1,0.7-0.2
		c3.7-3.8,8-6.9,12.8-9.3c4.7-2.3,9.6-3.8,14.7-4.3C79.8,4.1,81,4,82.2,3.9h3.7c0.2,0,0.5,0.1,0.7,0.1c1.9,0.2,3.7,0.4,5.6,0.7
		c5.7,1,11.1,3,16,6.1c7.6,4.7,13.3,11,17.3,19c2.3,4.6,3.7,9.6,4.3,14.7C130,45.6,130.1,46.8,130.2,47.9 M60.3,21.3
		c0.1,0.1,0.1,0.1,0.1,0.2c2.6,1.3,5,2.8,7.3,4.4c0.1,0.1,0.5,0.1,0.7,0c6.4-4,13.3-5.4,20.7-4.1c7.3,1.3,13.2,4.9,17.7,10.7
		c5.1,6.6,7.1,14,5.7,22.2c-0.9,5.5-3.2,10.5-6.9,14.7c-6.9,7.6-15.5,10.7-25.6,9.4c-6.2-0.8-11.6-3.5-16.1-8
		C58.2,65,52.4,59.2,46.7,53.5c-0.8-0.8-1.6-1.4-2.7-1.5c-1.9-0.2-3.7,0.7-4.5,2.5c-0.7,1.5-0.6,3.3,1,4.9
		c6.4,6.3,12.7,12.6,19.1,18.9c1.1,1.1,2.3,2.1,3.5,3c4.7,3.4,9.9,5.3,15.6,6c4.5,0.6,8.9,0.5,13.3-0.5c8.4-1.9,15.4-6.2,20.8-12.8
		c4.5-5.5,7.3-11.7,8.2-18.8c0.6-4,0.4-8.1-0.3-12.1c-1.3-6.5-4-12.3-8.4-17.3c-8.4-9.5-19-13.7-31.6-12.7c-4.9,0.4-9.4,1.8-13.8,4
		C64.5,18.2,62.3,19.6,60.3,21.3 M57.2,87.3c-0.2-0.2-0.3-0.3-0.5-0.5c-2.6-2.5-5.2-4.9-7.8-7.4c-0.5-0.5-1-0.7-1.7-0.7
		c-2.6,0.1-5.2,0.1-7.8-0.5c-12.8-2.9-20.3-16.8-15.5-29.1c3.7-9.7,14-15.6,24.2-13.7c4.6,0.8,8.6,2.7,11.8,6.1
		c4,4.1,8.1,8.2,12.2,12.2c0.9,0.9,2,1.4,3.3,1.2c1.7-0.2,3-1,3.6-2.6c0.6-1.6,0.3-3.1-0.9-4.3c-4.2-4.3-8.4-8.7-12.8-12.8
		c-8.6-8-18.7-10.4-29.9-7c-15,4.6-23.8,20.1-20.4,35.4c3.1,14,15.3,23.8,29.6,23.8c4,0,8,0,12,0C56.7,87.4,56.9,87.4,57.2,87.3"/>
</g>
</svg>
