<?xml version="1.0" encoding="utf-8"?>
<!-- Generator: Adobe Illustrator 22.1.0, SVG Export Plug-In . SVG Version: 6.00 Build 0)  -->
<svg version="1.1" id="Layer_1" xmlns="http://www.w3.org/2000/svg" xmlns:xlink="http://www.w3.org/1999/xlink" x="0px" y="0px"
	 viewBox="0 0 100 100" enable-background="new 0 0 100 100" xml:space="preserve">
<g>
	<g>
		<defs>
			<rect id="SVGID_1_" x="6.875" y="18.191" width="86.25" height="63.618"/>
		</defs>
		<clipPath id="SVGID_2_">
			<use xlink:href="#SVGID_1_"  overflow="visible"/>
		</clipPath>
		<path clip-path="url(#SVGID_2_)" fill="#F91791" d="M93.125,48.551v2.829c0,0.138-0.069,0.276-0.069,0.483
			c-0.138,1.242-0.276,2.484-0.414,3.726c-0.69,4.002-2.07,7.659-4.209,11.109c-3.243,5.175-7.59,9.177-13.11,11.868
			c-3.174,1.587-6.624,2.553-10.074,2.967c-0.759,0.069-1.587,0.138-2.346,0.276h-30.36c-0.138,0-0.276-0.069-0.483-0.069
			c-3.036-0.207-6.003-0.897-8.763-2.139c-6.141-2.691-10.626-6.969-13.662-12.972c-1.311-2.622-2.139-5.451-2.484-8.349
			c-0.069-0.69-0.138-1.449-0.276-2.139v-2.76c0-0.138,0.069-0.276,0.069-0.483c0.138-2.622,0.69-5.244,1.656-7.659
			c2.553-6.624,7.038-11.592,13.455-14.766c3.312-1.656,6.831-2.553,10.488-2.691c1.794-0.069,3.588,0,5.382,0.276
			c0.138,0,0.414-0.069,0.483-0.138c2.553-2.622,5.52-4.761,8.832-6.417c3.243-1.587,6.624-2.622,10.143-2.967
			c0.966-0.207,1.794-0.276,2.622-0.345h2.553c0.138,0,0.345,0.069,0.483,0.069c1.311,0.138,2.553,0.276,3.864,0.483
			c3.933,0.69,7.659,2.07,11.04,4.209c5.244,3.243,9.177,7.59,11.937,13.11c1.587,3.174,2.553,6.624,2.967,10.143
			C92.987,46.964,93.056,47.792,93.125,48.551 M44.894,30.197c0.069,0.069,0.069,0.069,0.069,0.138
			c1.794,0.897,3.45,1.932,5.037,3.036c0.069,0.069,0.345,0.069,0.483,0c4.416-2.76,9.177-3.726,14.283-2.829
			c5.037,0.897,9.108,3.381,12.213,7.383c3.519,4.554,4.899,9.66,3.933,15.318c-0.621,3.795-2.208,7.245-4.761,10.143
			c-4.761,5.244-10.695,7.383-17.664,6.486c-4.278-0.552-8.004-2.415-11.109-5.52c-3.933-4.002-7.935-8.004-11.868-11.937
			c-0.552-0.552-1.104-0.966-1.863-1.035c-1.311-0.138-2.553,0.483-3.105,1.725c-0.483,1.035-0.414,2.277,0.69,3.381
			c4.416,4.347,8.763,8.694,13.179,13.041c0.759,0.759,1.587,1.449,2.415,2.07c3.243,2.346,6.831,3.657,10.764,4.14
			c3.105,0.414,6.141,0.345,9.177-0.345c5.796-1.311,10.626-4.278,14.352-8.832c3.105-3.795,5.037-8.073,5.658-12.972
			c0.414-2.76,0.276-5.589-0.207-8.349c-0.897-4.485-2.76-8.487-5.796-11.937c-5.796-6.555-13.11-9.453-21.804-8.763
			c-3.381,0.276-6.486,1.242-9.522,2.76C47.792,28.058,46.274,29.024,44.894,30.197 M42.755,75.737
			c-0.138-0.138-0.207-0.207-0.345-0.345c-1.794-1.725-3.588-3.381-5.382-5.106c-0.345-0.345-0.69-0.483-1.173-0.483
			c-1.794,0.069-3.588,0.069-5.382-0.345c-8.832-2.001-14.007-11.592-10.695-20.079c2.553-6.693,9.66-10.764,16.698-9.453
			c3.174,0.552,5.934,1.863,8.142,4.209c2.76,2.829,5.589,5.658,8.418,8.418c0.621,0.621,1.38,0.966,2.277,0.828
			c1.173-0.138,2.07-0.69,2.484-1.794s0.207-2.139-0.621-2.967c-2.898-2.967-5.796-6.003-8.832-8.832
			c-5.934-5.52-12.903-7.176-20.631-4.83c-10.35,3.174-16.422,13.869-14.076,24.426c2.139,9.66,10.557,16.422,20.424,16.422
			c2.76,0,5.52,0,8.28,0C42.41,75.806,42.548,75.806,42.755,75.737"/>
	</g>
</g>
</svg>
