<?xml version="1.0" encoding="utf-8"?>
<!-- Generator: Adobe Illustrator 22.1.0, SVG Export Plug-In . SVG Version: 6.00 Build 0)  -->
<svg version="1.1" id="Layer_1" xmlns="http://www.w3.org/2000/svg" xmlns:xlink="http://www.w3.org/1999/xlink" x="0px" y="0px"
	 viewBox="0 0 221 206" style="enable-background:new 0 0 221 206;" xml:space="preserve">
<style type="text/css">
	.st0{fill:transparent;}
	.st1{fill:#F91791;}
	.st1:hover{fill:#FFFFFF;}
</style>
<g>
	<path class="st0" d="M2,1c73,0,146,0,219,0c0,68.7,0,137.3,0,206c-73,0-146,0-219,0C2,138.3,2,69.7,2,1z M125.9,199.3
		c0-5.1,0.2-9.3-0.1-13.4c-0.3-4.1,1.2-5.4,5.4-5.4c23.7,0.2,47.3,0.1,71,0.1c8.6,0,10.5-2,10.5-10.6c0-43.8,0-87.6,0-131.5
		c0-8.8-1.5-10.3-10.6-10.3c-23.3,0-46.7-0.2-70,0.1c-5.2,0.1-6.8-1.6-6.4-6.6c0.4-4,0.1-8.1,0.1-12.6c-16.2,2.9-31.2,5.6-46.3,8.2
		C58.4,21,37.1,24.7,15.8,28.5c-2.4,0.4-4.6,0.7-4.6,4.5c0.2,47.5,0.1,95,0.1,142.5c0,2.9,0.9,3.9,3.9,4.4
		c26.2,4.5,52.4,9.2,78.6,13.8C104.2,195.5,114.7,197.3,125.9,199.3z"/>
	<path class="st1" d="M125.9,199.3c-11.2-2-21.7-3.8-32.2-5.6c-26.2-4.6-52.4-9.3-78.6-13.8c-2.9-0.5-3.9-1.5-3.9-4.4
		c0.1-47.5,0.1-95-0.1-142.5c0-3.8,2.1-4,4.6-4.5c21.3-3.8,42.6-7.5,63.9-11.2c15-2.6,30.1-5.3,46.3-8.2c0,4.6,0.3,8.6-0.1,12.6
		c-0.4,4.9,1.2,6.6,6.4,6.6c23.3-0.3,46.7-0.1,70-0.1c9,0,10.6,1.5,10.6,10.3c0,43.8,0,87.6,0,131.5c0,8.6-2,10.6-10.5,10.6
		c-23.7,0-47.3,0.1-71-0.1c-4.2,0-5.7,1.2-5.4,5.4C126.2,190,125.9,194.2,125.9,199.3z M207.1,104.3c0-21.3-0.1-42.7,0.1-64
		c0.1-5-1.3-6.7-6.4-6.6c-21.8,0.3-43.6,0.1-65.5,0.1c-10,0-10,0-9.3,10c0,0.2-0.1,0.4,0,0.5c1.2,1.2,2.3,3.3,3.7,3.5
		c3.9,0.5,8,0.2,12,0.2c12.5,0,12.4,0,12,12.6c-0.1,3-0.9,4.2-4,4.1c-6.3-0.2-12.7,0-19-0.1c-2.4,0-4.7-0.2-4.7,3.4
		c0,3.7,2.1,4,4.9,4c3.5,0,7,0,10.5,0c12.9,0,12.8,0,12.4,12.8c-0.1,3.2-1.3,4-4.2,3.9c-6.5-0.1-13,0-19.5-0.1c-2.6,0-4,0.7-4,3.6
		c0,2.9,1.5,3.8,4.1,3.8c3.8,0,7.7-0.1,11.5,0c14.5,0.4,11.7-2.9,12.1,13c0.1,2.9-1.1,3.8-3.9,3.7c-6.7-0.1-13.3,0-20-0.1
		c-2.4,0-3.8,0.6-3.8,3.3c-0.1,2.8,1,4,3.8,4c3.8,0,7.7,0,11.5,0c12.9,0,12.8,0,12.4,12.7c-0.1,3-1.1,4.1-4.1,4
		c-6.5-0.2-13,0-19.5-0.1c-2.5,0-4.1,0.4-4.1,3.5c0,2.9,1.4,3.8,4,3.8c4.2,0,8.3,0,12.5,0c13.2,0.2,10.8-2.1,11.2,11.4
		c0.1,3.2-0.9,4.5-4.2,4.3c-5.3-0.2-10.7-0.1-16-0.1c-7.5,0-7.5,0-7.5,7.7c0,0.5,0.1,1,0,1.5c-0.6,4.4,1.2,5.7,5.6,5.6
		c23.2-0.2,46.3-0.2,69.5,0c4.8,0.1,6.2-1.3,6.2-6.2C206.9,147,207.1,125.7,207.1,104.3z M89.9,69.7c-3.5,0.3-6.2,0.9-8.7,0.7
		c-5.2-0.5-7.2,2.2-8.8,6.6c-2,5.6-4.7,11-7.3,17.1c-2.5-6.6-4.9-12.5-6.9-18.4c-1-3.1-2.8-4.3-5.9-3.8c-3,0.4-6.1,0.7-9.9,1
		c2.2,4.9,4,8.9,5.8,13c2.7,6.1,7.6,12.1,7.6,18.2c-0.1,6-5.1,12-8,17.9c-1,2.1-2.1,4.2-3.1,6.3c-1.1,2.3-2.2,4.7-3.5,7.7
		c3.2,0.2,5.5,0,7.7,0.5c4.6,1,7-0.7,8.5-5.1c2-5.7,4.7-11.1,7.3-17.2c3,7.1,5.7,13.7,8.6,20.2c0.6,1.4,1.8,3.4,3,3.5
		c4.4,0.7,8.8,0.7,14,1c-0.9-2.2-1.5-3.8-2.2-5.2c-4.2-8.5-8.4-17-12.7-25.4c-1.5-2.9-1.7-5.3-0.1-8.3c4-7.5,7.6-15.2,11.3-22.8
		C87.6,75.1,88.5,72.8,89.9,69.7z"/>
	<path class="st0" d="M207.1,104.3c0,21.3-0.1,42.7,0.1,64c0.1,4.8-1.3,6.2-6.2,6.2c-23.2-0.2-46.3-0.2-69.5,0
		c-4.4,0-6.2-1.3-5.6-5.6c0.1-0.5,0-1,0-1.5c0-7.7,0-7.7,7.5-7.7c5.3,0,10.7-0.2,16,0.1c3.4,0.1,4.3-1.1,4.2-4.3
		c-0.4-13.5,2-11.2-11.2-11.4c-4.2-0.1-8.3,0-12.5,0c-2.6,0-4-0.9-4-3.8c0-3.1,1.6-3.5,4.1-3.5c6.5,0.1,13-0.1,19.5,0.1
		c3,0.1,4-1,4.1-4c0.4-12.7,0.5-12.7-12.4-12.7c-3.8,0-7.7-0.1-11.5,0c-2.7,0-3.8-1.2-3.8-4c0.1-2.7,1.4-3.3,3.8-3.3
		c6.7,0.1,13.3-0.1,20,0.1c2.7,0.1,3.9-0.8,3.9-3.7c-0.4-15.9,2.4-12.6-12.1-13c-3.8-0.1-7.7-0.1-11.5,0c-2.6,0-4-0.8-4.1-3.8
		c0-2.9,1.4-3.6,4-3.6c6.5,0.1,13-0.1,19.5,0.1c2.9,0.1,4.1-0.7,4.2-3.9C154.1,72,154.2,72,141.3,72c-3.5,0-7,0-10.5,0
		c-2.7,0-4.9-0.3-4.9-4c0-3.6,2.3-3.4,4.7-3.4c6.3,0,12.7-0.1,19,0.1c3.1,0.1,3.9-1.1,4-4.1c0.4-12.6,0.5-12.6-12-12.6
		c-4,0-8,0.3-12-0.2c-1.3-0.2-2.5-2.2-3.7-3.5c-0.1-0.1,0-0.3,0-0.5c-0.7-10-0.7-10,9.3-10c21.8,0,43.7,0.1,65.5-0.1
		c5.1-0.1,6.5,1.6,6.4,6.6C206.9,61.7,207.1,83,207.1,104.3z M176.2,64.6c4.2,0,8.3-0.1,12.5,0c3.6,0.2,4-2.3,3.4-4.6
		c-1-4,3.5-10.7-3.1-11.7c-8.3-1.3-16.9-0.3-25.4-0.3c-2.9,0-3.5,1.7-3.1,3.9c0.8,4.2-2.4,9.2,2.2,12.6c0.5,0.4,1.6,0.1,2.5,0.1
		C168.8,64.7,172.5,64.7,176.2,64.6z M160.4,72.1c0,5.1-0.2,9.4,0.1,13.7c0.1,1,1.9,2.7,3,2.7c8.5,0.2,17,0.1,25.5,0.1
		c3.8,0,3.6-2.8,3.1-4.9c-0.9-3.9,3.2-10.5-3-11.4C180,71.1,170.5,72.1,160.4,72.1z M176.2,112.6c4,0,8,0.3,12-0.1
		c1.4-0.1,3.9-2,3.8-2.9c-0.5-4.5,2.5-9.6-2-13.4c-0.2-0.2-0.6-0.1-1-0.1c-8.5,0-17-0.2-25.5,0.2c-1.1,0-3.1,2.6-2.9,3.7
		c0.6,4.2-2.6,9.2,2.1,12.6c0.5,0.4,1.6,0.1,2.5,0.1C168.8,112.7,172.5,112.7,176.2,112.6z M176,136.6c4.2,0,8.3,0.1,12.5-0.1
		c1.1,0,3.2-0.9,3.2-1.4c0.3-4.5,0.3-9,0-13.4c0-0.6-2-1.7-3.1-1.7c-8.3-0.1-16.7-0.2-25,0.1c-1.1,0-3.2,2.2-3.1,3.1
		c0.7,4.4-2.5,9.5,2,13.3c0.5,0.4,1.6,0.1,2.5,0.1C168.7,136.7,172.4,136.7,176,136.6z M176.1,159.6c4.1,0,8.3,0.3,12.4-0.2
		c1.3-0.1,3.3-2,3.5-3.3c0.5-2.9,0.5-6,0-8.9c-0.2-1.3-2-3.2-3.2-3.2c-8.4-0.3-16.9-0.3-25.4,0c-1.1,0-3,2.7-2.8,3.8
		c0.7,3.9-2.7,8.6,2.1,11.6c0.6,0.4,1.6,0.1,2.5,0.1C168.8,159.7,172.4,159.7,176.1,159.6z"/>
	<path class="st0" d="M89.9,69.7c-1.4,3.1-2.3,5.3-3.4,7.5c-3.7,7.6-7.3,15.3-11.3,22.8c-1.6,3-1.4,5.4,0.1,8.3
		c4.4,8.4,8.5,16.9,12.7,25.4c0.7,1.4,1.3,3,2.2,5.2c-5.2-0.3-9.6-0.4-14-1c-1.2-0.2-2.3-2.1-3-3.5c-2.9-6.5-5.6-13.1-8.6-20.2
		c-2.6,6-5.3,11.5-7.3,17.2c-1.6,4.4-4,6.1-8.5,5.1c-2.2-0.5-4.5-0.3-7.7-0.5c1.4-3,2.4-5.4,3.5-7.7c1-2.1,2-4.2,3.1-6.3
		c2.9-6,7.9-11.9,8-17.9c0.1-6-4.8-12.1-7.6-18.2c-1.8-4.1-3.7-8.1-5.8-13c3.8-0.4,6.8-0.6,9.9-1c3.2-0.4,4.9,0.8,5.9,3.8
		c2,6,4.4,11.8,6.9,18.4c2.6-6.1,5.3-11.5,7.3-17.1c1.5-4.5,3.6-7.1,8.8-6.6C83.8,70.6,86.4,70,89.9,69.7z"/>
	<path class="st1" d="M176.2,64.6c-3.7,0-7.3,0-11,0c-0.8,0-1.9,0.3-2.5-0.1c-4.7-3.4-1.4-8.4-2.2-12.6c-0.4-2.2,0.2-3.9,3.1-3.9
		c8.5,0.1,17.1-1,25.4,0.3c6.6,1,2.1,7.7,3.1,11.7c0.6,2.3,0.1,4.7-3.4,4.6C184.5,64.5,180.3,64.6,176.2,64.6z"/>
	<path class="st1" d="M160.4,72.1c10.1,0,19.6-1,28.7,0.3c6.2,0.9,2.1,7.5,3,11.4c0.5,2,0.7,4.9-3.1,4.9c-8.5-0.1-17,0.1-25.5-0.1
		c-1.1,0-2.9-1.7-3-2.7C160.2,81.5,160.4,77.2,160.4,72.1z"/>
	<path class="st1" d="M176.2,112.7c-3.7,0-7.3,0-11,0c-0.8,0-1.9,0.3-2.5-0.1c-4.7-3.4-1.6-8.4-2.1-12.6c-0.2-1.1,1.9-3.7,2.9-3.7
		c8.5-0.3,17-0.2,25.5-0.2c0.3,0,0.8-0.1,1,0.1c4.4,3.9,1.5,8.9,2,13.4c0.1,0.9-2.4,2.8-3.8,2.9
		C184.2,112.9,180.2,112.6,176.2,112.7z"/>
	<path class="st1" d="M176,136.6c-3.7,0-7.3,0-11,0c-0.8,0-2,0.3-2.5-0.1c-4.5-3.8-1.3-8.9-2-13.3c-0.1-0.9,2-3.1,3.1-3.1
		c8.3-0.3,16.7-0.2,25-0.1c1.1,0,3,1,3.1,1.7c0.3,4.5,0.2,9,0,13.4c0,0.6-2.1,1.4-3.2,1.4C184.4,136.7,180.2,136.6,176,136.6z"/>
	<path class="st1" d="M176.1,159.6c-3.6,0-7.3,0-10.9,0c-0.8,0-1.9,0.3-2.5-0.1c-4.8-3-1.4-7.7-2.1-11.6c-0.2-1.1,1.8-3.7,2.8-3.8
		c8.4-0.3,16.9-0.3,25.4,0c1.1,0,3,1.9,3.2,3.2c0.5,2.9,0.5,6,0,8.9c-0.2,1.3-2.2,3.1-3.5,3.3C184.4,159.9,180.2,159.6,176.1,159.6z
		"/>
</g>
</svg>
