<?xml version="1.0" encoding="utf-8"?>
<!-- Generator: Adobe Illustrator 22.1.0, SVG Export Plug-In . SVG Version: 6.00 Build 0)  -->
<svg version="1.1" xmlns="http://www.w3.org/2000/svg" xmlns:xlink="http://www.w3.org/1999/xlink" x="0px" y="0px"
	 viewBox="0 0 175 175" enable-background="new 0 0 175 175" xml:space="preserve">
<g id="Guides_For_Artboard">
</g>
<g id="Layer_1">
	<g>
		
			<rect x="39.14" y="75.395" transform="matrix(0.8217 -0.5699 0.5699 0.8217 -37.5853 37.4528)" fill="#F91791" width="3.859" height="6.811"/>
		
			<rect x="129.89" y="17.472" transform="matrix(-0.4059 -0.9139 0.9139 -0.4059 166.2399 149.8258)" fill="#F91791" width="3.859" height="6.811"/>
		
			<rect x="39.038" y="12.685" transform="matrix(0.2853 -0.9584 0.9584 0.2853 13.8576 50.7645)" fill="#F91791" width="3.859" height="6.811"/>
		
			<rect x="11.007" y="95.186" transform="matrix(0.2853 -0.9584 0.9584 0.2853 -85.2475 82.8617)" fill="#F91791" width="3.859" height="6.811"/>
		
			<rect x="11.007" y="95.186" transform="matrix(0.2853 -0.9584 0.9584 0.2853 -85.2475 82.8617)" fill="#F91791" width="3.859" height="6.811"/>
		
			<rect x="143.173" y="42.871" transform="matrix(-0.3081 -0.9513 0.9513 -0.3081 145.7896 198.5777)" fill="#F91791" width="3.859" height="6.811"/>
		
			<rect x="12.365" y="68.395" transform="matrix(-0.6441 -0.7649 0.7649 -0.6441 -31.4185 128.9839)" fill="#F91791" width="3.859" height="6.811"/>
		
			<rect x="158.329" y="65.574" transform="matrix(-0.6441 -0.7649 0.7649 -0.6441 210.7223 235.9955)" fill="#F91791" width="3.859" height="6.811"/>
		
			<rect x="72.961" y="3.771" transform="matrix(0.9688 0.2478 -0.2478 0.9688 4.1152 -18.3373)" fill="#F91791" width="3.859" height="6.811"/>
		
			<rect x="20.193" y="32.733" transform="matrix(0.9874 -0.1583 0.1583 0.9874 -5.4425 3.9582)" fill="#F91791" width="3.859" height="6.811"/>
	</g>
	
		<ellipse transform="matrix(0.4042 -0.9147 0.9147 0.4042 47.3553 175.6331)" fill="#F91791" cx="158.486" cy="51.469" rx="3.399" ry="3.399"/>
	<circle fill="#F91791" cx="140.081" cy="65.822" r="3.399"/>
	<path fill="#F91791" d="M146.557,117.414c0.671,1.754-0.207,3.719-1.961,4.389c-1.754,0.671-3.719-0.207-4.389-1.961
		c-0.671-1.754,0.207-3.719,1.961-4.389C143.921,114.782,145.886,115.66,146.557,117.414z"/>
	
		<ellipse transform="matrix(0.9999 -0.0107 0.0107 0.9999 -1.2892 0.2326)" fill="#F91791" cx="20.999" cy="120.078" rx="3.399" ry="3.399"/>
	<path fill="#F91791" d="M106.261,6.836c4.462,1.006,3.955,6.801-0.614,7.016C101.185,12.847,101.692,7.052,106.261,6.836z"/>
	
		<ellipse transform="matrix(0.4042 -0.9147 0.9147 0.4042 -37.092 47.6118)" fill="#F91791" cx="17.999" cy="52.276" rx="3.399" ry="3.399"/>
	<path fill="#F91791" d="M37.688,95.457c0.67,1.754-0.207,3.719-1.961,4.389c-1.754,0.671-3.719-0.207-4.389-1.961
		c-0.671-1.754,0.207-3.719,1.961-4.389C35.052,92.826,37.017,93.704,37.688,95.457z"/>
	<g>
		<polygon fill="#27AAE1" points="125.345,68.242 125.345,68.034 128.81,68.034 		"/>
	</g>
	<g>
		<polygon fill="#27AAE1" points="148.216,68.242 148.216,68.034 151.681,68.034 		"/>
	</g>
	<g display="none">
		<path display="inline" fill="#F91791" d="M87.5,89.807c-8.006,0-14.521-6.514-14.521-14.52c0-8.006,6.514-14.521,14.521-14.521
			c8.006,0,14.52,6.514,14.52,14.521C102.02,83.293,95.506,89.807,87.5,89.807z M87.5,62.241c-7.193,0-13.046,5.852-13.046,13.046
			c0,7.193,5.852,13.045,13.046,13.045s13.045-5.852,13.045-13.045C100.545,68.093,94.693,62.241,87.5,62.241z"/>
		<g display="inline">
			<rect x="86.932" y="139.008" fill="#F91791" width="1.136" height="32.474"/>
		</g>
		<path display="inline" fill="#F91791" d="M98.936,172.664H76.065c-0.957,0-1.732-0.775-1.732-1.733v-64.018L50.684,83.252
			c-0.676-0.678-0.676-1.774,0-2.452l5.475-5.475c0.325-0.325,0.767-0.507,1.226-0.507l0,0c0.459,0,0.901,0.182,1.226,0.507
			l18.196,18.211c2.389-1.139,5.014-1.737,7.662-1.737h6.064c2.642,0,5.258,0.598,7.647,1.737l18.211-18.211
			c0.676-0.676,1.776-0.676,2.452,0l5.475,5.475c0.675,0.678,0.675,1.774,0,2.452l-23.646,23.662v64.018
			C100.669,171.889,99.894,172.664,98.936,172.664z M122.999,82.747l-0.621-0.625l0.101-0.102l-5.482-5.586l-18.6,18.709h-0.13
			c-1.07-1.255-5.73-2.2-11.318-2.2c-4.988,0-9.225,0.754-10.841,1.809L57.71,76.352l-0.623,0.623l-0.102-0.101l-5.568,5.5
			L75.4,106.063v64.978h24.2v-65.048L122.999,82.747z"/>
	</g>
	
		<rect x="155.107" y="91.886" transform="matrix(-0.866 -0.5 0.5 -0.866 245.3888 256.3336)" fill="#F91791" width="3.859" height="6.811"/>
	
		<rect x="66.507" y="47.686" transform="matrix(0.8217 -0.5699 0.5699 0.8217 -16.9154 48.1081)" fill="#F91791" width="3.859" height="6.811"/>
	
		<rect x="121.007" y="103.986" transform="matrix(0.7889 0.6145 -0.6145 0.7889 91.941 -52.876)" fill="#F91791" width="3.859" height="6.811"/>
	
		<rect x="46.107" y="110.686" transform="matrix(0.2853 -0.9584 0.9584 0.2853 -75.0174 127.5807)" fill="#F91791" width="3.859" height="6.811"/>
	
		<rect x="106.707" y="52.286" transform="matrix(0.6441 0.7649 -0.7649 0.6441 81.2605 -63.2794)" fill="#F91791" width="3.859" height="6.811"/>
	<circle fill="#F91791" cx="88.981" cy="47.822" r="3.399"/>
	<path fill="#F91791" d="M138.857,89.914c0.671,1.754-0.207,3.719-1.961,4.389c-1.754,0.671-3.719-0.207-4.389-1.961
		s0.207-3.719,1.961-4.389C136.221,87.282,138.186,88.16,138.857,89.914z"/>
	<path fill="#F91791" d="M48.504,48.305l-0.141,0.141c-0.389,0.389-1.025,0.389-1.414,0L29.695,31.193
		c-0.389-0.389-0.389-1.025,0-1.414l0.141-0.141c0.389-0.389,1.025-0.389,1.414,0L48.504,46.89
		C48.893,47.279,48.893,47.916,48.504,48.305z"/>
	<path fill="#F91791" d="M87.6,32.441h-0.2c-0.55,0-1-0.45-1-1l0-24.4c0-0.55,0.45-1,1-1h0.2c0.55,0,1,0.45,1,1l0,24.4
		C88.6,31.991,88.15,32.441,87.6,32.441z"/>
	<path fill="#F91791" d="M128.836,46.246l-0.141-0.141c-0.389-0.389-0.389-1.025,0-1.414l17.253-17.253
		c0.389-0.389,1.025-0.389,1.414,0l0.141,0.141c0.389,0.389,0.389,1.025,0,1.414l-17.253,17.253
		C129.862,46.635,129.225,46.635,128.836,46.246z"/>
	<path fill="#F91791" d="M108.656,35.756l-0.183-0.081c-0.503-0.222-0.733-0.816-0.511-1.319l9.861-22.318
		c0.222-0.503,0.816-0.733,1.319-0.511l0.183,0.081c0.503,0.222,0.733,0.816,0.511,1.319l-9.861,22.318
		C109.753,35.748,109.159,35.978,108.656,35.756z"/>
	<path fill="#F91791" d="M66.831,36.003l-0.188,0.069c-0.516,0.189-1.094-0.079-1.283-0.595l-8.388-22.913
		c-0.189-0.516,0.079-1.094,0.595-1.283l0.188-0.069c0.516-0.189,1.094,0.079,1.283,0.595l8.388,22.913
		C67.616,35.236,67.348,35.814,66.831,36.003z"/>
	<path fill="#F91791" d="M49.688,57.457c0.67,1.754-0.207,3.719-1.961,4.389c-1.754,0.671-3.719-0.207-4.389-1.961
		c-0.671-1.754,0.207-3.719,1.961-4.389C47.052,54.826,49.017,55.704,49.688,57.457z"/>
	<g>
		<path fill="#F91791" d="M89.013,135.683c-8.558,0-15.521-6.962-15.521-15.52c0-8.558,6.963-15.52,15.521-15.52
			c8.558,0,15.52,6.962,15.52,15.52C104.533,128.721,97.571,135.683,89.013,135.683z M89.013,109.1
			c-6.1,0-11.062,4.963-11.062,11.062c0,6.1,4.963,11.062,11.062,11.062c6.1,0,11.062-4.963,11.062-11.062
			C100.075,114.063,95.112,109.1,89.013,109.1z"/>
		<path fill="#F91791" d="M68.626,175.605c-1.183,0-2.169-0.93-2.225-2.124l-1.471-31.306l-8.526-70.69
			c-0.003-0.026-0.006-0.051-0.008-0.077c-0.352-4.121,2.581-7.791,6.678-8.356c4.126-0.57,7.95,2.196,8.701,6.295l7.993,43.043
			c0.225,1.21-0.574,2.374-1.785,2.599c-1.212,0.224-2.374-0.575-2.599-1.785l-7.993-43.048c-0.321-1.752-1.95-2.932-3.708-2.687
			c-1.734,0.239-2.979,1.784-2.847,3.526l8.53,70.728c0.006,0.054,0.011,0.108,0.014,0.162l1.475,31.387
			c0.058,1.23-0.892,2.273-2.122,2.331C68.697,175.604,68.661,175.605,68.626,175.605z"/>
		<path fill="#F91791" d="M109.29,175.605c-0.039,0-0.078-0.001-0.118-0.003c-1.229-0.064-2.174-1.112-2.111-2.342l1.629-31.387
			c0.003-0.049,0.007-0.098,0.012-0.147l8.377-70.73c0.133-1.743-1.113-3.289-2.847-3.528c-1.763-0.243-3.387,0.936-3.707,2.682
			l-7.995,42.759c-0.226,1.21-1.39,2.008-2.601,1.781c-1.21-0.226-2.008-1.391-1.781-2.601l7.994-42.751
			c0.749-4.091,4.573-6.855,8.699-6.287c4.097,0.565,7.03,4.236,6.678,8.356c-0.002,0.024-0.005,0.048-0.007,0.072l-8.373,70.698
			l-1.625,31.314C111.452,174.681,110.467,175.605,109.29,175.605z"/>
	</g>
</g>
</svg>
