<?xml version="1.0" encoding="utf-8"?>
<!-- Generator: Adobe Illustrator 22.1.0, SVG Export Plug-In . SVG Version: 6.00 Build 0)  -->
<svg version="1.1" id="Layer_1" xmlns="http://www.w3.org/2000/svg" xmlns:xlink="http://www.w3.org/1999/xlink" x="0px" y="0px"
	 viewBox="0 0 100 100" style="enable-background:new 0 0 100 100;" xml:space="preserve">
<style type="text/css">
	.st0{fill:#F91791;}
</style>
<g>
	<path class="st0" d="M64.5,91.6c-7.3,0.2-6.6,0-8.5-6.2c-1.4-4.7-4.1-8.7-7.3-12.3c-4.6-5.1-9.5-9.9-14.1-15
		c-4-4.6-7.9-9.4-11.5-14.3c-2.7-3.7-4-8.1-4.7-12.6c-0.4-2.7,0.6-3.5,3.1-2.7c2.9,0.9,5.9,1.7,8.8,2.7c1.1,0.4,2.4,1.2,2.9,2.1
		c2.9,6.2,7.2,11.1,11.9,15.9c1.2,1.2,2.3,2.4,3.5,3.6c0.8,0.9,1.8,1,2.6,0.1c5.2-5.3,10.9-10.3,14.2-17.2c1.4-3,3.3-4.7,6.5-5.3
		c2.3-0.4,4.5-1.3,6.7-2c2.4-0.7,3.3,0,2.9,2.6c-0.7,5.3-2.6,10.3-5.8,14.5c-4.4,5.7-9.2,11-14,16.4c-2.1,2.4-2.3,2.6-0.3,5.2
		c4.6,6,8.1,12.5,9.2,20.1c0.1,0.7,0.2,1.5,0.2,2.2c0.1,1.4-0.6,2.2-2,2.2C67.4,91.7,66,91.6,64.5,91.6z"/>
	<path class="st0" d="M35.9,91.7c-1.5,0-3.1,0-4.6,0c-1.5,0-2.2-0.8-2.1-2.3c0.4-7,3.1-13.1,6.9-18.8c0.7-1.1,1.8-1.2,2.7-0.2
		c2.3,2.5,4.6,5,6.7,7.7c0.5,0.7,0.4,2.1,0.1,3.1c-0.7,2.8-1.8,5.5-2.6,8.3c-0.4,1.4-1.1,2.2-2.6,2.2C39,91.7,37.5,91.7,35.9,91.7z"
		/>
	<path class="st0" d="M50.2,33.5c1.7,0,3.5-0.1,5.2,0c1.8,0.1,2.5,1,1.7,2.4c-1.7,2.9-3.7,5.6-5.7,8.3c-0.8,1.1-2.1,1-2.9-0.1
		c-1.9-2.7-3.9-5.3-5.6-8.2c-0.9-1.6-0.2-2.4,1.7-2.5C46.5,33.4,48.4,33.5,50.2,33.5C50.2,33.5,50.2,33.5,50.2,33.5z"/>
	<path class="st0" d="M49.9,19.1c-3.1,0-5.4-2.4-5.4-5.5c0.1-3,2.5-5.4,5.6-5.3c3,0,5.5,2.5,5.4,5.5C55.4,16.8,53,19.1,49.9,19.1z"
		/>
	<path class="st0" d="M73.6,18.6c0,2.9-2.5,5.5-5.5,5.5c-3,0.1-5.4-2.4-5.5-5.5c0-3.1,2.3-5.5,5.4-5.5
		C71.1,13.2,73.6,15.7,73.6,18.6z"/>
	<path class="st0" d="M37.3,18.8c0,3.1-2.4,5.5-5.5,5.4c-3-0.1-5.4-2.5-5.4-5.6c0-3,2.4-5.4,5.5-5.4C35.1,13.3,37.4,15.6,37.3,18.8z
		"/>
</g>
</svg>
