<?xml version="1.0" encoding="utf-8"?>
<!-- Generator: Adobe Illustrator 22.1.0, SVG Export Plug-In . SVG Version: 6.00 Build 0)  -->
<svg version="1.1" id="Layer_1" xmlns="http://www.w3.org/2000/svg" xmlns:xlink="http://www.w3.org/1999/xlink" x="0px" y="0px"
	 viewBox="0 0 100 100" enable-background="new 0 0 100 100" xml:space="preserve">
<g>
	<path fill="#F91791" d="M91.899,45.304l-7.043-1.445c-0.903-5.237-2.89-10.114-5.96-14.267l3.973-5.96
		c0.542-0.722,0.361-1.625-0.181-2.348l-3.973-3.973c-0.542-0.542-1.625-0.722-2.348-0.181l-5.96,3.973
		c-4.154-3.07-9.03-5.057-14.267-5.96l-1.445-7.043c-0.181-0.903-0.903-1.445-1.806-1.445H47.11c-0.903,0-1.625,0.542-1.806,1.445
		l-1.445,7.043c-5.237,0.903-10.114,2.89-14.267,5.96l-5.96-3.973c-0.722-0.542-1.625-0.361-2.348,0.181l-3.973,3.973
		c-0.542,0.722-0.722,1.625-0.181,2.348l3.973,5.96c-2.89,4.154-5.057,9.03-5.96,14.267l-7.043,1.445
		c-0.903,0.181-1.445,0.903-1.445,1.806v5.779c0,0.903,0.542,1.625,1.445,1.806l7.043,1.445c0.903,5.237,2.89,10.114,5.96,14.267
		l-3.973,5.96c-0.542,0.722-0.361,1.625,0.181,2.348l3.973,3.973c0.542,0.542,1.625,0.722,2.348,0.181l5.96-3.973
		c4.154,3.07,9.03,5.057,14.267,5.96l1.445,7.043c0.181,0.903,0.903,1.445,1.806,1.445h5.779c0.903,0,1.625-0.542,1.806-1.445
		l1.445-7.043c5.237-0.903,10.114-2.89,14.267-5.96l5.96,3.973c0.722,0.542,1.625,0.361,2.348-0.181l3.973-3.973
		c0.542-0.542,0.722-1.625,0.181-2.348l-3.973-5.96c2.89-4.154,5.057-9.03,5.96-14.267l7.043-1.445
		c0.903-0.181,1.445-0.903,1.445-1.806V47.11C93.344,46.207,92.622,45.485,91.899,45.304z M50,73.839
		c-13.184,0-23.839-10.655-23.839-23.839S36.816,26.161,50,26.161S73.839,36.816,73.839,50S63.184,73.839,50,73.839z"/>
	<path fill="#F91791" d="M64.448,60.294c-0.181,0-7.946-2.89-8.127-2.89l0,0l-1.445-2.528l0,0v-1.264
		c1.445-1.987,3.251-2.709,3.251-4.696v-1.264c1.806,0.903,3.431-6.863,1.084-6.863c0.181-1.445,0.181-3.431,0.181-4.515
		c-0.181-1.625-2.167-2.348-2.167-2.348c-0.542-3.07-3.973-3.973-7.043-3.612c-6.863,0.361-9.933,4.154-9.572,10.475
		c-1.987,0.542-0.722,7.224,1.264,6.863h0.181c0,0.903-0.181,2.167,0.722,3.251l2.528,2.709v1.445l0,0l-1.625,2.528l0,0
		c-6.863,2.528-9.752,2.89-11.378,5.237c3.973,5.599,10.475,9.211,17.879,9.211s13.906-3.612,17.879-9.211
		C67.157,61.739,66.254,61.017,64.448,60.294C64.629,60.294,64.629,60.294,64.448,60.294z"/>
</g>
</svg>
