<?xml version="1.0" encoding="utf-8"?>
<!-- Generator: Adobe Illustrator 22.1.0, SVG Export Plug-In . SVG Version: 6.00 Build 0)  -->
<svg version="1.1" id="Layer_1" xmlns="http://www.w3.org/2000/svg" xmlns:xlink="http://www.w3.org/1999/xlink" x="0px" y="0px"
	 viewBox="0 0 100 100" style="enable-background:new 0 0 100 100;" xml:space="preserve">
<style type="text/css">
	.st0{fill:#F91791;}
</style>
<g id="Layer_1_1_">
	<g>
		<path class="st0" d="M8.3,19.9h70.5v11h5.9V17.7c0-2-1.7-3.7-3.7-3.7H6.2c-2,0-3.7,1.7-3.7,3.7v50.7c0,2,1.6,3.7,3.7,3.7h30.1v6.7
			h-6.6c-1,0-1.8,0.8-1.8,1.8v3.5c0,1,0.8,1.8,1.8,1.8h28c1,0,1.8-0.8,1.8-1.8v-3.5c0-1-0.8-1.8-1.8-1.8H51v-6.7h13.8V59.2H8.3V19.9
			z M43.6,63c1.4,0,2.6,1.2,2.6,2.6s-1.2,2.6-2.6,2.6c-1.4,0-2.6-1.2-2.6-2.6S42.2,63,43.6,63z"/>
		<path class="st0" d="M93.5,35.1H72.9c-2.2,0-3.9,1.8-3.9,4v43c0,2.2,1.8,4,3.9,4h20.6c2.2,0,4-1.8,4-4V39
			C97.5,36.8,95.7,35.1,93.5,35.1z M79.9,38h6.5c0.5,0,0.9,0.4,0.9,0.9s-0.4,0.9-0.9,0.9h-6.5c-0.5,0-0.9-0.4-0.9-0.9
			S79.4,38,79.9,38z M83.2,83.1c-1.4,0-2.6-1.2-2.6-2.6s1.2-2.6,2.6-2.6s2.6,1.2,2.6,2.6C85.8,81.9,84.6,83.1,83.2,83.1z M93.2,75
			h-20V42.7h20.1L93.2,75L93.2,75z"/>
	</g>
</g>
</svg>
