<?xml version="1.0" encoding="utf-8"?>
<!-- Generator: Adobe Illustrator 22.1.0, SVG Export Plug-In . SVG Version: 6.00 Build 0)  -->
<svg version="1.1" id="Layer_1" xmlns="http://www.w3.org/2000/svg" xmlns:xlink="http://www.w3.org/1999/xlink" x="0px" y="0px"
	 viewBox="0 0 99 92.6" style="enable-background:new 0 0 99 92.6;" xml:space="preserve">
<style type="text/css">
	.st0{fill:#F91791;}
</style>
<path class="st0" d="M45.1,18.8c5.2,0,9.4-4.2,9.4-9.4S50.3,0,45.1,0s-9.4,4.2-9.4,9.4S39.9,18.8,45.1,18.8z M45.1,3.9
	c3,0,5.5,2.5,5.5,5.5s-2.5,5.5-5.5,5.5s-5.5-2.5-5.5-5.5S42.1,3.9,45.1,3.9z"/>
<path class="st0" d="M27.9,25.8H11.2c-1.1,0-1.9,0.9-1.9,1.9c0,1.1,0.9,1.9,1.9,1.9h16.7c1.1,0,1.9-0.9,1.9-1.9
	C29.8,26.6,29,25.8,27.9,25.8z"/>
<path class="st0" d="M98.9,51.2l-3.7-8.9c-0.2-0.6-0.8-1-1.4-1.2c-0.6-0.1-1.3,0.1-1.8,0.5l-4.3,4.3l-1.5-3.6
	c-0.2-0.6-0.8-1-1.4-1.2c-0.6-0.1-1.3,0.1-1.8,0.5l-4.6,4.6l-1.6-4c-0.2-0.6-0.8-1-1.4-1.2c-0.6-0.1-1.3,0.1-1.8,0.5l-5.2,5.2h-7.9
	l-0.2-1.1c0.1-0.1,0.2-0.1,0.3-0.2l28.6-28.6c0.6-0.6,0.8-1.6,0.3-2.4c-0.5-0.8-1.4-1.1-2.3-0.8C77.8,17,69,22.6,62,29.7l-3.7,3.6
	l-2-12.2c-0.1-0.5-0.3-0.9-0.7-1.2c-0.8-0.7-2.1-0.5-2.7,0.3c-1.8,2.3-4.6,3.6-7.6,3.6s-5.8-1.3-7.6-3.6l-0.1-0.1
	c-0.1-0.1-0.1-0.1-0.2-0.2c-0.1-0.1-0.2-0.2-0.4-0.3c-0.1,0-0.1-0.1-0.2-0.1c-0.2-0.1-0.4-0.1-0.6-0.1l0,0H14c-0.1,0-0.3,0-0.4,0
	l-12,2.5c-0.5,0.1-1,0.4-1.3,0.9s-0.3,1-0.2,1.5C0.2,25,3.3,35.1,13.9,35.6c3.1,0.2,6.4,0.2,9.4,0.2c3.4,0,6.4-0.1,8.3-0.1l-5,29.8
	l-3,0.3l-0.4-4.2c0-0.5-0.3-1-0.7-1.3c-0.4-0.3-0.9-0.5-1.4-0.4l-4.2,0.4l-0.4-4.2c0-0.5-0.3-1-0.7-1.3c-0.4-0.3-0.9-0.5-1.4-0.4
	l-4.2,0.4L10,50.5c-0.1-1.1-1-1.9-2.1-1.8l-6.1,0.5c-1.1,0.1-1.9,1-1.8,2.1L0.2,54c0.6,7,3.9,13.3,9.2,17.8l14.1,11.9
	c-0.2,1.7,0.2,3.4,1.2,4.8c1.1,1.5,2.7,2.6,4.5,2.9c2.6,0.5,5.2-0.5,6.9-2.7c0.1-0.1,0.2-0.3,0.3-0.5L45.1,66l8.8,22.3
	c0.1,0.2,0.2,0.3,0.3,0.5c1.3,1.8,3.4,2.8,5.6,2.8c0.4,0,0.8,0,1.3-0.1c1.8-0.3,3.4-1.4,4.5-2.9c1-1.4,1.4-3.2,1.2-4.9l14.6-9.6
	c0.5,2.8,2.3,5.2,5.1,6.3c1,0.4,2,0.5,2.9,0.5c3.3,0,6.4-2,7.7-5.3c1.6-4.2-0.5-9-4.7-10.6c-1-0.4-2.1,0.1-2.5,1.1s0.1,2.1,1.1,2.5
	c2.2,0.9,3.4,3.4,2.5,5.6s-3.4,3.4-5.6,2.5s-3.4-3.4-2.5-5.6c0-0.1,0-0.1,0-0.2c0.2-0.6,0.2-1.2-0.2-1.7c-0.6-0.9-1.8-1.1-2.7-0.6
	L66,79.4l-4.8-28.7h8.1c0.5,0,1-0.2,1.4-0.6l3.7-3.7l2.6,6.2c0.3,0.8,1,1.2,1.8,1.2c0.2,0,0.5,0,0.7-0.1c1-0.4,1.5-1.5,1.1-2.5
	l-0.4-1.1l0,0l3.7-3.7l2.6,6.2c0.3,0.8,1,1.2,1.8,1.2c0.2,0,0.5,0,0.7-0.1c1-0.4,1.5-1.5,1.1-2.5l-0.6-1.4l3.4-3.4l2.6,6.2
	c0.3,0.8,1,1.2,1.8,1.2c0.2,0,0.5,0,0.7-0.1C98.8,53.3,99.3,52.2,98.9,51.2z M64.7,32.5c4.2-4.2,9-7.8,14.1-10.7L59.5,41.1L59,38
	L64.7,32.5z M14.1,31.8c-5.4-0.3-8.2-4-9.4-6.3l9.5-2h19.5l-1.4,8.4C29,31.9,21.2,32.1,14.1,31.8z M4.1,53.7L4,53l2.2-0.2L6.6,57
	c0.1,1.1,1,1.9,2.1,1.8l4.2-0.4l0.4,4.2c0.1,1.1,1,1.9,2.1,1.8l4.2-0.4l0.4,4.2c0,0.5,0.3,1,0.7,1.3c0.4,0.3,0.9,0.5,1.4,0.4l4-0.3
	l-1.6,9.7L12,68.8C7.4,65,4.6,59.6,4.1,53.7z M62.8,83.9c0.1,0.8,0,1.7-0.5,2.3c-0.5,0.7-1.2,1.1-2,1.3c-1.1,0.2-2.2-0.2-2.9-1
	L46.9,59.9c-0.3-0.7-1-1.2-1.8-1.2s-1.5,0.5-1.8,1.2L32.9,86.5c-0.7,0.8-1.8,1.2-2.9,1c-0.8-0.1-1.5-0.6-2-1.3
	c-0.5-0.7-0.7-1.5-0.5-2.4l9.9-58.5c2.2,1.6,5,2.4,7.8,2.4c2.9,0,5.6-0.9,7.8-2.4L62.8,83.9z"/>
</svg>
