<?xml version="1.0" encoding="utf-8"?>
<!-- Generator: Adobe Illustrator 22.1.0, SVG Export Plug-In . SVG Version: 6.00 Build 0)  -->
<svg version="1.1" id="Layer_1" xmlns="http://www.w3.org/2000/svg" xmlns:xlink="http://www.w3.org/1999/xlink" x="0px" y="0px"
	 viewBox="0 0 100 100" enable-background="new 0 0 100 100" xml:space="preserve">
<path fill="#F91791" d="M86.562,40.791l-4.663-0.818c-0.587-1.869-1.338-3.683-2.245-5.42l2.723-3.88
	c1.899-2.698,1.579-6.371-0.757-8.7l-3.593-3.593c-2.329-2.336-6.002-2.656-8.7-0.757l-3.88,2.723
	c-1.737-0.909-3.551-1.663-5.42-2.253l-0.774-4.611c-0.549-3.267-3.378-5.658-6.69-5.655h-5.081
	c-3.312-0.003-6.142,2.388-6.69,5.655l-0.818,4.663c-1.87,0.59-3.683,1.344-5.42,2.253l-3.88-2.723
	c-2.698-1.899-6.371-1.579-8.7,0.757l-3.593,3.593c-2.336,2.329-2.656,6.002-0.757,8.7l2.723,3.88
	c-0.906,1.737-1.657,3.551-2.245,5.42l-4.62,0.766c-3.267,0.549-5.658,3.378-5.655,6.69v5.09c0.001,3.309,2.392,6.134,5.655,6.682
	l4.663,0.818c0.587,1.869,1.338,3.683,2.245,5.42l-2.723,3.88c-1.899,2.698-1.579,6.371,0.757,8.7l3.593,3.593
	c2.329,2.336,6.002,2.656,8.7,0.757l3.88-2.723c1.737,0.906,3.551,1.657,5.42,2.245l0.774,4.62c0.567,3.246,3.386,5.614,6.682,5.611
	h5.09c3.299,0.007,6.123-2.362,6.69-5.611l0.818-4.663c1.869-0.587,3.683-1.339,5.42-2.245l3.88,2.723
	c2.698,1.899,6.371,1.579,8.7-0.757l3.593-3.593c2.336-2.329,2.656-6.002,0.757-8.7l-2.723-3.88c0.907-1.737,1.658-3.551,2.245-5.42
	l4.62-0.774c3.246-0.567,5.614-3.386,5.611-6.682v-5.09C92.18,44.183,89.811,41.358,86.562,40.791z M87.867,52.562
	c0.001,1.185-0.851,2.198-2.018,2.401l-5.994,1.053c-0.838,0.14-1.517,0.755-1.74,1.575c-0.653,2.435-1.621,4.775-2.88,6.96
	c-0.42,0.732-0.38,1.64,0.104,2.332l3.48,4.985c0.681,0.968,0.567,2.286-0.27,3.123l-3.593,3.593
	c-0.837,0.837-2.155,0.951-3.123,0.27l-4.985-3.48c-0.682-0.479-1.577-0.526-2.306-0.122c-2.185,1.259-4.525,2.227-6.96,2.88
	c-0.82,0.223-1.435,0.902-1.575,1.74l-1.053,5.994c-0.203,1.167-1.216,2.019-2.401,2.018h-5.072
	c-1.185,0.001-2.198-0.851-2.401-2.018l-1.053-6.003c-0.14-0.838-0.755-1.517-1.575-1.74c-2.435-0.653-4.775-1.621-6.96-2.88
	c-0.732-0.42-1.64-0.38-2.332,0.104l-4.985,3.48c-0.968,0.681-2.286,0.567-3.123-0.27l-3.593-3.593
	c-0.837-0.837-0.951-2.155-0.27-3.123l3.48-4.985c0.482-0.684,0.53-1.584,0.122-2.314c-1.259-2.184-2.227-4.524-2.88-6.96
	c-0.223-0.82-0.902-1.435-1.74-1.575l-5.977-1.044c-1.167-0.203-2.019-1.216-2.018-2.401v-5.081
	c-0.001-1.185,0.851-2.198,2.018-2.401l5.994-1.053c0.838-0.14,1.517-0.755,1.74-1.575c0.653-2.436,1.621-4.775,2.88-6.96
	c0.424-0.734,0.383-1.647-0.104-2.34l-3.48-4.985c-0.681-0.968-0.567-2.286,0.27-3.123l3.602-3.602
	c0.837-0.837,2.155-0.951,3.123-0.27l4.985,3.48c0.691,0.484,1.6,0.525,2.332,0.104c2.185-1.259,4.525-2.227,6.96-2.88
	c0.82-0.223,1.435-0.902,1.575-1.74l1.053-5.994c0.222-1.13,1.206-1.951,2.358-1.966h5.09c1.185-0.001,2.198,0.851,2.401,2.018
	l1.053,5.994c0.14,0.838,0.755,1.517,1.575,1.74c2.436,0.652,4.775,1.62,6.96,2.88c0.732,0.42,1.64,0.38,2.332-0.104l4.985-3.48
	c0.968-0.681,2.286-0.567,3.123,0.27l3.593,3.593c0.837,0.837,0.951,2.155,0.27,3.123l-3.48,4.985
	c-0.482,0.68-0.532,1.575-0.13,2.306c1.259,2.185,2.227,4.524,2.88,6.96c0.223,0.82,0.902,1.435,1.74,1.575l5.994,1.053
	c1.167,0.203,2.019,1.216,2.018,2.401L87.867,52.562z M50.022,26.027c-13.252,0-23.995,10.743-23.995,23.995
	S36.77,74.016,50.022,74.016s23.995-10.743,23.995-23.995C74.002,36.776,63.268,26.042,50.022,26.027z M54.815,40.574h-9.57
	c1.105-3.146,2.725-6.086,4.794-8.7C52.102,34.489,53.716,37.429,54.815,40.574z M55.973,44.924c0.615,3.371,0.615,6.825,0,10.196
	H44.071c-0.615-3.371-0.615-6.825,0-10.196H55.973z M45.306,30.951c-2.051,2.942-3.625,6.19-4.663,9.622h-7.83
	C35.458,35.768,39.985,32.282,45.306,30.951z M30.377,50.022c0.001-1.722,0.229-3.436,0.679-5.098h8.587
	c-0.535,3.378-0.535,6.819,0,10.196h-8.587C30.607,53.458,30.378,51.744,30.377,50.022z M32.804,59.47h7.83
	c1.041,3.433,2.618,6.681,4.672,9.622C39.982,67.764,35.452,64.277,32.804,59.47z M45.228,59.47h9.57
	c-1.104,3.146-2.725,6.086-4.794,8.7C47.941,65.555,46.327,62.615,45.228,59.47z M54.737,69.092
	c2.054-2.942,3.631-6.189,4.672-9.622h7.83C64.592,64.277,60.062,67.764,54.737,69.092z M69.666,50.022
	c-0.001,1.722-0.229,3.436-0.679,5.098h-8.587c0.535-3.378,0.535-6.819,0-10.196h8.587C69.437,46.586,69.665,48.3,69.666,50.022z
	 M59.409,40.574c-1.039-3.433-2.612-6.68-4.663-9.622c5.321,1.331,9.848,4.817,12.493,9.622H59.409z"/>
</svg>
