<?xml version="1.0" encoding="utf-8"?>
<!-- Generator: Adobe Illustrator 22.1.0, SVG Export Plug-In . SVG Version: 6.00 Build 0)  -->
<svg version="1.1" id="Layer_1" xmlns="http://www.w3.org/2000/svg" xmlns:xlink="http://www.w3.org/1999/xlink" x="0px" y="0px"
	 viewBox="0 0 100 100" enable-background="new 0 0 100 100" xml:space="preserve">
<g>
	<path fill="#F91791" d="M18.55,74.651c13.6,1.87,27.2,3.825,41.055,5.695c0-19.38,0-38.59,0-58.14c-3.23,0.765-6.29,1.53-9.35,2.21
		c-5.865,1.445-11.645,2.89-17.51,4.165c-1.36,0.34-1.785,0.85-1.785,2.21c0,11.985,0,23.97,0,35.87c0,1.19-0.34,1.87-1.53,2.38
		c-4.165,1.53-8.33,3.23-12.75,4.93c-0.085-0.765-0.17-1.275-0.17-1.87c0-14.875,0-29.75-0.085-44.625
		c0-1.36,0.34-1.955,1.615-2.465c13.685-4.76,27.115-9.86,40.545-14.875c0.68-0.255,1.53-0.255,2.21-0.085
		c7.14,1.955,14.195,4.08,21.335,6.12c1.105,0.34,1.445,0.85,1.445,2.04c-0.085,21.165-0.085,42.33,0,63.495
		c0,1.105-0.255,1.7-1.445,2.04c-7.225,2.04-14.365,4.165-21.505,6.205c-0.51,0.17-1.19,0.17-1.7,0
		c-13.515-4.93-26.945-9.86-40.29-14.875C18.55,74.906,18.55,74.821,18.55,74.651z"/>
</g>
</svg>
