<?xml version="1.0" encoding="utf-8"?>
<!-- Generator: Adobe Illustrator 22.1.0, SVG Export Plug-In . SVG Version: 6.00 Build 0)  -->
<svg version="1.1" id="Layer_1" xmlns="http://www.w3.org/2000/svg" xmlns:xlink="http://www.w3.org/1999/xlink" x="0px" y="0px"
	 viewBox="0 0 221 206" style="enable-background:new 0 0 221 206;" xml:space="preserve">
<style type="text/css">
	.st0{fill:transparent;}
	.st1{fill:#F91791;}
	.st1:hover{fill:#FFFFFF;}
</style>
<g>
	<path class="st0" d="M1,207C1,138.3,1,69.7,1,1c73.7,0,147.3,0,221,0c0,68.7,0,137.3,0,206C148.3,207,74.7,207,1,207z M124.6,9.1
		c-8.5,1.5-16,2.8-23.5,4.2c-28.8,5.1-57.6,10.1-86.4,15.1c-2.9,0.5-4.5,1.4-4.5,5c0.1,47.1,0.1,94.3,0,141.4c0,3.3,0.9,4.5,4.3,5.1
		c35,6.1,70,12.4,105,18.6c1.5,0.3,3.1,0,5,0c0-11.7,0.2-22.9-0.1-34c-0.1-4.5,1.1-6,5.8-5.9c23.7,0.2,47.3,0.1,71,0.1
		c8.2,0,10.3-2.1,10.3-10.3c0-29.1,0-58.3,0-87.4c0-8.4-2.3-10.6-10.7-10.6c-23.3,0-46.6,0-70,0c-1.9,0-3.9,0-6.3,0
		C124.6,36.4,124.6,23.1,124.6,9.1z"/>
	<path class="st1" d="M124.6,9.1c0,14,0,27.2,0,41.2c2.4,0,4.3,0,6.3,0c23.3,0,46.6,0,70,0c8.4,0,10.7,2.2,10.7,10.6
		c0,29.1,0,58.3,0,87.4c0,8.3-2.1,10.3-10.3,10.3c-23.7,0-47.3,0.1-71-0.1c-4.7,0-5.9,1.4-5.8,5.9c0.3,11.1,0.1,22.3,0.1,34
		c-1.9,0-3.5,0.2-5,0c-35-6.2-70-12.5-105-18.6c-3.4-0.6-4.3-1.8-4.3-5.1c0.1-47.1,0.1-94.3,0-141.4c0-3.6,1.6-4.5,4.5-5
		c28.8-5,57.6-10.1,86.4-15.1C108.7,12,116.2,10.6,124.6,9.1z M125,95.3c-0.2,2.6-0.3,3.9-0.3,5.2c0,15.8,0.1,31.6-0.1,47.5
		c-0.1,4.3,1.5,5.3,5.5,5.3c23.3-0.1,46.6-0.2,69.9,0c4.6,0,5.5-1.6,5.5-5.8c-0.2-24.3-0.1-48.6-0.1-72.9c0-1.6-0.2-3.2-0.3-5.5
		c-2,1.4-3.3,2.2-4.6,3.2C185.7,84.1,170.9,96,156.2,108c-7.4,6-8,6-15.2,0.1C136,104,130.9,100,125,95.3z M206.5,56.9
		c-28.2,0-54.8,0-81.9,0c0,10.1-0.1,19.9,0.1,29.7c0,1.3,1.4,2.9,2.6,3.9c5.9,4.9,11.9,9.6,17.8,14.5c2.3,1.9,4,2.1,6.5,0.1
		c16.9-13.8,34-27.4,50.9-41.2C204.2,62.5,204.9,59.9,206.5,56.9z M91.6,103.6c-1.5-6.3-2.1-12.9-4.6-18.7
		c-7.9-18.1-30.1-20.5-41.6-4.9c-9.3,12.6-9.5,35.9-0.4,48.6c10,14,29.6,13.6,39.3-0.6C89.3,120.6,90.5,112.4,91.6,103.6z"/>
	<path class="st0" d="M125,95.3c5.9,4.8,11,8.7,16,12.8c7.2,5.9,7.8,5.9,15.2-0.1c14.7-11.9,29.5-23.8,44.3-35.7
		c1.2-1,2.6-1.8,4.6-3.2c0.1,2.3,0.3,3.9,0.3,5.5c0,24.3-0.1,48.6,0.1,72.9c0,4.2-0.9,5.8-5.5,5.8c-23.3-0.2-46.6-0.2-69.9,0
		c-4,0-5.5-1-5.5-5.3c0.2-15.8,0.1-31.6,0.1-47.5C124.7,99.2,124.8,97.9,125,95.3z"/>
	<path class="st0" d="M206.5,56.9c-1.7,3-2.3,5.7-4,7.1c-16.9,13.8-34,27.4-50.9,41.2c-2.4,2-4.2,1.8-6.5-0.1
		c-5.9-4.9-11.9-9.6-17.8-14.5c-1.2-1-2.6-2.6-2.6-3.9c-0.2-9.8-0.1-19.6-0.1-29.7C151.8,56.9,178.3,56.9,206.5,56.9z"/>
	<path class="st0" d="M91.6,103.6c-1.1,8.8-2.3,17.1-7.3,24.4c-9.7,14.2-29.3,14.5-39.3,0.6c-9.1-12.7-8.9-36,0.4-48.6
		C56.9,64.3,79.1,66.8,87,84.9C89.5,90.7,90.1,97.3,91.6,103.6z M49.9,103.9c1.5,5.4,2.5,10.3,4.3,14.8c1.7,4.1,5.2,6.2,9.9,6.1
		c4.8-0.1,7.9-2.7,9.6-6.7c4.1-9.5,4-19.2-0.5-28.4C69.3,81.5,59.5,81,55,88.8C52.4,93.4,51.5,98.9,49.9,103.9z"/>
	<path class="st1" d="M49.9,103.9c1.6-5,2.5-10.6,5.1-15.1c4.5-7.8,14.3-7.3,18.3,0.8c4.5,9.2,4.5,18.9,0.5,28.4
		c-1.7,4-4.8,6.6-9.6,6.7c-4.7,0.1-8.3-2-9.9-6.1C52.4,114.2,51.4,109.4,49.9,103.9z"/>
</g>
</svg>
