<?xml version="1.0" encoding="utf-8"?>
<!-- Generator: Adobe Illustrator 22.1.0, SVG Export Plug-In . SVG Version: 6.00 Build 0)  -->
<svg version="1.1" class="Layer_1" xmlns="http://www.w3.org/2000/svg" xmlns:xlink="http://www.w3.org/1999/xlink" x="0px" y="0px"
	 viewBox="0 0 175 175" style="enable-background:new 0 0 175 175;" xml:space="preserve">
<style type="text/css">
	.st0{fill:#F91791;}
	.st1{fill:#F91791;stroke:#000000;stroke-width:3;stroke-miterlimit:10;}
	.outOfTheBox .outOfTheBoxIcon0{fill:#F91791;}
	.outOfTheBox .outOfTheBoxIcon1{fill:none;stroke:#F91791;stroke-width:3;stroke-miterlimit:10;}
	.outOfTheBox #bulb{fill:none;stroke:#F91791;stroke-width:3;stroke-miterlimit:10;}
	.outOfTheBox:hover .outOfTheBoxIcon0{fill:green;} 
	.outOfTheBox:hover #bulb{fill:#F91791;stroke:#F91791;stroke-width:3;stroke-miterlimit:10;}
	.outOfTheBox:hover #ray .outOfTheBoxIcon0{fill:#fff;}
	.outOfTheBox:hover #gear .outOfTheBoxIcon0 {fill:#000;stroke:#F91791;stroke-width:3;stroke-miterlimit:10;}
</style>
<g id="box">
	<g>
		<g>
			<polygon class="st0" points="87.5,165.7 45.2,146.8 45.2,119.3 48,119.3 48,145 87.5,162.6 126.9,145 126.9,119.3 129.7,119.3
				129.7,146.8 			"/>
		</g>
	</g>
	<g>
		<g>
			<g>
				<g>
					<g>
						<g>
							<g>
								<g>
									<path class="st0" d="M75.1,131.9l-43.4-16.9l14.1-15.8l31.7-9.8l0.8,2.7l-27.5,8.5l39,15.1L75.1,131.9z M36.5,113.9
										l37.8,14.7L85,116.9l-38-14.8L36.5,113.9z"/>
								</g>
								<g>
									<path class="st0" d="M99.8,131.9l-14.8-16.2l39-15.1l-26.9-8.1l0.8-2.7l31.2,9.3l14.1,15.8L99.8,131.9z M89.9,116.9
										l10.7,11.7l37.8-14.7l-10.5-11.8L89.9,116.9z"/>
								</g>
							</g>
						</g>
					</g>
				</g>
			</g>
		</g>
	</g>
	<g>
		<rect x="86.1" y="116.4" class="st0" width="2.8" height="47.7"/>
	</g>
</g>
<g id="lightbulb">
	<g id="bottomBulb">
		<g>
			<polygon class="st0" points="79.4,87.7 76.6,87.7 76.6,83.4 98.9,83.4 98.9,86.2 96.1,86.2 96.1,86.2 79.4,86.2 			"/>
		</g>
		<g>
			<polygon class="st0" points="83.8,104.4 83,104.4 80.7,100.4 76.6,100.4 76.6,87.7 79.4,87.7 79.4,97.6 82.3,97.6 84.6,101.6
				90.9,101.6 93.2,97.6 96.1,97.6 96.1,86.2 98.9,86.2 98.9,100.4 94.8,100.4 92.5,104.4 			"/>
		</g>
	</g>
	<g id="ray">
		<g>
			<rect x="86.1" y="9.3" class="st0" width="2.8" height="17.1"/>
		</g>
		<g>

				<rect x="94.2" y="19.6" transform="matrix(0.396 -0.9182 0.9182 0.396 42.8172 107.0509)" class="st0" width="17.1" height="2.8"/>
		</g>
		<g>

				<rect x="106.3" y="27.9" transform="matrix(0.7115 -0.7026 0.7026 0.7115 12.5376 89.2073)" class="st0" width="17.1" height="2.8"/>
		</g>
		<g>

				<rect x="114.3" y="40.2" transform="matrix(0.9219 -0.3875 0.3875 0.9219 -6.5261 50.8499)" class="st0" width="17.2" height="2.8"/>
		</g>
		<g>
			<rect x="116.8" y="54.5" class="st0" width="17.1" height="2.8"/>
		</g>
		<g>

				<rect x="120.9" y="61.7" transform="matrix(0.3871 -0.922 0.922 0.3871 10.1984 155.8487)" class="st0" width="2.8" height="17.1"/>
		</g>
		<g>

				<rect x="70.8" y="12.4" transform="matrix(0.9182 -0.396 0.396 0.9182 -2.4001 30.3004)" class="st0" width="2.8" height="17.1"/>
		</g>
		<g>

				<rect x="58.6" y="20.8" transform="matrix(0.7026 -0.7116 0.7116 0.7026 -3.0122 51.4481)" class="st0" width="2.8" height="17.2"/>
		</g>
		<g>

				<rect x="50.7" y="33" transform="matrix(0.3874 -0.9219 0.9219 0.3874 -6.4158 73.5596)" class="st0" width="2.8" height="17.1"/>
		</g>
		<g>
			<rect x="40.9" y="54.5" class="st0" width="17.1" height="2.8"/>
		</g>
		<g>
			<rect x="44" y="68.8" transform="matrix(0.922 -0.3872 0.3872 0.922 -23.0952 25.8534)" class="st0" width="17.2" height="2.8"/>
		</g>
	</g>
	<path id="bulb" class="st0" d="M87.8,82.8h-9.8l-3.6-2.7v-4.7c-1.1-0.8-3.3-2.5-5.5-5c-2.9-3.3-6.3-8.8-6.3-16
		c0-6.7,2.6-12.9,7.3-17.5c4.7-4.6,11.1-7.2,17.9-7.2H88c6.8,0,13.1,2.5,17.9,7.2c4.7,4.6,7.3,10.9,7.3,17.5c0,7.1-3.4,12.6-6.3,16
		c-2.2,2.5-4.3,4.2-5.5,5v4.7l-3.6,2.7H87.8z"/>
	<g id="gear">
		<path d="M87.5,74c-1.3,0-2.6-0.1-4-0.4l-1.3-0.3l0.4-3.1l-2.5-1l-1.9,2.5L77.3,71c-2.2-1.4-4.1-3.3-5.5-5.6l-0.7-1.1l2.5-1.9
			l-1-2.5l-3.1,0.4l-0.3-1.3c-0.3-1.3-0.4-2.6-0.4-3.9c0-1.3,0.1-2.6,0.4-4l0.3-1.3l3.1,0.4l1-2.5l-2.5-1.9l0.7-1.1
			c1.4-2.2,3.3-4.1,5.6-5.5l1.1-0.7l1.9,2.5l2.5-1l-0.4-3.1l1.3-0.3c2.6-0.6,5.2-0.6,7.8,0l1.3,0.3l-0.4,3.1l2.4,1l1.9-2.5l1.1,0.7
			c2.2,1.4,4.1,3.3,5.5,5.6l0.7,1.1l-2.4,1.9l1,2.5l3.1-0.4l0.3,1.3c0.3,1.3,0.4,2.6,0.4,3.9c0,1.3-0.1,2.6-0.4,4l-0.3,1.3l-3.1-0.4
			l-1,2.5l2.4,1.9l-0.7,1.1c-1.4,2.2-3.3,4.1-5.6,5.5l-1.1,0.7l-1.9-2.5l-2.4,1l0.4,3.1l-1.3,0.3C90.1,73.9,88.8,74,87.5,74z
			 M85.4,71.1c1.4,0.2,2.7,0.2,4.1,0l-0.3-2.6l6.4-2.7l1.6,2.1c1.1-0.8,2.1-1.8,2.9-2.9L98,63.4l2.7-6.4l2.6,0.3
			c0.1-0.7,0.1-1.4,0.1-2.1s0-1.4-0.1-2l-2.6,0.3l-2.7-6.4l2.1-1.6c-0.8-1.1-1.8-2.1-2.9-2.9l-1.6,2.1l-6.4-2.6l0.3-2.6
			c-1.4-0.2-2.7-0.2-4.1,0l0.3,2.6l-6.4,2.7l-1.6-2.1c-1.1,0.8-2.1,1.8-2.9,2.9l2.1,1.6l-2.7,6.4l-2.6-0.4c-0.1,0.7-0.1,1.4-0.1,2.1
			c0,0.7,0,1.4,0.1,2l2.6-0.4l2.7,6.4l-2.1,1.6c0.8,1.1,1.8,2.1,2.9,2.9l1.6-2.1l6.4,2.7L85.4,71.1z"/>
	</g>
	<path id="innerGear" class="st1" d="M87.5,62.8c-3.5,0-6.6-2.5-7.3-6c-0.4-2,0-4,1.2-5.6c1.1-1.7,2.8-2.8,4.8-3.2
		c4.1-0.8,8,1.9,8.8,5.9c0.4,2,0,4-1.2,5.6c-1.1,1.7-2.8,2.8-4.8,3.2l0,0C88.4,62.8,88,62.8,87.5,62.8z"/>
</g>
</svg>
