<?xml version="1.0" encoding="utf-8"?>
<!-- Generator: Adobe Illustrator 22.1.0, SVG Export Plug-In . SVG Version: 6.00 Build 0)  -->
<svg version="1.1" id="Layer_1" xmlns="http://www.w3.org/2000/svg" xmlns:xlink="http://www.w3.org/1999/xlink" x="0px" y="0px"
	 viewBox="0 0 175 175" style="enable-background:new 0 0 175 175;" xml:space="preserve">
<style type="text/css">
	.pass0{fill:#000000;stroke:#F91791;stroke-width:2;stroke-miterlimit:10;}
	.pass1{fill:#000000;}
	.pass2{fill:#000000;stroke:#F91791;stroke-width:2;stroke-miterlimit:10;}
	.pass3{fill:#000000;stroke:#F91791;stroke-width:2;stroke-linejoin:round;stroke-miterlimit:10;}
	.pass0:hover{fill:#F91791;stroke:#F91791;stroke-width:2;stroke-miterlimit:10;}
</style>
<path id="_x3C_Path_id_x3D__x22_heart_x3E_" class="pass0" d="M87.5,167.7c-0.4,0-0.8-0.2-1.2-0.5c-3.2-2.8-77.7-69-77.7-95.4
	c0-26.8,19.5-48.6,43.5-48.6c14.1,0,27.1,7.5,35.3,20.3c8.2-12.7,21.2-20.3,35.3-20.3c24,0,43.5,21.8,43.5,48.6
	c0,26.4-74.5,92.6-77.7,95.4C88.3,167.6,87.9,167.7,87.5,167.7z"/>
<path id="_x3C_test_x3E_" class="pass1" d="M116.7,99h-6c-0.8,0.6-1.8,1-3,1c-3.6,0-5.2-3.1-4.8-5.8h-2.3c-0.1,0.7-0.3,1.4-0.7,2
	c-0.5,0.8-1.1,1.4-1.9,1.9c-0.7,0.4-1.5,0.7-2.3,0.9c-1.3,0.3-2.7,0.1-3.9-0.5c-1.2-0.6-1.9-1.8-2.3-3c-0.1-0.4-0.2-0.8-0.2-1.3
	h-4.2c-2.9,3.5-7.5,4.7-12.4,4.9c0.3,0.1,0.6,0.2,0.8,0.4c2.7,1.6,5.2,3.6,7.2,6c0.7,0.9,1.2,1.8,1.3,2.8c0.1,0,0.2,0.1,0.3,0.2
	c5.1,0.4,6.7,8.5,1,9.8c-7.1,1.6-14.3,2.8-21.2,4.7v9.9c0.6-0.2,1.2-0.4,1.9-0.4c0.9,0,1.7,0.2,2.3,0.5c1.2-0.1,2.3-0.1,3.5-0.1
	c5-1.6,11.4-1.3,15.7-1.2c7.6,0.1,15.1,0.9,22.7,1.2v-2.8l9-27.7C116.9,101.5,116.6,100.2,116.7,99z"/>
<g>
	<path class="pass2" d="M58.8,80.7V62.2c0-4,3.3-7.3,7.3-7.3h0c4,0,7.3,3.3,7.3,7.3v18.7"/>
	<path class="pass2" d="M73.4,80.9V62.2c0-4,3.3-7.3,7.3-7.3h0c4,0,7.3,3.3,7.3,7.3v18.7"/>
	<path class="pass2" d="M88.1,81.4V62.2c0-4,3.3-7.3,7.3-7.3h0c4,0,7.3,3.3,7.3,7.3v30.2c0,4-3.3,7.3-7.3,7.3h0
		c-3.6,0-6.6-2.7-7.2-6.1"/>
	<path class="pass2" d="M113.6,99.8h-7.1c-2.1,0-3.8-1.7-3.8-3.8V58.7c0-2.1,1.7-3.8,3.8-3.8h7.1c2.1,0,3.8,1.7,3.8,3.8V96
		C117.3,98.1,115.6,99.8,113.6,99.8z"/>
	<path class="pass3" d="M87.5,117.9c0-17.2-20.7-20.1-20.7-20.1h12.7c6.1,0,11.1-5,11.1-11.1v-3c0-1.6-1.3-3-3-3H58.2
		c-3.2,0-6.1,1.9-7.4,4.7l-4,8.7c-0.7,1.6-1.1,3.3-1.1,5.1v1.9c0,2.7,0.9,5.4,2.6,7.5l11.8,14.8c1.1,1.4,1.7,3,1.7,4.8v4.5"/>
	<path class="pass2" d="M117.3,92.4v17.9c0,2.5-0.8,4.8-2.2,6.9l-4.1,5.9c-1.2,1.7-1.8,3.6-1.8,5.7v4"/>
</g>
<rect x="58.8" y="132.8" class="pass3" width="54.5" height="21.2"/>
</svg>
