<?xml version="1.0" encoding="utf-8"?>
<!-- Generator: Adobe Illustrator 22.1.0, SVG Export Plug-In . SVG Version: 6.00 Build 0)  -->
<svg version="1.1" id="Layer_1" xmlns="http://www.w3.org/2000/svg" xmlns:xlink="http://www.w3.org/1999/xlink" x="0px" y="0px"
	 viewBox="0 0 175 175" style="enable-background:new 0 0 175 175;" xml:space="preserve">
<style type="text/css">
	.st0{fill:none;stroke:#F91791;stroke-width:2;stroke-linejoin:round;stroke-miterlimit:10;}
	.st1{fill:none;stroke:#F91791;stroke-width:2;stroke-miterlimit:10;}
</style>
<g>
	<polyline class="st0" points="117.3,108.7 133.3,158 113.3,143.5 	"/>
	<polyline class="st0" points="117.3,70.8 161.7,70.8 117.3,103.1 	"/>
	<polyline class="st0" points="73.9,58.7 87.5,16.9 100.4,56.6 	"/>
	<polyline class="st0" points="46.2,94.7 13.3,70.8 58.3,70.8 	"/>
	<polyline class="st0" points="58.8,145.6 41.7,158 55,117.1 	"/>
</g>
<g>
	<g>
		<path class="st1" d="M58.8,80.7V62.2c0-4,3.3-7.3,7.3-7.3h0c4,0,7.3,3.3,7.3,7.3v18.7"/>
		<path class="st1" d="M73.4,80.9V62.2c0-4,3.3-7.3,7.3-7.3h0c4,0,7.3,3.3,7.3,7.3v18.7"/>
		<path class="st1" d="M88.1,81.4V62.2c0-4,3.3-7.3,7.3-7.3h0c4,0,7.3,3.3,7.3,7.3v30.2c0,4-3.3,7.3-7.3,7.3h0
			c-3.6,0-6.6-2.7-7.2-6.1"/>
		<path class="st1" d="M113.6,99.8h-7.1c-2.1,0-3.8-1.7-3.8-3.8V58.7c0-2.1,1.7-3.8,3.8-3.8h7.1c2.1,0,3.8,1.7,3.8,3.8V96
			C117.3,98.1,115.6,99.8,113.6,99.8z"/>
		<path class="st0" d="M87.5,117.9c0-17.2-20.7-20.1-20.7-20.1h12.7c6.1,0,11.1-5,11.1-11.1v-3c0-1.6-1.3-3-3-3H58.2
			c-3.2,0-6.1,1.9-7.4,4.7l-4,8.7c-0.7,1.6-1.1,3.3-1.1,5.1v1.9c0,2.7,0.9,5.4,2.6,7.5l11.8,14.8c1.1,1.4,1.7,3,1.7,4.8v4.5"/>
		<path class="st1" d="M117.3,92.4v17.9c0,2.5-0.8,4.8-2.2,6.9l-4.1,5.9c-1.2,1.7-1.8,3.6-1.8,5.7v4"/>
	</g>
	<rect x="58.8" y="132.8" class="st0" width="54.5" height="21.2"/>
</g>
</svg>
