<?xml version="1.0" encoding="utf-8"?>
<!-- Generator: Adobe Illustrator 22.1.0, SVG Export Plug-In . SVG Version: 6.00 Build 0)  -->
<svg version="1.1" id="Layer_1" xmlns="http://www.w3.org/2000/svg" xmlns:xlink="http://www.w3.org/1999/xlink" x="0px" y="0px"
	 viewBox="0 0 221 206" style="enable-background:new 0 0 221 206;" xml:space="preserve">
<style type="text/css">
	.st0{fill:transparent;}
	.st1{fill:#F91791;}
	.st1:hover{fill:#FFFFFF;}
</style>
<g>
	<path class="st0" d="M220,206c-73,0-146,0-219,0C1,137.3,1,68.7,1,0c73,0,146,0,219,0C220,68.7,220,137.3,220,206z M126.8,8.2
		c-2.2,0.2-3.7,0.2-5.1,0.4C86.8,14.8,51.9,21.1,17.1,27.1c-3.4,0.6-4.8,1.6-4.8,5.3c0.1,47,0.1,94,0,141c0,3.6,1.2,4.8,4.6,5.4
		c29.7,5.1,59.3,10.4,88.9,15.6c6.8,1.2,13.5,2.3,21,3.6c0-6.9,0.2-12.9-0.1-18.9c-0.2-4.4,1.1-5.7,5.6-5.7
		c23.7,0.2,47.3,0.1,71,0.1c8.3,0,10.3-2.1,10.3-10.3c0-41.5,0-83,0-124.5c0-8.6-1.9-10.4-10.6-10.4c-23.3,0-46.7-0.2-70,0.1
		c-5.3,0.1-6.7-1.6-6.3-6.5C127.1,17.7,126.8,13.4,126.8,8.2z"/>
	<path class="st1" d="M126.8,8.2c0,5.1,0.3,9.5-0.1,13.7c-0.4,4.9,1,6.6,6.3,6.5c23.3-0.3,46.7-0.1,70-0.1c8.8,0,10.6,1.8,10.6,10.4
		c0,41.5,0,83,0,124.5c0,8.2-2,10.3-10.3,10.3c-23.7,0-47.3,0.1-71-0.1c-4.5,0-5.8,1.3-5.6,5.7c0.3,5.9,0.1,11.9,0.1,18.9
		c-7.4-1.3-14.2-2.4-21-3.6c-29.6-5.2-59.3-10.5-88.9-15.6c-3.4-0.6-4.7-1.8-4.6-5.4c0.1-47,0.1-94,0-141c0-3.7,1.4-4.7,4.8-5.3
		c34.9-6,69.7-12.3,104.6-18.4C123.1,8.4,124.6,8.4,126.8,8.2z M189,142.4c1.2,7.6,1.1,7.7-5.7,7.7c-15,0-30-0.1-45,0
		c-13.6,0.1-11.1-1.6-11.6,11.7c-0.2,4.4,1.3,5.6,5.7,5.6c23-0.2,46-0.1,69-0.1c6.5,0,6.5,0,6.5-6.6c0-37.3,0-74.6,0-111.9
		c0-3.5-0.1-7,0-10.5c0-2.7-1.1-3.8-3.9-3.8c-24.3,0.1-48.6,0.1-73,0c-3.4,0-4.3,1.4-4.2,4.4c0.1,7.5,0,15,0.1,22.5
		c0,1,0.5,2,0.8,3.2c11.1-8,14-9.3,21-8.7c0,6.9,0,13.8,0,20.7c0,6.4,0,6.4,6.6,6.4c6.6,0,13.2,0,19.8,0c0.9,7.5-2.8,15.7-9.7,20.7
		c-13.4,9.7-26,6.9-38.5-4.2c0,6.3,0.3,11.3-0.1,16.2c-0.4,4.9,1.5,6.3,6.2,6.2c16.8-0.2,33.6-0.1,50.5-0.1c1.9,0,3.9,0.2,5.9,0.4
		c0,2.6,0,4.7,0,7.3c-2.1,0-3.9,0-5.7,0c-17.3,0-34.6,0-52,0.1c-1.6,0-4,0.6-4.5,1.7c-2.9,6.4,0.2,10.9,7.2,10.9
		C152.5,142.4,170.6,142.4,189,142.4z M62.3,113c2.5,0,4.3,0.1,6.1,0c11.3-0.4,19.3-7.3,20.6-18.5c0.5-4.2,0.1-8.7-0.8-12.9
		c-1.4-6.9-6-11.3-13-11.9c-6.4-0.5-12.9,0.2-19.4,0.1c-4.5-0.1-6,1.7-6,6.3c0.2,17,0.1,34,0.1,51c0,7.8,0.3,7.9,8.1,8.1
		c3.3,0.1,4.4-1,4.3-4.3C62.2,125.3,62.3,119.7,62.3,113z"/>
	<path class="st0" d="M189,142.4c-18.4,0-36.5,0-54.7,0c-7,0-10.1-4.5-7.2-10.9c0.5-1.1,3-1.7,4.5-1.7c17.3-0.1,34.6-0.1,52-0.1
		c1.8,0,3.6,0,5.7,0c0-2.6,0-4.7,0-7.3c-2-0.1-4-0.4-5.9-0.4c-16.8,0-33.7-0.2-50.5,0.1c-4.7,0.1-6.6-1.4-6.2-6.2
		c0.4-4.9,0.1-9.9,0.1-16.2c12.5,11.2,25.2,13.9,38.5,4.2c6.9-5,10.6-13.2,9.7-20.7c-6.5,0-13.1,0-19.8,0c-6.6,0-6.6,0-6.6-6.4
		c0-6.9,0-13.9,0-20.7c-7-0.6-9.9,0.7-21,8.7c-0.3-1.2-0.8-2.2-0.8-3.2c-0.1-7.5,0.1-15-0.1-22.5c-0.1-3.1,0.8-4.5,4.2-4.4
		c24.3,0.1,48.6,0.1,73,0c2.8,0,3.9,1,3.9,3.8c-0.1,3.5,0,7,0,10.5c0,37.3,0,74.6,0,111.9c0,6.6,0,6.6-6.5,6.6c-23,0-46-0.1-69,0.1
		c-4.4,0-5.8-1.2-5.7-5.6c0.5-13.3-2.1-11.7,11.6-11.7c15-0.1,30,0,45,0C190.2,150.1,190.3,149.9,189,142.4z M153.4,51.6
		c0,8.1-0.1,16,0.1,23.9c0,0.9,2.1,2.5,3.2,2.6c6.8,0.3,13.6,0.1,20.4,0.2c2.8,0,3.9-1.1,3.3-4c-1.6-7.6-5.4-13.9-11.9-18.3
		C164.2,52.9,159.5,50.4,153.4,51.6z"/>
	<path class="st0" d="M62.3,113c0,6.6-0.1,12.3,0.1,17.9c0.1,3.3-1,4.4-4.3,4.3c-7.8-0.2-8.1-0.4-8.1-8.1c0-17,0.1-34-0.1-51
		c-0.1-4.6,1.5-6.3,6-6.3c6.5,0.1,13-0.6,19.4-0.1c7,0.6,11.6,5,13,11.9c0.9,4.2,1.2,8.6,0.8,12.9c-1.3,11.2-9.3,18.1-20.6,18.5
		C66.6,113.1,64.8,113,62.3,113z M62.4,100.4c4.7,0.8,8.8,1.2,11.4-2.8c2.5-3.9,3.1-8.6,0.3-12.2c-1.7-2.2-5.4-3-8.4-3.8
		c-0.7-0.2-3,1.9-3.1,3C62.2,89.7,62.4,94.8,62.4,100.4z"/>
	<path class="st1" d="M153.4,51.6c6.2-1.2,10.8,1.3,15.2,4.3c6.4,4.4,10.2,10.7,11.9,18.3c0.6,2.9-0.5,4-3.3,4
		c-6.8,0-13.6,0.1-20.4-0.2c-1.1,0-3.2-1.6-3.2-2.6C153.3,67.6,153.4,59.6,153.4,51.6z"/>
	<path class="st1" d="M62.4,100.4c0-5.5-0.2-10.7,0.1-15.8c0.1-1.1,2.3-3.2,3.1-3c3,0.8,6.7,1.6,8.4,3.8c2.8,3.6,2.2,8.3-0.3,12.2
		C71.1,101.6,67,101.2,62.4,100.4z"/>
</g>
</svg>
