<?xml version="1.0" encoding="utf-8"?>
<!-- Generator: Adobe Illustrator 22.1.0, SVG Export Plug-In . SVG Version: 6.00 Build 0)  -->
<svg version="1.1" id="icons" xmlns="http://www.w3.org/2000/svg" xmlns:xlink="http://www.w3.org/1999/xlink" x="0px" y="0px"
	 viewBox="0 0 175 175" style="enable-background:new 0 0 175 175;" xml:space="preserve">
<style type="text/css">
	.st0{fill:#F91791;}
</style>
<g>
	<path class="st0" d="M74,103.6c0,1-0.8,1.8-1.8,1.8s-1.8-0.8-1.8-1.8s0.8-1.8,1.8-1.8l0,0C73.2,101.8,74,102.6,74,103.6z"/>
</g>
<g>
	<path class="st0" d="M129.9,103.6v55.9c0,1-0.8,1.8-1.8,1.8H72.2c-1,0-1.8-0.8-1.8-1.8V136c0-0.5,0.2-1,0.6-1.3s0.9-0.5,1.4-0.5
		c2,0.2,3.8,1,5.2,2.3c1.6,1.5,3.8,2.2,6,1.8c3-0.5,5.3-3,5.7-6c0.2-2-0.4-3.9-1.7-5.4c-1.3-1.5-3.2-2.3-5.1-2.3
		c-1.8,0-3.5,0.7-4.8,2c-1.4,1.3-3.2,2.1-5.2,2.3c-0.5,0-1-0.1-1.4-0.5c-0.4-0.3-0.6-0.8-0.6-1.3v-23.5c0-1,0.8-1.8,1.8-1.8h21.1
		c-0.2-0.4-0.4-0.7-0.7-1c-1.9-2-3-4.6-3-7.3c0-3,1.3-5.8,3.5-7.8s5.2-3,8.2-2.6c4.6,0.5,8.5,4.1,9.2,8.7c0.6,3.4-0.5,6.7-2.8,9.1
		c-0.3,0.3-0.5,0.6-0.7,1h21.1C129.1,101.8,129.9,102.6,129.9,103.6z M126.2,157.7v-52.2h-21.7c-0.5,0-1-0.2-1.3-0.6
		s-0.5-0.9-0.5-1.4c0.2-2,1-3.8,2.3-5.2c1.5-1.6,2.2-3.8,1.8-6c-0.5-3-3-5.3-6-5.7l0,0c-2-0.2-3.9,0.4-5.4,1.7
		c-2.8,2.5-3,7.2-0.3,9.9c1.3,1.4,2.1,3.2,2.3,5.2c0,0.5-0.1,1-0.5,1.4c-0.3,0.4-0.8,0.6-1.3,0.6H74v19.3c0.4-0.2,0.7-0.4,1-0.7
		c2-1.9,4.6-3,7.3-3c3,0,5.8,1.3,7.8,3.5s3,5.2,2.6,8.2c-0.5,4.6-4.1,8.5-8.7,9.2c-3.4,0.6-6.7-0.5-9.1-2.8c-0.3-0.3-0.6-0.5-1-0.7
		v19.3H126.2z"/>
</g>
<g>
	<path class="st0" d="M74,103.6c0,1-0.8,1.8-1.8,1.8s-1.8-0.8-1.8-1.8s0.8-1.8,1.8-1.8l0,0C73.2,101.8,74,102.6,74,103.6z"/>
</g>
<g>
	<path class="st0" d="M74,47.8v23.5c0,0.5-0.2,1-0.6,1.3s-0.9,0.5-1.4,0.5c-2-0.2-3.8-1-5.2-2.3c-1.6-1.5-3.8-2.2-6-1.8
		c-3,0.5-5.3,3-5.7,6c-0.2,2,0.4,3.9,1.7,5.4s3.2,2.3,5.1,2.3c1.8,0,3.5-0.7,4.8-2c1.4-1.3,3.2-2.1,5.2-2.3c0.5,0,1,0.1,1.4,0.5
		c0.4,0.3,0.6,0.8,0.6,1.3v23.5c0,1-0.8,1.8-1.8,1.8h-21c0.2,0.4,0.4,0.7,0.7,1c1.9,2,3,4.6,3,7.3c0,3-1.3,5.8-3.5,7.8
		s-5.2,3-8.2,2.6c-4.6-0.5-8.5-4.1-9.2-8.7c-0.6-3.4,0.5-6.7,2.8-9.1c0.3-0.3,0.5-0.6,0.7-1H16.3c-1,0-1.8-0.8-1.8-1.8V47.8
		c0-1,0.8-1.8,1.8-1.8h55.9C73.2,46,74,46.8,74,47.8z M70.4,68.9V49.6H18.1v52.2h21.7c0.5,0,1,0.2,1.3,0.6s0.5,0.9,0.5,1.4
		c-0.2,2-1,3.8-2.3,5.2c-1.5,1.6-2.2,3.8-1.8,6c0.5,3,3,5.3,6,5.7c2,0.2,3.9-0.4,5.4-1.7c2.8-2.5,3-7.2,0.3-9.9
		c-1.3-1.4-2.1-3.2-2.3-5.2c0-0.5,0.1-1,0.5-1.4c0.3-0.4,0.8-0.6,1.3-0.6h21.6V82.6c-0.4,0.2-0.7,0.4-1,0.7c-2,1.9-4.6,3-7.3,3
		c-3,0-5.8-1.3-7.8-3.5s-3-5.2-2.6-8.2c0.5-4.6,4.1-8.5,8.7-9.2c3.4-0.6,6.7,0.5,9.1,2.8C69.7,68.4,70,68.7,70.4,68.9z"/>
</g>
<g>
	<path class="st0" d="M74,103.6c0,1-0.8,1.8-1.8,1.8s-1.8-0.8-1.8-1.8s0.8-1.8,1.8-1.8l0,0C73.2,101.8,74,102.6,74,103.6z"/>
</g>
<g>
	<path class="st0" d="M92.9,131.6c0,0.4,0,0.8-0.1,1.1c-0.5,4.6-4.1,8.5-8.7,9.2c-3.4,0.6-6.7-0.5-9.1-2.8c-0.3-0.3-0.6-0.5-1-0.7
		v21.1c0,1-0.8,1.8-1.8,1.8H16.3c-1,0-1.8-0.8-1.8-1.8v-55.9c0-1,0.8-1.8,1.8-1.8h23.5c0.5,0,1,0.2,1.3,0.6s0.5,0.9,0.5,1.4
		c-0.2,2-1,3.8-2.3,5.2c-1.5,1.6-2.2,3.8-1.8,6c0.5,3,3,5.3,6,5.7l0,0c2,0.2,3.9-0.4,5.4-1.7c2.8-2.5,3-7.2,0.3-9.9
		c-1.3-1.4-2.1-3.2-2.3-5.2c0-0.5,0.1-1,0.5-1.4c0.3-0.4,0.8-0.6,1.3-0.6h23.5c1,0,1.8,0.8,1.8,1.8v21.1c0.4-0.2,0.7-0.4,1-0.7
		c2-1.9,4.6-3,7.3-3c3,0,5.8,1.3,7.8,3.5C91.9,126.5,92.9,129,92.9,131.6z M70.4,157.7V136c0-0.5,0.2-1,0.6-1.3s0.9-0.5,1.4-0.5
		c2,0.2,3.8,1,5.2,2.3c1.6,1.5,3.8,2.2,6,1.8c3-0.5,5.3-3,5.7-6c0.2-2-0.4-3.9-1.7-5.4c-1.3-1.5-3.2-2.3-5.1-2.3
		c-1.8,0-3.5,0.7-4.8,2c-1.4,1.3-3.2,2.1-5.2,2.3c-0.5,0-1-0.1-1.4-0.5c-0.4-0.3-0.6-0.8-0.6-1.3v-21.7H51.1c0.2,0.4,0.4,0.7,0.7,1
		c1.9,2,3,4.6,3,7.3c0,3-1.3,5.8-3.5,7.8s-5.2,3-8.2,2.6l0,0c-4.6-0.5-8.5-4.1-9.2-8.7c-0.6-3.4,0.5-6.7,2.8-9.1
		c0.3-0.3,0.5-0.6,0.7-1H18.1v52.2h52.3V157.7z"/>
</g>
<g id="main">
	<path class="st0" style="fill: white;" d="M129.7,47.3c0.1,0.2,0.2,0.5,0.2,0.7l0,55.9c0,0.4-0.2,0.9-0.6,1.3c-0.3,0.3-0.8,0.5-1.3,0.5l-23.4,0
		c-0.5,0-1-0.3-1.3-0.6c-0.4-0.4-0.6-0.9-0.5-1.4c0.2-2,1-3.8,2.4-5.2c1.5-1.6,2.2-3.8,1.8-6c-0.5-2.9-3.1-5.3-6-5.7
		c-2-0.2-3.9,0.4-5.4,1.7c-1.4,1.3-2.3,3.2-2.3,5.1c0,1.8,0.7,3.5,2,4.8c1.3,1.3,2.1,3.2,2.3,5.2c0.1,0.5-0.1,1-0.4,1.4
		c-0.4,0.4-0.9,0.6-1.4,0.6l-23.5,0c-0.4,0-0.9-0.2-1.3-0.6c-0.3-0.3-0.5-0.8-0.5-1.3l0-21.1c-0.4,0.1-0.7,0.5-1,0.7
		c-1.9,1.9-4.6,3-7.3,3c-3,0-5.9-1.2-7.8-3.5c-2-2.2-3-5.2-2.7-8.2c0.5-4.6,4.1-8.5,8.7-9.2c3.3-0.6,6.6,0.5,9,2.8
		c0.3,0.3,0.6,0.5,1,0.7l0-21.1c0-0.4,0.2-0.9,0.6-1.3c0.3-0.3,0.8-0.5,1.3-0.5l55.9,0c0.4,0,0.9,0.2,1.3,0.6
		C129.4,46.8,129.6,47,129.7,47.3z"/>
	<path class="st0" style="fill: white;" d="M126.2,101.9l0-52.2l-52.2,0l-0.1,21.7c0,0.5-0.3,1-0.6,1.3c-0.4,0.4-0.9,0.6-1.4,0.5c-2-0.2-3.8-1-5.2-2.4
		c-1.6-1.5-3.8-2.2-6-1.8c-2.9,0.5-5.3,3.1-5.7,6c-0.2,2,0.4,3.9,1.7,5.4c1.3,1.4,3.2,2.3,5.1,2.3c1.8,0,3.5-0.7,4.8-2
		s3.2-2.1,5.2-2.3c0.5-0.1,1,0.1,1.4,0.4c0.4,0.4,0.6,0.9,0.6,1.4l0,21.7l19.2,0c-0.1-0.4-0.5-0.7-0.7-1c-2-2-3-4.6-3-7.3
		c0-3,1.2-5.9,3.5-7.8c2.2-2,5.2-2.9,8.2-2.7c4.6,0.5,8.5,4.2,9.2,8.7c0.6,3.3-0.5,6.6-2.8,9c-0.3,0.3-0.5,0.6-0.7,1L126.2,101.9z"
		/>
</g>
</svg>
