<?xml version="1.0" encoding="utf-8"?>
<!-- Generator: Adobe Illustrator 22.1.0, SVG Export Plug-In . SVG Version: 6.00 Build 0)  -->
<svg version="1.1" id="icons" xmlns="http://www.w3.org/2000/svg" xmlns:xlink="http://www.w3.org/1999/xlink" x="0px" y="0px"
	 viewBox="0 0 238.3 238.4" style="enable-background:new 0 0 238.3 238.4;" xml:space="preserve">
<style type="text/css">
	.ps1{fill:#F91791;}
	.ps2{fill:#FFFFFF;}
</style>
<path class="ps1" d="M120,231.1c5.3,0,10.2-2,13.9-5.8l42.6-42.6l-14.3-14.3c-5.8-6-5.7-15.6,0.2-21.4c0.6-0.6,1.5-0.8,2.3-0.6
	c0.9,0.2,1.8,0.3,2.7,0.3c2.7,0,5.2-0.9,7.2-2.6c0.3-0.2,0.6-0.5,0.8-0.8c2.2-2.2,3.3-5,3.3-8.1c0-3-1.2-5.9-3.3-8.1
	c-2.2-2.2-5-3.3-8.1-3.3c-3,0-5.9,1.2-8.1,3.3c-2.8,2.8-3.9,6.8-3,10.7c0.2,0.8,0,1.7-0.6,2.3c-1.4,1.4-3.1,2.6-4.9,3.3
	c-1.7,0.7-3.6,1.1-5.5,1.1c-0.1,0-0.2,0-0.3,0h0c-0.2,0-0.3,0-0.5,0c-3.8-0.1-7.3-1.6-10.1-4.3L120,126.2l-14.1,14.1
	c-2,2-3.1,4.6-3.1,7.4c0,2.4,0.8,4.6,2.2,6.5c0.8-0.1,1.6-0.2,2.4-0.2c4.3,0,8.4,1.7,11.4,4.7c3.1,3.1,4.7,7.1,4.7,11.5
	c0,4.3-1.7,8.4-4.7,11.5c-3.1,3.1-7.1,4.7-11.5,4.7c0,0,0,0,0,0c-0.1,0-0.2,0-0.3,0c-3.6-0.1-7-1.3-9.8-3.5
	c-0.5-0.4-0.9-0.8-1.4-1.2c-3.7-3.7-5.3-8.8-4.6-13.8c-1.8-1.5-4.1-2.2-6.5-2.2c-2.4,0-4.8,0.8-6.6,2.4c-0.3,0.2-0.5,0.5-0.8,0.7
	l-14.1,14.1l42.6,42.6C109.8,229,114.7,231.1,120,231.1z"/>
<path class="ps1" d="M179.9,66.3l-14.1,14.1c-2.9,2.9-6.7,4.5-10.8,4.5c-4.1,0-7.9-1.6-10.8-4.5c-0.6-0.6-0.8-1.5-0.6-2.3
	c0.9-3.9-0.2-7.9-3-10.8c-2.2-2.1-5-3.3-8.1-3.3c-3,0-5.9,1.2-8.1,3.3c-4.4,4.4-4.4,11.7,0,16.1c2.1,2.1,5,3.3,8,3.3
	c0.9,0,1.8-0.1,2.7-0.3c0.8-0.2,1.7,0,2.3,0.6c2.9,2.9,4.5,6.7,4.5,10.8c0,4.1-1.6,7.9-4.5,10.8l-14.1,14.1l14.3,14.3
	c1.9,1.9,4.5,2.9,7.2,2.9c2.4,0,4.6-0.8,6.5-2.2c-0.8-5.1,0.9-10.2,4.6-13.8c3.1-3.1,7.1-4.7,11.5-4.7c4.3,0,8.4,1.7,11.5,4.7
	c3.1,3.1,4.7,7.1,4.7,11.5c0,4.3-1.7,8.4-4.7,11.5c-3,3.1-7.1,4.7-11.4,4.7c-0.8,0-1.6-0.1-2.4-0.2c-3.2,4-2.9,9.9,0.7,13.7
	l14.2,14.2l42.6-42.6c7.7-7.7,7.7-20.1,0-27.8L179.9,66.3z"/>
<path class="ps1" d="M74.2,165.2c2.9-2.9,6.7-4.5,10.8-4.5c4.1,0,7.9,1.6,10.8,4.5c0.6,0.6,0.8,1.5,0.6,2.3c-0.9,3.9,0.2,7.9,3,10.7
	c2.2,2.1,5,3.3,8.1,3.3h0c2.7,0,5.2-0.9,7.2-2.6c0.3-0.2,0.6-0.5,0.8-0.8c2.2-2.2,3.3-5,3.3-8.1c0-2.7-0.9-5.2-2.6-7.2
	c-0.2-0.3-0.5-0.6-0.8-0.8c-2.1-2.1-5-3.3-8-3.3c-0.9,0-1.8,0.1-2.7,0.3c-0.8,0.2-1.7,0-2.3-0.6c-2.9-2.9-4.5-6.7-4.5-10.8
	c0-4.1,1.6-7.9,4.5-10.8l14.1-14.1l-14.3-14.3c-1.9-1.9-4.5-2.9-7.2-2.9c-2.4,0-4.6,0.8-6.5,2.2c0.8,5.1-0.9,10.2-4.6,13.8
	c-3.1,3.1-7.1,4.7-11.5,4.7c-4.3,0-8.4-1.7-11.5-4.7c-3.1-3.1-4.7-7.1-4.7-11.5c0-4.3,1.7-8.4,4.7-11.5c3-3.1,7.1-4.7,11.4-4.7
	c0.8,0,1.6,0.1,2.4,0.2c3.2-4,2.9-9.9-0.7-13.7L60.1,66.3l-42.6,42.6c-7.7,7.7-7.7,20.1,0,27.8l42.6,42.6L74.2,165.2z"/>
<path class="ps2" d="M181.6,61.1C181.6,61.1,181.6,61.1,181.6,61.1l-44.3-44.3c-9.5-9.5-25.1-9.5-34.6,0L82.6,36.9
	c-0.9,0.9,0.1,1.7,1,2.6c0.9,0.9,7-3.9,8-4.8l14.5-14.5c7.7-7.7,20.1-7.7,27.8,0l42.6,42.6l-14.1,14.1c-2,2-4.6,3.1-7.4,3.1
	c-2.4,0-4.6-0.8-6.5-2.2c0.8-5.1-0.9-10.2-4.6-13.8c-3.1-3.1-7.1-4.7-11.5-4.7c-4.3,0-8.4,1.7-11.5,4.7c-6.3,6.3-6.3,16.6,0,22.9
	c3.1,3.1,7.1,4.7,11.4,4.7c0.8,0,1.6-0.1,2.4-0.2c1.5,1.8,2.2,4.1,2.2,6.5c0,2.8-1.1,5.4-3.1,7.4L120,119.3L105.7,105
	c-2.9-2.8-6.6-4.3-10.6-4.3c-4.1,0-7.9,1.6-10.8,4.5c-0.6,0.6-0.8,1.5-0.6,2.3c0.9,3.9-0.2,7.9-3,10.7c-2.2,2.2-5,3.3-8.1,3.3
	c-3,0-5.9-1.2-8.1-3.3c-2.2-2.2-3.3-5-3.3-8.1c0-3,1.2-5.9,3.3-8.1c2.1-2.1,5-3.3,8-3.3c0.9,0,1.8,0.1,2.7,0.3
	c0.8,0.2,1.7,0,2.3-0.6c5.8-5.8,5.9-15.4,0.2-21.4L63.5,62.8l28.1-28.1c0.9-0.9-4.7,3.2-5.6,2.2c-0.9-0.9-2.5-0.9-3.4,0L58.4,61.1
	c0,0,0,0,0,0l-44.3,44.3c-9.5,9.5-9.5,25.1,0,34.6l44.3,44.3l44.3,44.3c4.6,4.6,10.8,7.2,17.3,7.2c6.5,0,12.7-2.5,17.3-7.2
	l44.3-44.3l44.3-44.3c9.5-9.5,9.5-25.1,0-34.6L181.6,61.1z M17.5,136.6c-7.7-7.7-7.7-20.1,0-27.8l42.6-42.6l14.2,14.2
	c3.6,3.8,3.9,9.7,0.7,13.7c-0.8-0.1-1.6-0.2-2.4-0.2c-4.3,0-8.4,1.7-11.4,4.7c-3.1,3.1-4.7,7.1-4.7,11.5c0,4.3,1.7,8.4,4.7,11.5
	c3.1,3.1,7.1,4.7,11.5,4.7c4.3,0,8.4-1.7,11.5-4.7c3.7-3.7,5.3-8.8,4.6-13.8c1.8-1.4,4.1-2.2,6.5-2.2c2.7,0,5.3,1,7.2,2.9l14.3,14.3
	l-14.1,14.1c-2.9,2.9-4.5,6.7-4.5,10.8c0,4.1,1.6,7.9,4.5,10.8c0.6,0.6,1.5,0.8,2.3,0.6c0.9-0.2,1.8-0.3,2.7-0.3c3,0,5.9,1.2,8,3.3
	c0.3,0.3,0.5,0.5,0.8,0.8c1.7,2,2.6,4.6,2.6,7.2c0,3-1.2,5.9-3.3,8.1c-0.3,0.3-0.5,0.5-0.8,0.8c-2,1.7-4.6,2.6-7.2,2.6h0
	c-3,0-5.9-1.2-8.1-3.3c-2.8-2.8-3.9-6.8-3-10.7c0.2-0.8,0-1.7-0.6-2.3c-2.9-2.9-6.7-4.5-10.8-4.5c-4.1,0-7.9,1.6-10.8,4.5
	l-14.1,14.1L17.5,136.6z M133.9,225.2c-3.7,3.7-8.7,5.8-13.9,5.8c-5.3,0-10.2-2-13.9-5.8l-42.6-42.6l14.1-14.1
	c0.2-0.2,0.5-0.5,0.8-0.7c1.9-1.5,4.2-2.4,6.6-2.4c2.4,0,4.6,0.8,6.5,2.2c-0.8,5.1,0.9,10.2,4.6,13.8c0.4,0.4,0.9,0.8,1.4,1.2
	c2.8,2.2,6.2,3.4,9.8,3.5c0.1,0,0.2,0,0.3,0c0,0,0,0,0,0c4.3,0,8.4-1.7,11.5-4.7c3.1-3.1,4.7-7.1,4.7-11.5c0-4.3-1.7-8.4-4.7-11.5
	c-3.1-3.1-7.1-4.7-11.4-4.7c-0.8,0-1.6,0.1-2.4,0.2c-1.5-1.8-2.2-4.1-2.2-6.5c0-2.8,1.1-5.4,3.1-7.4l14.1-14.1l14.3,14.3
	c2.7,2.6,6.3,4.1,10.1,4.3c0.2,0,0.3,0,0.5,0h0c0.1,0,0.2,0,0.3,0c1.9,0,3.8-0.4,5.5-1.1c1.8-0.8,3.5-1.9,4.9-3.3
	c0.6-0.6,0.8-1.5,0.6-2.3c-0.9-3.9,0.2-7.9,3-10.7c2.2-2.2,5-3.3,8.1-3.3c3,0,5.9,1.2,8.1,3.3c2.2,2.2,3.3,5,3.3,8.1
	c0,3-1.2,5.9-3.3,8.1c-0.3,0.3-0.5,0.5-0.8,0.8c-2,1.7-4.5,2.6-7.2,2.6c-0.9,0-1.8-0.1-2.7-0.3c-0.8-0.2-1.7,0-2.3,0.6
	c-5.8,5.8-5.9,15.4-0.2,21.4l14.3,14.3L133.9,225.2z M222.5,136.6l-42.6,42.6L165.6,165c-3.6-3.8-3.9-9.7-0.7-13.7
	c0.8,0.1,1.6,0.2,2.4,0.2c4.3,0,8.4-1.7,11.4-4.7c3.1-3.1,4.7-7.1,4.7-11.5c0-4.3-1.7-8.4-4.7-11.5c-3.1-3.1-7.1-4.7-11.5-4.7
	c-4.3,0-8.4,1.7-11.5,4.7c-3.7,3.7-5.3,8.8-4.6,13.8c-1.8,1.4-4.1,2.2-6.5,2.2c-2.7,0-5.3-1-7.2-2.9l-14.3-14.3l14.1-14.1
	c2.9-2.9,4.5-6.7,4.5-10.8c0-4.1-1.6-7.9-4.5-10.8c-0.6-0.6-1.5-0.8-2.3-0.6c-0.9,0.2-1.8,0.3-2.7,0.3c-3,0-5.9-1.2-8-3.3
	c-4.4-4.4-4.4-11.7,0-16.1c2.2-2.2,5-3.3,8.1-3.3c3,0,5.9,1.2,8.1,3.3c2.8,2.8,3.9,6.8,3,10.8c-0.2,0.8,0,1.7,0.6,2.3
	c2.9,2.9,6.7,4.5,10.8,4.5c4.1,0,7.9-1.6,10.8-4.5l14.1-14.1l42.6,42.6C230.1,116.5,230.1,129,222.5,136.6z"/>
</svg>
