<?xml version="1.0" encoding="utf-8"?>
<!-- Generator: Adobe Illustrator 22.1.0, SVG Export Plug-In . SVG Version: 6.00 Build 0)  -->
<svg version="1.1" id="icons" xmlns="http://www.w3.org/2000/svg" xmlns:xlink="http://www.w3.org/1999/xlink" x="0px" y="0px"
	 viewBox="0 0 175 175" style="enable-background:new 0 0 175 175;" xml:space="preserve">
<style type="text/css">
	.ps0{display:none;}
	.ps1{display:inline;fill:#F91791;}
	.ps2{display:inline;}
	.ps3{fill:#F91791;}
</style>
<g class="ps0">
	<path class="ps1" d="M-20,108c3.4,0,6.5-1.3,8.9-3.7l27.3-27.3L7,68c-3.7-3.8-3.6-10,0.1-13.7c0.4-0.4,0.9-0.5,1.5-0.4
		c0.6,0.1,1.2,0.2,1.7,0.2c1.7,0,3.3-0.6,4.6-1.6c0.2-0.2,0.4-0.3,0.5-0.5c1.4-1.4,2.1-3.2,2.1-5.2c0-1.9-0.8-3.8-2.1-5.2
		c-1.4-1.4-3.2-2.1-5.2-2.1s-3.8,0.8-5.2,2.1c-1.8,1.8-2.5,4.4-1.9,6.9c0.1,0.5,0,1.1-0.4,1.5c-0.9,0.9-2,1.6-3.2,2.1
		c-1.1,0.5-2.3,0.7-3.5,0.7c-0.1,0-0.1,0-0.2,0h0c-0.1,0-0.2,0-0.3,0c-2.4-0.1-4.7-1-6.4-2.7L-20,41l-9,9c-1.3,1.3-2,2.9-2,4.7
		c0,1.5,0.5,3,1.4,4.1c0.5-0.1,1-0.1,1.5-0.1c2.8,0,5.4,1.1,7.3,3c2,2,3,4.6,3,7.3c0,2.8-1.1,5.4-3,7.3c-2,2-4.6,3-7.3,3
		c0,0,0,0,0,0c-0.1,0-0.1,0-0.2,0c-2.3,0-4.5-0.8-6.2-2.2c-0.3-0.2-0.6-0.5-0.9-0.8c-2.4-2.4-3.4-5.6-2.9-8.9
		c-1.2-0.9-2.6-1.4-4.1-1.4c-1.6,0-3,0.5-4.2,1.5c-0.2,0.1-0.3,0.3-0.5,0.4l-9,9l27.3,27.3C-26.5,106.7-23.3,108-20,108z"/>
	<path class="ps1" d="M18.4,2.6l-9,9c-1.8,1.8-4.3,2.9-6.9,2.9c-2.6,0-5.1-1-6.9-2.9c-0.4-0.4-0.5-0.9-0.4-1.5
		C-4.3,7.7-5,5.1-6.8,3.3C-8.2,1.9-10,1.2-12,1.2c-1.9,0-3.8,0.8-5.2,2.1c-2.8,2.8-2.8,7.5,0,10.3c1.4,1.4,3.2,2.1,5.1,2.1
		c0.6,0,1.2-0.1,1.7-0.2c0.5-0.1,1.1,0,1.5,0.4c1.8,1.8,2.9,4.3,2.9,6.9c0,2.6-1,5.1-2.9,6.9l-9,9l9.1,9.1c1.2,1.2,2.9,1.9,4.6,1.9
		c1.5,0,3-0.5,4.1-1.4c-0.5-3.3,0.6-6.5,2.9-8.9c2-2,4.6-3,7.3-3c2.8,0,5.4,1.1,7.3,3c2,2,3,4.6,3,7.3c0,2.8-1.1,5.4-3,7.3
		c-2,2-4.6,3-7.3,3c-0.5,0-1,0-1.5-0.1c-2,2.6-1.9,6.4,0.4,8.8l9.1,9.1l27.3-27.3c4.9-4.9,4.9-12.9,0-17.8L18.4,2.6z"/>
	<path class="ps1" d="M-49.3,65.9c1.8-1.8,4.3-2.9,6.9-2.9c2.6,0,5.1,1,6.9,2.9c0.4,0.4,0.5,0.9,0.4,1.5c-0.6,2.5,0.1,5.1,1.9,6.9
		c1.4,1.4,3.2,2.1,5.2,2.1h0c1.7,0,3.3-0.6,4.6-1.6c0.2-0.2,0.4-0.3,0.5-0.5c1.4-1.4,2.1-3.2,2.1-5.2c0-1.7-0.6-3.3-1.6-4.6
		c-0.2-0.2-0.3-0.4-0.5-0.5c-1.4-1.4-3.2-2.1-5.1-2.1c-0.6,0-1.2,0.1-1.7,0.2c-0.5,0.1-1.1,0-1.5-0.4c-1.8-1.8-2.9-4.3-2.9-6.9
		c0-2.6,1-5.1,2.9-6.9l9-9l-9.1-9.1c-1.2-1.2-2.9-1.9-4.6-1.9c-1.5,0-3,0.5-4.1,1.4c0.5,3.3-0.6,6.5-2.9,8.9c-2,2-4.6,3-7.3,3
		c-2.8,0-5.4-1.1-7.3-3c-2-2-3-4.6-3-7.3c0-2.8,1.1-5.4,3-7.3c2-2,4.5-3,7.3-3c0.5,0,1,0,1.5,0.1c2-2.6,1.9-6.4-0.4-8.8l-9.1-9.1
		l-27.3,27.3c-4.9,4.9-4.9,12.9,0,17.8l27.3,27.3L-49.3,65.9z"/>
	<path class="ps2" d="M19.4-0.7C19.4-0.7,19.4-0.7,19.4-0.7L-8.9-29.1c-6.1-6.1-16-6.1-22.2,0l-12.9,12.9c-0.6,0.6,0.1,1.1,0.7,1.7
		c0.6,0.6,4.5-2.5,5.1-3.1l9.3-9.3c4.9-4.9,12.9-4.9,17.8,0L16.2,0.4l-9,9c-1.3,1.3-2.9,2-4.7,2c-1.5,0-3-0.5-4.1-1.4
		c0.5-3.3-0.6-6.5-2.9-8.9c-2-2-4.6-3-7.3-3c-2.8,0-5.4,1.1-7.3,3c-4,4-4,10.6,0,14.7c2,2,4.6,3,7.3,3c0.5,0,1,0,1.5-0.1
		c0.9,1.2,1.4,2.6,1.4,4.1c0,1.8-0.7,3.5-2,4.7l-9,9l-9.2-9.2c-1.8-1.8-4.2-2.7-6.8-2.7c-2.6,0-5.1,1-6.9,2.9
		c-0.4,0.4-0.5,0.9-0.4,1.5c0.6,2.5-0.1,5.1-1.9,6.9c-1.4,1.4-3.2,2.1-5.2,2.1c-1.9,0-3.8-0.8-5.2-2.1c-1.4-1.4-2.1-3.2-2.1-5.2
		c0-1.9,0.8-3.8,2.1-5.2c1.4-1.4,3.2-2.1,5.1-2.1c0.6,0,1.2,0.1,1.7,0.2c0.5,0.1,1.1,0,1.5-0.4c3.7-3.7,3.8-9.9,0.1-13.7l-9.1-9.1
		l18-18c0.6-0.6-3,2-3.6,1.4c-0.6-0.6-1.6-0.6-2.2,0L-59.4-0.7c0,0,0,0,0,0l-28.3,28.3c-6.1,6.1-6.1,16,0,22.2l28.3,28.3l28.3,28.3
		c3,3,6.9,4.6,11.1,4.6c4.2,0,8.1-1.6,11.1-4.6l28.3-28.3l28.3-28.3c6.1-6.1,6.1-16,0-22.2L19.4-0.7z M-85.6,47.6
		c-4.9-4.9-4.9-12.9,0-17.8l27.3-27.3l9.1,9.1c2.3,2.4,2.5,6.2,0.4,8.8c-0.5-0.1-1-0.1-1.5-0.1c-2.8,0-5.4,1.1-7.3,3
		c-2,2-3,4.6-3,7.3c0,2.8,1.1,5.4,3,7.3c2,2,4.6,3,7.3,3c2.8,0,5.4-1.1,7.3-3c2.4-2.4,3.4-5.6,2.9-8.9c1.2-0.9,2.6-1.4,4.1-1.4
		c1.7,0,3.4,0.7,4.6,1.9l9.1,9.1l-9,9C-33,49.6-34,52-34,54.6c0,2.6,1,5.1,2.9,6.9c0.4,0.4,0.9,0.5,1.5,0.4c0.6-0.1,1.2-0.2,1.7-0.2
		c1.9,0,3.8,0.8,5.1,2.1c0.2,0.2,0.3,0.4,0.5,0.5c1.1,1.3,1.6,2.9,1.6,4.6c0,1.9-0.8,3.8-2.1,5.2c-0.2,0.2-0.4,0.3-0.5,0.5
		c-1.3,1.1-2.9,1.6-4.6,1.6h0c-1.9,0-3.8-0.8-5.2-2.1c-1.8-1.8-2.5-4.4-1.9-6.9c0.1-0.5,0-1.1-0.4-1.5c-1.8-1.8-4.3-2.9-6.9-2.9
		c-2.6,0-5.1,1-6.9,2.9l-9,9L-85.6,47.6z M-11.1,104.3c-2.4,2.4-5.5,3.7-8.9,3.7c-3.4,0-6.5-1.3-8.9-3.7L-56.1,77l9-9
		c0.2-0.2,0.3-0.3,0.5-0.4c1.2-1,2.7-1.5,4.2-1.5c1.5,0,3,0.5,4.1,1.4c-0.5,3.3,0.6,6.5,2.9,8.9c0.3,0.3,0.6,0.5,0.9,0.8
		c1.8,1.4,3.9,2.2,6.2,2.2c0.1,0,0.1,0,0.2,0c0,0,0,0,0,0c2.8,0,5.4-1.1,7.3-3c2-2,3-4.6,3-7.3c0-2.8-1.1-5.4-3-7.3
		c-2-2-4.6-3-7.3-3c-0.5,0-1,0-1.5,0.1c-0.9-1.2-1.4-2.6-1.4-4.1c0-1.8,0.7-3.5,2-4.7l9-9l9.1,9.1c1.7,1.7,4,2.6,6.4,2.7
		c0.1,0,0.2,0,0.3,0h0c0.1,0,0.1,0,0.2,0c1.2,0,2.4-0.3,3.5-0.7c1.2-0.5,2.2-1.2,3.2-2.1c0.4-0.4,0.5-0.9,0.4-1.5
		c-0.6-2.5,0.1-5.1,1.9-6.9c1.4-1.4,3.2-2.1,5.2-2.1s3.8,0.8,5.2,2.1c1.4,1.4,2.1,3.2,2.1,5.2c0,1.9-0.8,3.8-2.1,5.2
		c-0.2,0.2-0.3,0.3-0.5,0.5C13.7,53.4,12,54,10.3,54c-0.6,0-1.2-0.1-1.7-0.2c-0.5-0.1-1.1,0-1.5,0.4C3.4,57.9,3.4,64.1,7,67.9
		l9.1,9.1L-11.1,104.3z M45.6,47.6L18.4,74.9l-9.1-9.1c-2.3-2.4-2.5-6.2-0.4-8.8c0.5,0.1,1,0.1,1.5,0.1c2.8,0,5.4-1.1,7.3-3
		c2-2,3-4.6,3-7.3c0-2.8-1.1-5.4-3-7.3c-2-2-4.6-3-7.3-3c-2.8,0-5.4,1.1-7.3,3c-2.4,2.4-3.4,5.6-2.9,8.9c-1.2,0.9-2.6,1.4-4.1,1.4
		c-1.7,0-3.4-0.7-4.6-1.9l-9.1-9.1l9-9c1.8-1.8,2.9-4.3,2.9-6.9c0-2.6-1-5.1-2.9-6.9c-0.4-0.4-0.9-0.5-1.5-0.4
		c-0.6,0.1-1.2,0.2-1.7,0.2c-1.9,0-3.8-0.8-5.1-2.1c-2.8-2.8-2.8-7.5,0-10.3c1.4-1.4,3.2-2.1,5.2-2.1c1.9,0,3.8,0.8,5.2,2.1
		C-5,5-4.3,7.6-4.9,10.1c-0.1,0.5,0,1.1,0.4,1.5c1.8,1.8,4.3,2.9,6.9,2.9c2.6,0,5.1-1,6.9-2.9l9-9l27.3,27.3
		C50.5,34.7,50.5,42.7,45.6,47.6z"/>
</g>
<g>
	<g>
		<path class="ps3" d="M160.5,35.9c0,0.2,0,0.5-0.1,0.7l-20.4,52c-0.2,0.4-0.5,0.8-1,1c-0.4,0.2-0.9,0.2-1.4,0L115.8,81
			c-0.5-0.2-0.8-0.6-1-1c-0.2-0.5-0.2-1,0.1-1.5c0.9-1.8,2.3-3.2,4.1-4c2-0.9,3.4-2.7,3.9-4.9c0.6-2.9-0.9-6.1-3.5-7.5
			c-1.8-0.9-3.8-1.1-5.6-0.4c-1.8,0.7-3.3,2.1-4,3.9c-0.7,1.7-0.6,3.5,0.1,5.2c0.7,1.7,0.8,3.8,0.2,5.7c-0.1,0.5-0.5,0.9-0.9,1.1
			c-0.5,0.2-1,0.2-1.5,0.1l-21.9-8.6c-0.4-0.2-0.8-0.5-1-1c-0.2-0.4-0.2-0.9,0-1.4l7.7-19.6c-0.4,0-0.8,0.2-1.2,0.3
			c-2.5,1.1-5.4,1.1-7.9,0.1c-2.8-1.1-5-3.3-6-6.1c-1-2.8-0.9-5.9,0.5-8.6c2.1-4.1,6.9-6.4,11.5-5.4c3.3,0.7,6,2.9,7.4,5.9
			c0.2,0.4,0.4,0.7,0.7,1l7.7-19.6c0.2-0.4,0.5-0.8,1-1c0.4-0.2,0.9-0.2,1.4,0l52,20.4c0.4,0.2,0.8,0.5,1,1
			C160.4,35.4,160.5,35.6,160.5,35.9z M137.3,85.5l19.1-48.6l-48.6-19.1L99.8,38c-0.2,0.5-0.6,0.8-1,1c-0.5,0.2-1,0.2-1.5-0.1
			c-1.8-0.9-3.2-2.3-4-4.1c-0.9-2-2.7-3.4-4.9-3.9c-2.9-0.6-6.1,0.9-7.5,3.5c-0.9,1.8-1.1,3.8-0.4,5.6c0.7,1.8,2.1,3.3,3.9,4
			c1.7,0.7,3.5,0.6,5.2-0.1c1.7-0.7,3.8-0.8,5.7-0.2c0.5,0.1,0.9,0.5,1.1,0.9c0.2,0.5,0.2,1,0.1,1.5l-7.9,20.2l17.9,7
			c0-0.4-0.2-0.8-0.3-1.2c-1.1-2.6-1.1-5.4-0.1-7.9c1.1-2.8,3.3-5,6.1-6c2.8-1,5.9-0.8,8.6,0.5c4.1,2.1,6.4,7,5.4,11.5
			c-0.7,3.3-2.9,6-5.9,7.4c-0.4,0.2-0.7,0.4-1,0.7L137.3,85.5z"/>
	</g>
	<g>
		<path class="ps3" d="M74,103.6c0,1-0.8,1.8-1.8,1.8c-1,0-1.8-0.8-1.8-1.8c0-1,0.8-1.8,1.8-1.8h0C73.2,101.8,74,102.6,74,103.6z"/>
	</g>
	<g>
		<path class="ps3" d="M129.9,103.6v55.9c0,1-0.8,1.8-1.8,1.8H72.2c-1,0-1.8-0.8-1.8-1.8v-23.5c0-0.5,0.2-1,0.6-1.3
			c0.4-0.3,0.9-0.5,1.4-0.5c2,0.2,3.8,1,5.2,2.3c1.6,1.5,3.8,2.2,6,1.8c3-0.5,5.3-3,5.7-6c0.2-2-0.4-3.9-1.7-5.4
			c-1.3-1.5-3.2-2.3-5.1-2.3c-1.8,0-3.5,0.7-4.8,2c-1.4,1.3-3.2,2.1-5.2,2.3c-0.5,0-1-0.1-1.4-0.5c-0.4-0.3-0.6-0.8-0.6-1.3v-23.5
			c0-1,0.8-1.8,1.8-1.8h21.1c-0.2-0.4-0.4-0.7-0.7-1c-1.9-2-3-4.6-3-7.3c0-3,1.3-5.8,3.5-7.8c2.2-2,5.2-3,8.2-2.6
			c4.6,0.5,8.5,4.1,9.2,8.7c0.6,3.4-0.5,6.7-2.8,9.1c-0.3,0.3-0.5,0.6-0.7,1h21.1C129.1,101.8,129.9,102.6,129.9,103.6z
			 M126.2,157.7v-52.2h-21.7c-0.5,0-1-0.2-1.3-0.6c-0.3-0.4-0.5-0.9-0.5-1.4c0.2-2,1-3.8,2.3-5.2c1.5-1.6,2.2-3.8,1.8-6
			c-0.5-3-3-5.3-6-5.7c0,0,0,0,0,0c-2-0.2-3.9,0.4-5.4,1.7c-2.8,2.5-3,7.2-0.3,9.9c1.3,1.4,2.1,3.2,2.3,5.2c0,0.5-0.1,1-0.5,1.4
			c-0.3,0.4-0.8,0.6-1.3,0.6H74v19.3c0.4-0.2,0.7-0.4,1-0.7c2-1.9,4.6-3,7.3-3c3,0,5.8,1.3,7.8,3.5c2,2.2,3,5.2,2.6,8.2
			c-0.5,4.6-4.1,8.5-8.7,9.2c-3.4,0.6-6.7-0.5-9.1-2.8c-0.3-0.3-0.6-0.5-1-0.7v19.3H126.2z"/>
	</g>
	<g>
		<path class="ps3" d="M74,103.6c0,1-0.8,1.8-1.8,1.8c-1,0-1.8-0.8-1.8-1.8c0-1,0.8-1.8,1.8-1.8h0C73.2,101.8,74,102.6,74,103.6z"/>
	</g>
	<g>
		<path class="ps3" d="M74,47.8v23.5c0,0.5-0.2,1-0.6,1.3c-0.4,0.3-0.9,0.5-1.4,0.5c-2-0.2-3.8-1-5.2-2.3c-1.6-1.5-3.8-2.2-6-1.8
			c-3,0.5-5.3,3-5.7,6c-0.2,2,0.4,3.9,1.7,5.4c1.3,1.5,3.2,2.3,5.1,2.3c1.8,0,3.5-0.7,4.8-2c1.4-1.3,3.2-2.1,5.2-2.3
			c0.5,0,1,0.1,1.4,0.5c0.4,0.3,0.6,0.8,0.6,1.3v23.5c0,1-0.8,1.8-1.8,1.8H51.1c0.2,0.4,0.4,0.7,0.7,1c1.9,2,3,4.6,3,7.3
			c0,3-1.3,5.8-3.5,7.8c-2.2,2-5.2,3-8.2,2.6c-4.6-0.5-8.5-4.1-9.2-8.7c-0.6-3.4,0.5-6.7,2.8-9.1c0.3-0.3,0.5-0.6,0.7-1H16.3
			c-1,0-1.8-0.8-1.8-1.8V47.8c0-1,0.8-1.8,1.8-1.8h55.9C73.2,46,74,46.8,74,47.8z M70.4,68.9V49.6H18.1v52.2h21.7
			c0.5,0,1,0.2,1.3,0.6c0.3,0.4,0.5,0.9,0.5,1.4c-0.2,2-1,3.8-2.3,5.2c-1.5,1.6-2.2,3.8-1.8,6c0.5,3,3,5.3,6,5.7
			c2,0.2,3.9-0.4,5.4-1.7c2.8-2.5,3-7.2,0.3-9.9c-1.3-1.4-2.1-3.2-2.3-5.2c0-0.5,0.1-1,0.5-1.4c0.3-0.4,0.8-0.6,1.3-0.6h21.6V82.6
			c-0.4,0.2-0.7,0.4-1,0.7c-2,1.9-4.6,3-7.3,3c-3,0-5.8-1.3-7.8-3.5c-2-2.2-3-5.2-2.6-8.2c0.5-4.6,4.1-8.5,8.7-9.2
			c3.4-0.6,6.7,0.5,9.1,2.8C69.7,68.4,70,68.7,70.4,68.9z"/>
	</g>
	<g>
		<path class="ps3" d="M74,103.6c0,1-0.8,1.8-1.8,1.8c-1,0-1.8-0.8-1.8-1.8c0-1,0.8-1.8,1.8-1.8h0C73.2,101.8,74,102.6,74,103.6z"/>
	</g>
	<g>
		<path class="ps3" d="M92.9,131.6c0,0.4,0,0.8-0.1,1.1c-0.5,4.6-4.1,8.5-8.7,9.2c-3.4,0.6-6.7-0.5-9.1-2.8c-0.3-0.3-0.6-0.5-1-0.7
			v21.1c0,1-0.8,1.8-1.8,1.8H16.3c-1,0-1.8-0.8-1.8-1.8v-55.9c0-1,0.8-1.8,1.8-1.8h23.5c0.5,0,1,0.2,1.3,0.6
			c0.3,0.4,0.5,0.9,0.5,1.4c-0.2,2-1,3.8-2.3,5.2c-1.5,1.6-2.2,3.8-1.8,6c0.5,3,3,5.3,6,5.7c0,0,0,0,0,0c2,0.2,3.9-0.4,5.4-1.7
			c2.8-2.5,3-7.2,0.3-9.9c-1.3-1.4-2.1-3.2-2.3-5.2c0-0.5,0.1-1,0.5-1.4c0.3-0.4,0.8-0.6,1.3-0.6h23.5c1,0,1.8,0.8,1.8,1.8v21.1
			c0.4-0.2,0.7-0.4,1-0.7c2-1.9,4.6-3,7.3-3c3,0,5.8,1.3,7.8,3.5C91.9,126.5,92.9,129,92.9,131.6z M70.4,157.7v-21.7
			c0-0.5,0.2-1,0.6-1.3c0.4-0.3,0.9-0.5,1.4-0.5c2,0.2,3.8,1,5.2,2.3c1.6,1.5,3.8,2.2,6,1.8c3-0.5,5.3-3,5.7-6
			c0.2-2-0.4-3.9-1.7-5.4c-1.3-1.5-3.2-2.3-5.1-2.3c-1.8,0-3.5,0.7-4.8,2c-1.4,1.3-3.2,2.1-5.2,2.3c-0.5,0-1-0.1-1.4-0.5
			c-0.4-0.3-0.6-0.8-0.6-1.3v-21.7H51.1c0.2,0.4,0.4,0.7,0.7,1c1.9,2,3,4.6,3,7.3c0,3-1.3,5.8-3.5,7.8c-2.2,2-5.2,3-8.2,2.6l0,0
			c-4.6-0.5-8.5-4.1-9.2-8.7c-0.6-3.4,0.5-6.7,2.8-9.1c0.3-0.3,0.5-0.6,0.7-1H18.1v52.2H70.4z"/>
	</g>
</g>
</svg>
