<?xml version="1.0" encoding="utf-8"?>
<!-- Generator: Adobe Illustrator 22.1.0, SVG Export Plug-In . SVG Version: 6.00 Build 0)  -->
<svg version="1.1" id="Layer_1" xmlns="http://www.w3.org/2000/svg" xmlns:xlink="http://www.w3.org/1999/xlink" x="0px" y="0px"
	 viewBox="0 0 175 175" style="enable-background:new 0 0 175 175;" xml:space="preserve">
<style type="text/css">
	.quality0{fill:#F91791;}
</style>

<path class="quality0" d="M87.5,42.7c-24.8,0-44.8,20.1-44.8,44.8s20.1,44.8,44.8,44.8s44.8-20.1,44.8-44.8l0,0
	C132.3,62.7,112.3,42.7,87.5,42.7z M87.5,129.3c-23.1,0-41.8-18.7-41.8-41.8c0-23.1,18.7-41.8,41.8-41.8c23.1,0,41.8,18.7,41.8,41.8
	c0,0,0,0,0,0C129.3,110.6,110.6,129.3,87.5,129.3L87.5,129.3z"/>
<path class="quality0" d="M147.3,81.6c4.7-8.4,1.7-19.1-6.7-23.8c-0.4-0.2-0.8-0.4-1.3-0.6c-3.8-1.8-6.4-5.4-6.9-9.6
	c-1.1-9.6-9.8-16.4-19.4-15.3c-0.5,0.1-0.9,0.1-1.4,0.2c-4.1,0.8-8.4-0.6-11.3-3.6c-6.5-7.1-17.6-7.6-24.7-1c-0.4,0.3-0.7,0.7-1,1
	c-2.9,3.1-7.1,4.5-11.3,3.6c-9.5-1.9-18.7,4.2-20.6,13.7c-0.1,0.5-0.2,0.9-0.2,1.4c-0.5,4.2-3.1,7.8-7,9.6
	c-8.8,4-12.6,14.4-8.6,23.2c0.2,0.4,0.4,0.9,0.6,1.3c2,3.7,2,8.1,0,11.8c-4.7,8.4-1.7,19.1,6.7,23.8c0.4,0.2,0.8,0.4,1.3,0.6
	c3.8,1.8,6.4,5.4,6.9,9.6c1.1,9.6,9.8,16.4,19.4,15.3c0.5-0.1,0.9-0.1,1.4-0.2c4.1-0.8,8.4,0.6,11.3,3.6c6.5,7.1,17.6,7.6,24.7,1
	c0.4-0.3,0.7-0.7,1-1c2.9-3.1,7.1-4.5,11.3-3.6c9.5,1.9,18.7-4.2,20.6-13.7c0.1-0.5,0.2-0.9,0.2-1.4c0.5-4.2,3.1-7.8,7-9.6
	c8.8-4,12.6-14.4,8.6-23.2c-0.2-0.4-0.4-0.9-0.6-1.3C145.2,89.7,145.2,85.3,147.3,81.6z M145.4,96.5c3.4,6.1,1.3,13.8-4.8,17.3
	c-0.3,0.2-0.6,0.3-0.9,0.5c-5.8,2.7-9.8,8.2-10.6,14.6c-0.8,7-7.1,11.9-14.1,11.1c-0.3,0-0.7-0.1-1-0.2c-6.3-1.2-12.7,1-17,5.7
	c-4.7,5.2-12.8,5.5-17.9,0.7c-0.3-0.2-0.5-0.5-0.7-0.7c-3.5-3.8-8.4-5.9-13.6-5.9c-1.2,0-2.4,0.1-3.5,0.3
	c-6.9,1.4-13.5-3.1-14.9-9.9c-0.1-0.3-0.1-0.7-0.2-1c-0.8-6.4-4.8-11.9-10.6-14.6c-6.3-3-9.1-10.5-6.1-16.9c0.1-0.3,0.3-0.6,0.5-0.9
	c3.1-5.6,3.1-12.4,0-18c-3.4-6.1-1.3-13.8,4.8-17.3c0.3-0.2,0.6-0.3,0.9-0.5c5.8-2.7,9.8-8.2,10.6-14.6c0.8-7,7.1-11.9,14.1-11.1
	c0.3,0,0.7,0.1,1,0.2c6.3,1.2,12.7-1,17-5.7c4.7-5.2,12.8-5.5,17.9-0.7c0.3,0.2,0.5,0.5,0.7,0.7c4.3,4.7,10.7,6.9,17,5.7
	c6.9-1.4,13.5,3.1,14.9,9.9c0.1,0.3,0.1,0.7,0.2,1c0.8,6.4,4.8,11.9,10.6,14.6c6.3,3,9.1,10.5,6.1,16.9c-0.1,0.3-0.3,0.6-0.5,0.9
	C142.2,84.2,142.3,90.9,145.4,96.5z"/>
<path class="quality0" d="M78.5,106L64.4,91.9l5.2-5.6l7.1,7.5c0.5,0.5,1.2,0.8,1.9,0.9c0.7,0,1.4-0.3,2-0.8L105.5,69l5,5L78.5,106z"/>
</svg>
