<?xml version="1.0" encoding="utf-8"?>
<!-- Generator: Adobe Illustrator 22.1.0, SVG Export Plug-In . SVG Version: 6.00 Build 0)  -->
<svg version="1.1" xmlns="http://www.w3.org/2000/svg" xmlns:xlink="http://www.w3.org/1999/xlink" x="0px" y="0px"
	 viewBox="0 0 175 175" style="enable-background:new 0 0 175 175;" xml:space="preserve">
<style type="text/css">
	.rel0{display:none;}
	.rel1{display:inline;fill:transparent;stroke:#000000;stroke-width:0.25;stroke-miterlimit:10;}
	.rel2{fill:#f91791;}
	.rel3{fill:none;stroke:#f91791;stroke-width:3;stroke-miterlimit:10;}
</style>
<g id="Layer_2">
</g>
<g id="Layer_1">
	<g class="rel0">
		<path class="rel1" d="M60.1,75c0.9,0,1.6-0.7,1.6-1.5c0.9-12,10.2-21.9,22.2-23.5c6.5-0.9,13.1,0.8,18.4,4.7
			c0.7,0.5,1.8,0.4,2.3-0.4c0.5-0.7,0.4-1.8-0.4-2.3c-6-4.4-13.4-6.3-20.8-5.3c-13.5,1.8-24.1,12.9-25,26.5C58.4,74.2,59.1,75,60,75
			C60,75,60.1,75,60.1,75z"/>
	</g>
	<g>
		<g>
			<path class="rel2" d="M99,80c-5.2-7.1-11.5,0.4-11.5,0.4S81.2,72.8,76,80c-5.5,7.6,7.8,16,11.5,18.2C91.2,96,104.6,87.6,99,80z"/>
		</g>
		<path class="rel3" d="M115.7,87.5c0,34.7-12.6,62.8-28.2,62.8c-15.6,0-28.2-28.1-28.2-62.8c0-34.7,12.6-62.8,28.2-62.8
			C103.1,24.7,115.7,52.8,115.7,87.5z"/>
		<path class="rel3" d="M102.1,63.4c29.6,18,47.1,43.4,39,56.7c-8.1,13.3-38.7,9.4-68.3-8.6c-29.6-18-47.1-43.4-39-56.7
			C41.9,41.6,72.5,45.4,102.1,63.4z"/>
		<path class="rel3" d="M72.9,63.4c-29.6,18-47.1,43.4-39,56.7c8.1,13.3,38.7,9.4,68.3-8.6c29.6-18,47.1-43.4,39-56.7
			C133.1,41.6,102.5,45.4,72.9,63.4z"/>
	</g>
</g>
</svg>
