<?xml version="1.0" encoding="utf-8"?>
<!-- Generator: Adobe Illustrator 22.1.0, SVG Export Plug-In . SVG Version: 6.00 Build 0)  -->
<svg version="1.1" id="Layer_1" xmlns="http://www.w3.org/2000/svg" xmlns:xlink="http://www.w3.org/1999/xlink" x="0px" y="0px"
	 viewBox="0 0 100 100" enable-background="new 0 0 100 100" xml:space="preserve">
<g id="Layer_1_1_">
	<g>
		<path fill="#F91791" d="M14.555,24.372H74.48v9.35h5.015v-11.22c0-1.7-1.445-3.145-3.145-3.145H12.77
			c-1.7,0-3.145,1.445-3.145,3.145v43.095c0,1.7,1.36,3.145,3.145,3.145h25.585v5.695h-5.61c-0.85,0-1.53,0.68-1.53,1.53v2.975
			c0,0.85,0.68,1.53,1.53,1.53h23.8c0.85,0,1.53-0.68,1.53-1.53v-2.975c0-0.85-0.68-1.53-1.53-1.53H50.85v-5.695h11.73V57.778
			H14.555V24.372z M44.56,61.007c1.19,0,2.21,1.02,2.21,2.21s-1.02,2.21-2.21,2.21s-2.21-1.02-2.21-2.21S43.37,61.007,44.56,61.007z
			"/>
		<path fill="#F91791" d="M86.975,37.292h-17.51c-1.87,0-3.315,1.53-3.315,3.4v36.55c0,1.87,1.53,3.4,3.315,3.4h17.51
			c1.87,0,3.4-1.53,3.4-3.4V40.608C90.375,38.737,88.845,37.292,86.975,37.292z M75.415,39.757h5.525
			c0.425,0,0.765,0.34,0.765,0.765c0,0.425-0.34,0.765-0.765,0.765h-5.525c-0.425,0-0.765-0.34-0.765-0.765
			C74.65,40.097,74.99,39.757,75.415,39.757z M78.22,78.092c-1.19,0-2.21-1.02-2.21-2.21s1.02-2.21,2.21-2.21
			c1.19,0,2.21,1.02,2.21,2.21C80.43,77.073,79.41,78.092,78.22,78.092z M86.72,71.207h-17V43.753h17.085L86.72,71.207L86.72,71.207
			z"/>
	</g>
</g>
</svg>
