<?xml version="1.0" encoding="utf-8"?>
<!-- Generator: Adobe Illustrator 22.1.0, SVG Export Plug-In . SVG Version: 6.00 Build 0)  -->
<svg version="1.1" id="Layer_1" xmlns="http://www.w3.org/2000/svg" xmlns:xlink="http://www.w3.org/1999/xlink" x="0px" y="0px"
	 viewBox="0 0 100 100" enable-background="new 0 0 100 100" xml:space="preserve">
<g>
	<path fill="#F91791" d="M38.778,39.994c-0.733,0-1.33-0.597-1.33-1.335c0-5.172,4.211-9.384,9.384-9.384
		c0.739,0,1.336,0.597,1.336,1.335c0,0.733-0.597,1.33-1.336,1.33c-3.706,0-6.718,3.018-6.718,6.718
		C40.114,39.397,39.517,39.994,38.778,39.994z"/>
	<path fill="#F91791" d="M61.564,38.659c0-8.122-6.61-14.738-14.732-14.738s-14.737,6.616-14.737,14.738
		c0,6.894,4.768,12.685,11.168,14.283v12.521c-1.341,0.842-2.194,2.16-2.194,3.672v13.021c0,2.609,2.535,4.649,5.763,4.649
		c3.228,0,5.763-2.04,5.763-4.649V69.134c0-1.512-0.852-2.83-2.205-3.672V52.941C56.801,51.344,61.564,45.558,61.564,38.659z
		 M34.766,38.659c0-6.656,5.411-12.067,12.066-12.067c6.656,0,12.072,5.411,12.072,12.067c0,6.661-5.416,12.072-12.072,12.072
		C40.176,50.73,34.766,45.32,34.766,38.659z M49.924,69.134v7.678c0,1.057-1.444,1.983-3.092,1.983s-3.097-0.926-3.097-1.983v-7.678
		c0-1.057,1.449-1.983,3.097-1.983S49.924,68.076,49.924,69.134z M46.832,84.138c-1.648,0-3.097-0.932-3.097-1.983v-1.404
		c0.892,0.449,1.949,0.71,3.097,0.71c1.154,0,2.205-0.261,3.092-0.71v1.404C49.924,83.207,48.48,84.138,46.832,84.138z
		 M47.73,53.396v11.089h-1.796V53.396H47.73z"/>
	<path fill="#F91791" d="M93.335,50.349c0-5.786-4.598-10.525-10.332-10.753c-0.875-7.713-7.44-13.726-15.386-13.726
		c-1.069,0-2.131,0.113-3.171,0.329c-2.666-7.741-9.856-13.004-18.051-13.004c-9.258,0-17.107,6.78-18.802,15.823
		c-1.472-0.426-3.001-0.648-4.558-0.648c-9.025,0-16.369,7.349-16.369,16.369c0,9.026,7.344,16.375,16.369,16.375h20.228v-3.558
		h-20.08h-0.148c-7.064,0-12.816-5.746-12.816-12.816c0-7.065,5.752-12.817,12.816-12.817c1.847,0,3.632,0.386,5.303,1.154
		c0.534,0.244,1.148,0.204,1.648-0.091c0.5-0.301,0.824-0.824,0.864-1.415c0.546-8.31,7.372-14.823,15.545-14.823
		c7.162,0,13.374,4.956,15.113,12.043c0.113,0.484,0.432,0.898,0.87,1.137c0.432,0.239,0.955,0.284,1.421,0.125
		c1.233-0.414,2.523-0.631,3.819-0.631c6.576,0,11.93,5.354,11.93,11.936v0.091c0,0.517,0.222,1,0.614,1.342
		c0.381,0.335,0.898,0.495,1.41,0.421c0.335-0.045,0.67-0.068,1-0.068c3.979,0,7.213,3.228,7.213,7.195l-0.006,0.108
		c0,0.04,0,0.074,0,0.114c0,0,0.006,0.113,0.006,0.119c0,3.796-2.688,6.877-5.996,6.877H50.389v3.558h33.397
		c5.263,0,9.548-4.683,9.548-10.435l-0.005-0.148L93.335,50.349z"/>
</g>
</svg>
