<?xml version="1.0" encoding="utf-8"?>
<!-- Generator: Adobe Illustrator 22.1.0, SVG Export Plug-In . SVG Version: 6.00 Build 0)  -->
<svg version="1.1" id="Layer_1" xmlns="http://www.w3.org/2000/svg" xmlns:xlink="http://www.w3.org/1999/xlink" x="0px" y="0px"
	 viewBox="0 0 80.2 80" style="enable-background:new 0 0 80.2 80;" xml:space="preserve">
<style type="text/css">
	.st0{fill:#F91791;}
	.st1{fill:none;stroke:#F91791;stroke-width:2;stroke-miterlimit:10;}
</style>
<g>
	<g>
		<path class="st0" d="M35.1,31.6c1.9-0.2,3.7,0.3,5.3,1.5c0.5,0.3,1.1,0.7,0.6,1.4c-0.5,0.6-0.9,0.1-1.4-0.2
			c-2.1-1.4-4.4-1.8-6.9-1.1c-1.9,0.5-2.8,1.7-2.8,3.5c0,1.1,0.5,1.9,1.5,2.4c1.4,0.7,3,0.9,4.4,1.3c1.1,0.3,2.2,0.6,3.3,1
			c1.6,0.6,2.8,1.6,2.8,3.5c0.1,2.1-0.5,3.7-2.4,4.8c-3.1,1.8-8.7,1.4-11.5-0.9c-0.5-0.4-1-0.8-0.5-1.5c0.5-0.7,1-0.1,1.4,0.2
			c2.1,1.6,4.5,2,7.1,1.7c1.4-0.1,2.6-0.7,3.5-1.8c1.1-1.6,0.5-3.7-1.3-4.5c-1.4-0.6-2.8-0.9-4.3-1.3c-0.9-0.3-1.7-0.4-2.6-0.7
			c-1.7-0.5-3.2-1.3-3.3-3.4c-0.2-2.3,0.6-4,2.6-5.1C32.1,31.6,33.5,31.4,35.1,31.6z"/>
		<path class="st0" d="M45.8,36.5c0-3.6,0-7.2,0-10.8c0-0.9,0.1-1.7,1.3-1.4c0.8,0.2,0.6,1,0.6,1.5c0,5.1,0,10.2,0,15.3
			c0,1.7,0,3.4,0,5.1c0,2.2,0.8,2.9,2.9,2.8c0.2,0,0.4,0,0.6-0.1c0.5-0.1,0.8,0.1,0.9,0.6c0.1,0.5-0.2,0.8-0.6,0.9
			c-3.3,1.1-5.8-0.2-5.7-3.6C45.9,43.4,45.8,39.9,45.8,36.5z"/>
	</g>
	<ellipse class="st1" cx="40.1" cy="40" rx="37.8" ry="37.8"/>
</g>
</svg>
