<?xml version="1.0" encoding="utf-8"?>
<!-- Generator: Adobe Illustrator 22.1.0, SVG Export Plug-In . SVG Version: 6.00 Build 0)  -->
<svg version="1.1" xmlns="http://www.w3.org/2000/svg" xmlns:xlink="http://www.w3.org/1999/xlink" x="0px" y="0px"
	 viewBox="0 0 145 145" style="enable-background:new 0 0 145 145;" xml:space="preserve">
<style type="text/css">
	.st0{fill:#F91791;}
</style>
<g id="Text">
</g>
<g id="leadership-menter-team-teamwork-partner-buddy">
</g>
<g id="cognitive-experience-expert-mind-mental-memory">
</g>
<g id="creativity-think-outside-box-startup-rocket-imagination">
</g>
<g id="emotional-happy-sad-feeling-mask-social">
</g>
<g id="resilience-recover-strong-leader-hero-super">
</g>
<g id="self-awareness-actualize-think-person-mental">
</g>
<g id="adaptability-transformation-adjust-change-mutation-revolotion">
</g>
<g id="empathy-love-person-switch-mind">
</g>
<g id="visualization-eye-see-picture-think">
</g>
<g id="ideation-idea-creativity-grow-growth">
</g>
<g id="innovation-idea-futuristic-engineering-bright">
</g>
<g id="gender-harmony-equality-lgbt-gay-yin-yang">
</g>
<g id="health-wellness-strong-nutrition-healthcare-healthy">
</g>
<g id="environment-sustainability-earth-world-eco-plant">
</g>
<g id="citizenship-heart-love-nation-together">
</g>
<g id="communication-feedback-chat-talk-meeting-storytelling">
</g>
<g id="cross-cultrual-sensitivity-person-mind-infographics">
</g>
<g id="conflict-management-enemy-rival-boxing-sport">
</g>
<g id="negotiation-discussion-talk-conversation-chat">
</g>
<g id="influence-without-authority-team-teamwork">
</g>
<g id="excellent-star-prize-award-feedback-win">
	<g>
		<path class="st0" d="M110.3,135.8c-0.4,0-0.7-0.1-1-0.3l-36.8-20.3l-36.8,20.3c-0.7,0.4-1.6,0.3-2.2-0.1c-0.7-0.5-1-1.3-0.9-2.1
			l7.1-43.2L9.8,59.5c-0.6-0.6-0.7-1.4-0.5-2.1c0.3-0.7,0.9-1.3,1.7-1.4l41.2-6.3l18.4-39.3c0.3-0.7,1.1-1.2,1.9-1.2
			c0.8,0,1.6,0.5,1.9,1.2l18.4,39.3L134,56c0.8,0.1,1.4,0.7,1.7,1.4c0.3,0.8,0.1,1.6-0.5,2.1l-29.9,30.6l7.1,43.2
			c0.1,0.8-0.2,1.6-0.9,2.1C111.2,135.7,110.7,135.8,110.3,135.8z M72.5,110.7c0.4,0,0.7,0.1,1,0.3l34,18.8l-6.5-40
			c-0.1-0.7,0.1-1.3,0.6-1.8l27.7-28.4l-38.2-5.8c-0.7-0.1-1.3-0.6-1.6-1.2l-17-36.2l-17,36.2c-0.3,0.6-0.9,1.1-1.6,1.2l-38.2,5.8
			l27.7,28.4c0.5,0.5,0.7,1.2,0.6,1.8l-6.5,40l34-18.8C71.8,110.8,72.1,110.7,72.5,110.7z"/>
		<g>
			<path class="st0" d="M79.7,100.9c-0.3,0-0.6-0.1-0.8-0.2L72.5,98l-6.3,2.7c-1,0.4-2.1,0.1-2.6-0.9L60,93.9l-6.7-1.5
				c-1-0.2-1.7-1.2-1.6-2.3l0.6-6.9l-4.5-5.2c-0.7-0.8-0.7-2,0-2.8l4.5-5.2l-0.6-6.9c-0.1-1.1,0.6-2,1.6-2.3l6.7-1.5l3.5-5.9
				c0.5-0.9,1.7-1.3,2.6-0.9l6.3,2.7l6.3-2.7c1-0.4,2.1-0.1,2.6,0.9l3.5,5.9l6.7,1.5c1,0.2,1.7,1.2,1.6,2.3l-0.6,6.9l4.5,5.2
				c0.7,0.8,0.7,2,0,2.8l-4.5,5.2l0.6,6.9c0.1,1.1-0.6,2-1.6,2.3L85,93.9l-3.5,5.9C81.1,100.5,80.4,100.9,79.7,100.9z M72.5,93.6
				c0.3,0,0.6,0.1,0.8,0.2l5.5,2.4l3-5.1c0.3-0.5,0.8-0.9,1.3-1l5.8-1.3l-0.5-5.9c-0.1-0.6,0.1-1.1,0.5-1.6l3.9-4.5L89,72.2
				c-0.4-0.4-0.6-1-0.5-1.6l0.5-5.9l-5.8-1.3c-0.6-0.1-1.1-0.5-1.3-1l-3-5.1l-5.5,2.4c-0.5,0.2-1.1,0.2-1.7,0l-5.5-2.4l-3,5.1
				c-0.3,0.5-0.8,0.9-1.3,1L56,64.7l0.5,5.9c0.1,0.6-0.1,1.1-0.5,1.6l-3.9,4.5l3.9,4.5c0.4,0.4,0.6,1,0.5,1.6L56,88.7l5.8,1.3
				c0.6,0.1,1.1,0.5,1.3,1l3,5.1l5.5-2.4C71.9,93.7,72.2,93.6,72.5,93.6z"/>
		</g>
		<g>
			<path class="st0" d="M55.6,110.5c-0.3,0-0.5-0.1-0.8-0.2c-0.8-0.3-1.3-1.1-1.3-1.9V102h-6.3c-0.9,0-1.6-0.5-1.9-1.3
				c-0.3-0.8-0.1-1.7,0.5-2.3l8.4-8.4l3,3l-4.8,4.8h3.3c1.2,0,2.1,0.9,2.1,2.1v3.3l6.9-6.9l3,3l-10.5,10.5
				C56.7,110.3,56.2,110.5,55.6,110.5z"/>
		</g>
		<g>
			<path class="st0" d="M89.4,110.5c-0.5,0-1.1-0.2-1.5-0.6L77.3,99.3l3-3l6.9,6.9v-3.3c0-1.2,0.9-2.1,2.1-2.1h3.3L87.9,93l3-3
				l8.4,8.4c0.6,0.6,0.8,1.5,0.5,2.3c-0.3,0.8-1.1,1.3-1.9,1.3h-6.3v6.3c0,0.9-0.5,1.6-1.3,1.9C89.9,110.4,89.7,110.5,89.4,110.5z"
				/>
		</g>
		<path class="st0" d="M72.5,89.4c-7,0-12.7-5.7-12.7-12.7c0-7,5.7-12.7,12.7-12.7c7,0,12.7,5.7,12.7,12.7
			C85.2,83.7,79.5,89.4,72.5,89.4z M72.5,68.3c-4.7,0-8.4,3.8-8.4,8.4s3.8,8.4,8.4,8.4c4.7,0,8.4-3.8,8.4-8.4S77.2,68.3,72.5,68.3z"
			/>
	</g>
</g>
<g id="entrepreneurship-leader-explorer-business-director">
</g>
<g id="organizing-logic-arrangement-organizing-puzzle">
</g>
<g id="system-thinking-logic-engineering-process">
</g>
<g id="problem-solving-idea-creativity-motivation-share">
</g>
<g id="critical-thinking-idea-creative-solving-problem">
</g>
<g id="latteral-thinking-imagination-strategy-plan">
</g>
<g id="problem-based-learning-puzzle-solving">
</g>
<g id="learner-center-education-degree-college-school">
</g>
<g id="active-learning-book-system-study">
</g>
<g id="open-mindedness-empathy-head-potential-love">
</g>
<g id="confidence-self-faith-trust-leader">
</g>
<g id="curiosity-problem-doubt-uncertainty-ask-question">
</g>
<g id="imagination-dream-passion-motivation-startup">
</g>
<g id="problem-solving-idea-innovation-creativity">
</g>
<g id="life-skills-self-management-thinking-logic-creative">
</g>
</svg>
