<?xml version="1.0" encoding="utf-8"?>
<!-- Generator: Adobe Illustrator 22.1.0, SVG Export Plug-In . SVG Version: 6.00 Build 0)  -->
<svg version="1.1" id="Layer_1" xmlns="http://www.w3.org/2000/svg" xmlns:xlink="http://www.w3.org/1999/xlink" x="0px" y="0px"
	 viewBox="0 0 100 100" style="enable-background:new 0 0 100 100;" xml:space="preserve">
<style type="text/css">
	.st0{fill:#F91791;}
</style>
<g>
	<path class="st0" d="M135.2-140.5l-7-1.4c-0.9-5.2-2.9-10.1-6-14.3l4-6c0.5-0.7,0.4-1.6-0.2-2.3l-4-4c-0.5-0.5-1.6-0.7-2.3-0.2
		l-6,4c-4.2-3.1-9-5.1-14.3-6l-1.4-7c-0.2-0.9-0.9-1.4-1.8-1.4h-5.8c-0.9,0-1.6,0.5-1.8,1.4l-1.4,7c-5.2,0.9-10.1,2.9-14.3,6l-6-4
		c-0.7-0.5-1.6-0.4-2.3,0.2l-4,4c-0.5,0.7-0.7,1.6-0.2,2.3l4,6c-2.9,4.2-5.1,9-6,14.3l-7,1.4c-0.9,0.2-1.4,0.9-1.4,1.8v5.8
		c0,0.9,0.5,1.6,1.4,1.8l7,1.4c0.9,5.2,2.9,10.1,6,14.3l-4,6c-0.5,0.7-0.4,1.6,0.2,2.3l4,4c0.5,0.5,1.6,0.7,2.3,0.2l6-4
		c4.2,3.1,9,5.1,14.3,6l1.4,7c0.2,0.9,0.9,1.4,1.8,1.4h5.8c0.9,0,1.6-0.5,1.8-1.4l1.4-7c5.2-0.9,10.1-2.9,14.3-6l6,4
		c0.7,0.5,1.6,0.4,2.3-0.2l4-4c0.5-0.5,0.7-1.6,0.2-2.3l-4-6c2.9-4.2,5.1-9,6-14.3l7-1.4c0.9-0.2,1.4-0.9,1.4-1.8v-5.8
		C136.7-139.6,136-140.3,135.2-140.5z M93.3-112c-13.2,0-23.8-10.7-23.8-23.8s10.7-23.8,23.8-23.8s23.8,10.7,23.8,23.8
		C117.2-122.6,106.5-112,93.3-112z"/>
	<path class="st0" d="M107.8-125.5c-0.2,0-7.9-2.9-8.1-2.9l0,0l-1.4-2.5l0,0v-1.3c1.4-2,3.3-2.7,3.3-4.7v-1.3
		c1.8,0.9,3.4-6.9,1.1-6.9c0.2-1.4,0.2-3.4,0.2-4.5c-0.2-1.6-2.2-2.3-2.2-2.3c-0.5-3.1-4-4-7-3.6c-6.9,0.4-9.9,4.2-9.6,10.5
		c-2,0.5-0.7,7.2,1.3,6.9h0.2c0,0.9-0.2,2.2,0.7,3.3l2.5,2.7v1.4l0,0l-1.6,2.5l0,0c-6.9,2.5-9.8,2.9-11.4,5.2
		c4,5.6,10.5,9.2,17.9,9.2s13.9-3.6,17.9-9.2C110.5-124.1,109.6-124.8,107.8-125.5C108-125.5,108-125.5,107.8-125.5z"/>
</g>
<g>
	<g>
		<ellipse class="st0" cx="77.5" cy="35.8" rx="3.9" ry="4.8"/>
		<path class="st0" d="M84.5,58h-0.8v15.5h4.5V52.8c0-5-3.1-7.8-8.8-7.8h-5.9c1.9,1.7,3.1,4,3.1,6.8v19c0,0.1-0.1,0.2-0.2,0.2h-4.8
			v15.5h4.5V75.8c0-0.1,0.1-0.2,0.2-0.2c0.1,0,0.2,0.1,0.2,0.2v10.8h6.5V57.8c0-0.1,0.1-0.2,0.2-0.2h1c0.1,0,0.2,0.1,0.2,0.2
			C84.8,57.9,84.6,58,84.5,58z"/>
	</g>
	<g>
		<ellipse class="st0" cx="22.5" cy="35.6" rx="3.9" ry="4.8"/>
		<path class="st0" d="M15.5,57.8h0.8v15.5h-4.5V52.6c0-5,3.1-7.8,8.8-7.8h5.9c-1.9,1.7-3.1,4-3.1,6.8v19c0,0.1,0.1,0.2,0.2,0.2h4.8
			v15.5h-4.5V75.6c0-0.1-0.1-0.2-0.2-0.2c-0.1,0-0.2,0.1-0.2,0.2v10.8h-6.5V57.6c0-0.1-0.1-0.2-0.2-0.2l0,0c-0.1,0-1.2,0.1-1.2,0.2
			C15.2,57.7,15.4,57.8,15.5,57.8z"/>
	</g>
	<g>
		<path class="st0" d="M52.6,28.2c0.1-0.7,0-1.4-0.4-2c-0.4-0.5-0.9-0.8-1.5-0.9c-0.8-0.2-1.4-0.1-1.9,0.2c-0.6,0.4-0.9,1.1-1.1,2.1
			l-1.1,4.8C44.4,41.3,40.9,43,35.7,43h-2c-5.6,0-9.8,3.8-9.8,8.8v19.7h4.5V56h-0.8c-0.1,0-0.2-0.1-0.2-0.2c0-0.1,0.1-0.2,0.2-0.2h1
			c0.1,0,0.2,0.1,0.2,0.2v30.7h6.5V69.8c0-0.1,0.1-0.2,0.2-0.2c0.1,0,0.2,0.1,0.2,0.2v16.8h6.5V50.8c0-0.1,0-0.1,0.1-0.2
			c0.1-0.1,6.5-6.5,8.1-13.7C51.8,32,52.6,28.3,52.6,28.2z"/>
		<ellipse class="st0" cx="64.5" cy="33.8" rx="4.8" ry="5.8"/>
		<ellipse class="st0" cx="35.7" cy="33.8" rx="4.8" ry="5.8"/>
		<path class="st0" d="M66.5,43h-2c-5.2,0-8.7-1.7-10.9-10.6l-0.8-3.1c-0.3,1.4-0.9,4.3-1.7,7.7c-0.2,0.9-0.5,1.9-0.9,2.8
			c0.1,0,0.1,0.1,0.2,0.1c2.2,6.2,7.2,10.6,7.2,10.6c0.1,0,0.1,0.1,0.1,0.2v35.7h6.5V69.8c0-0.1,0.1-0.2,0.2-0.2s0.2,0.1,0.2,0.2
			v16.8h6.5V55.8c0-0.1,0.1-0.2,0.2-0.2h1c0.1,0,0.2,0.1,0.2,0.2c0,0.1-0.1,0.2-0.2,0.2h-0.8v15.5h4.5V51.8
			C76.3,46.8,72.1,43,66.5,43z"/>
	</g>
	<g>
		<g>
			<path d="M76.5,72.5h-2c-0.6,0-1-0.4-1-1s0.4-1,1-1h1v-19c0-4.6-3.9-8-9-8h-2c-6.5,0-9.6-3-11.6-11.1l-1.1-4.1
				c-0.1-0.5,0.2-1.1,0.7-1.2c0.5-0.1,1.1,0.2,1.2,0.7l1.1,4.1c2,8.1,4.8,9.6,9.7,9.6h2c6.3,0,11,4.3,11,10v20
				C77.5,72.1,77.1,72.5,76.5,72.5z"/>
			<path d="M57.5,87.5c-0.6,0-1-0.4-1-1V50.9c-1.2-1.1-5.2-5.2-7.3-10.8c-0.2-0.5,0.1-1.1,0.6-1.3c0.5-0.2,1.1,0.1,1.3,0.6
				c2.2,6,7,10.3,7,10.3c0.2,0.2,0.3,0.5,0.3,0.8v36C58.5,87.1,58.1,87.5,57.5,87.5z"/>
			<path d="M71.5,87.5c-0.6,0-1-0.4-1-1v-31c0-0.6,0.4-1,1-1h1c0.6,0,1,0.4,1,1s-0.4,1-1,1v30C72.5,87.1,72.1,87.5,71.5,87.5z"/>
			<path d="M64.5,87.5c-0.6,0-1-0.4-1-1v-17c0-0.6,0.4-1,1-1c0.6,0,1,0.4,1,1v17C65.5,87.1,65.1,87.5,64.5,87.5z"/>
			<path d="M64.5,40.8c-3.6,0-6-2.8-6-7c0-4.2,2.4-7,6-7c3.6,0,6,2.8,6,7C70.5,38,68.1,40.8,64.5,40.8z M64.5,28.8c-2.9,0-4,2.6-4,5
				s1.1,5,4,5c2.9,0,4-2.6,4-5S67.4,28.8,64.5,28.8z"/>
		</g>
		<g>
			<path d="M42.7,87.5c-0.6,0-1-0.4-1-1v-36c0-0.3,0.1-0.5,0.3-0.7c0.1-0.1,6.4-6.4,7.9-13.3c1.1-5,1.9-8.7,1.9-8.7
				c0.1-0.5,0-1-0.3-1.4c-0.2-0.3-0.6-0.5-1-0.6c-0.6-0.1-1-0.1-1.3,0.1c-0.5,0.3-0.7,1.1-0.8,1.6l-1.1,4.8
				c-2,8.1-5.1,11.1-11.6,11.1h-2c-5.1,0-9,3.4-9,8v19h1c0.6,0,1,0.4,1,1s-0.4,1-1,1h-2c-0.6,0-1-0.4-1-1v-20c0-5.7,4.7-10,11-10h2
				c4.8,0,7.7-1.5,9.7-9.6l1.1-4.7c0.3-1.4,0.8-2.3,1.7-2.9c0.8-0.5,1.7-0.6,2.8-0.4c0.9,0.1,1.7,0.6,2.2,1.4
				c0.6,0.8,0.8,1.9,0.6,2.9c0,0-0.8,3.7-1.9,8.7c-1.5,6.7-6.8,12.6-8.2,14v35.6C43.7,87.1,43.2,87.5,42.7,87.5z"/>
			<path d="M28.7,87.5c-0.6,0-1-0.4-1-1v-30c-0.6,0-1-0.4-1-1s0.4-1,1-1h1c0.6,0,1,0.4,1,1v31C29.7,87.1,29.2,87.5,28.7,87.5z"/>
			<path d="M35.7,87.5c-0.6,0-1-0.4-1-1v-17c0-0.6,0.4-1,1-1c0.6,0,1,0.4,1,1v17C36.7,87.1,36.2,87.5,35.7,87.5z"/>
			<path d="M35.7,40.5c-3.6,0-6-2.8-6-7s2.4-7,6-7c3.6,0,6,2.8,6,7S39.3,40.5,35.7,40.5z M35.7,28.5c-2.9,0-4,2.6-4,5s1.1,5,4,5
				c2.9,0,4-2.6,4-5S38.6,28.5,35.7,28.5z"/>
		</g>
	</g>
	<g>
		<path d="M88.5,74.5h-2c-0.6,0-1-0.4-1-1s0.4-1,1-1h1v-20c0-6.1-5-7-8-7h-6c-0.6,0-1-0.4-1-1s0.4-1,1-1h6c6.3,0,10,3.4,10,9v21
			C89.5,74.1,89.1,74.5,88.5,74.5z"/>
		<path d="M83.5,87.5c-0.6,0-1-0.4-1-1v-29c0-0.6,0.4-1,1-1h1c0.6,0,1,0.4,1,1s-0.4,1-1,1v28C84.5,87.1,84.1,87.5,83.5,87.5z"/>
		<path d="M76.5,87.5c-0.6,0-1-0.4-1-1v-11c0-0.6,0.4-1,1-1c0.6,0,1,0.4,1,1v11C77.5,87.1,77.1,87.5,76.5,87.5z"/>
		<path d="M77.5,41.5c-3.1,0-5.2-2.4-5.2-6s2.1-6,5.2-6c3.1,0,5.2,2.4,5.2,6S80.6,41.5,77.5,41.5z M77.5,31.5c-2.9,0-3.2,3.1-3.2,4
			s0.2,4,3.2,4c2.9,0,3.2-3.1,3.2-4S80.4,31.5,77.5,31.5z"/>
	</g>
	<g>
		<path d="M13.5,74.5h-2c-0.6,0-1-0.4-1-1v-21c0-5.6,3.7-9,10-9h6c0.6,0,1,0.4,1,1s-0.4,1-1,1h-6c-3,0-8,0.9-8,7v20h1
			c0.6,0,1,0.4,1,1S14.1,74.5,13.5,74.5z"/>
		<path d="M16.5,87.5c-0.6,0-1-0.4-1-1v-28c-0.6,0-1-0.4-1-1s0.4-1,1-1h1c0.6,0,1,0.4,1,1v29C17.5,87.1,17.1,87.5,16.5,87.5z"/>
		<path d="M23.5,87.5c-0.6,0-1-0.4-1-1v-11c0-0.6,0.4-1,1-1c0.6,0,1,0.4,1,1v11C24.5,87.1,24.1,87.5,23.5,87.5z"/>
		<path d="M22.5,41.5c-3.1,0-5.2-2.4-5.2-6s2.1-6,5.2-6c3.1,0,5.2,2.4,5.2,6S25.6,41.5,22.5,41.5z M22.5,31.5c-2.9,0-3.2,3.1-3.2,4
			s0.2,4,3.2,4c2.9,0,3.2-3.1,3.2-4S25.4,31.5,22.5,31.5z"/>
	</g>
	<g>
		<path d="M50.5,19.5c-0.6,0-1-0.4-1-1v-5c0-0.6,0.4-1,1-1c0.6,0,1,0.4,1,1v5C51.5,19.1,51.1,19.5,50.5,19.5z"/>
		<path d="M43.5,22.5c-0.3,0-0.5-0.1-0.7-0.3l-3.5-3.5c-0.4-0.4-0.4-1,0-1.4c0.4-0.4,1-0.4,1.4,0l3.5,3.5c0.4,0.4,0.4,1,0,1.4
			C44,22.4,43.8,22.5,43.5,22.5z"/>
		<path d="M57,22.5c-0.3,0-0.5-0.1-0.7-0.3c-0.4-0.4-0.4-1,0-1.4l3.5-3.5c0.4-0.4,1-0.4,1.4,0c0.4,0.4,0.4,1,0,1.4l-3.5,3.5
			C57.5,22.4,57.2,22.5,57,22.5z"/>
	</g>
</g>
</svg>
