<?xml version="1.0" encoding="utf-8"?>
<!-- Generator: Adobe Illustrator 22.1.0, SVG Export Plug-In . SVG Version: 6.00 Build 0)  -->
<svg version="1.1" id="Layer_1" xmlns="http://www.w3.org/2000/svg" xmlns:xlink="http://www.w3.org/1999/xlink" x="0px" y="0px"
	 viewBox="0 0 100 100" enable-background="new 0 0 100 100" xml:space="preserve">
<g>
	<path fill="#F91791" d="M93.027,65.04V20.497c0-2.614-2.129-4.743-4.743-4.743H11.721c-2.62,0-4.748,2.129-4.748,4.743v44.549
		c0,0,0,0,0,0.006v3.081c0,2.614,2.128,4.743,4.742,4.743h26.896c1.474,1.146,2.286,2.559,2.286,4.027
		c0,1.274-0.618,2.499-1.734,3.548H23.128c-1.049,0-1.898,0.849-1.898,1.898c0,1.049,0.85,1.898,1.898,1.898h53.749
		c1.043,0,1.892-0.849,1.892-1.898c0-1.049-0.849-1.898-1.892-1.898H60.843c-1.116-1.049-1.734-2.274-1.734-3.548
		c0-1.467,0.818-2.881,2.286-4.027h26.896c2.614,0,4.736-2.129,4.736-4.743v-3.081C93.027,65.046,93.027,65.04,93.027,65.04z
		 M11.721,18.598h76.564c1.049,0,1.904,0.855,1.904,1.898v43.13H9.823v-43.13C9.823,19.453,10.672,18.598,11.721,18.598z
		 M57.247,80.45H42.759c0.631-1.104,0.977-2.305,0.977-3.548c0-1.425-0.425-2.796-1.249-4.027h15.028
		c-0.812,1.231-1.243,2.601-1.243,4.027C56.27,78.145,56.616,79.346,57.247,80.45z M88.291,70.031H60.916H39.09H11.715
		c-1.043,0-1.892-0.849-1.892-1.898v-1.631h80.366v1.631C90.189,69.182,89.334,70.031,88.291,70.031z"/>
	<path fill="#F91791" d="M48.605,58.691H16.354c-0.782,0-1.425-0.637-1.425-1.419V25.021c0-0.782,0.643-1.419,1.425-1.419h32.251
		c0.782,0,1.419,0.637,1.419,1.419v32.251C50.024,58.054,49.387,58.691,48.605,58.691z M17.773,55.846H47.18V26.44H17.773V55.846z"
		/>
	<path fill="#F91791" d="M26.445,50.613c-0.243,0-0.491-0.06-0.715-0.188c-0.437-0.255-0.71-0.722-0.71-1.231V33.068
		c0-0.509,0.273-0.976,0.71-1.237c0.442-0.248,0.988-0.248,1.425,0l13.966,8.066c0.443,0.255,0.709,0.722,0.709,1.231
		c0,0.509-0.266,0.976-0.709,1.231l-13.966,8.066C26.937,50.552,26.694,50.613,26.445,50.613z M27.865,35.53v11.195l9.697-5.597
		L27.865,35.53z"/>
	<path fill="#F91791" d="M82.73,26.44H57.125c-0.782,0-1.419-0.637-1.419-1.419c0-0.782,0.637-1.419,1.419-1.419H82.73
		c0.782,0,1.413,0.637,1.413,1.419C84.143,25.803,83.512,26.44,82.73,26.44z"/>
	<path fill="#F91791" d="M75.064,32.832H57.125c-0.782,0-1.419-0.637-1.419-1.419c0-0.788,0.637-1.425,1.419-1.425h17.939
		c0.782,0,1.419,0.637,1.419,1.425C76.483,32.195,75.847,32.832,75.064,32.832z"/>
	<path fill="#F91791" d="M66.532,45.931h-9.406c-0.782,0-1.419-0.643-1.419-1.425v-6.719c0-0.789,0.637-1.425,1.419-1.425h9.406
		c0.788,0,1.425,0.637,1.425,1.425v6.719C67.957,45.288,67.32,45.931,66.532,45.931z M58.551,43.081h6.562v-3.869h-6.562V43.081z"/>
	<path fill="#F91791" d="M82.73,45.931h-9.413c-0.782,0-1.419-0.643-1.419-1.425v-6.719c0-0.789,0.637-1.425,1.419-1.425h9.413
		c0.782,0,1.413,0.637,1.413,1.425v6.719C84.143,45.288,83.512,45.931,82.73,45.931z M74.743,43.081h6.562v-3.869h-6.562V43.081z"/>
	<path fill="#F91791" d="M66.532,58.691h-9.406c-0.782,0-1.419-0.637-1.419-1.419v-6.719c0-0.789,0.637-1.42,1.419-1.42h9.406
		c0.788,0,1.425,0.631,1.425,1.42v6.719C67.957,58.054,67.32,58.691,66.532,58.691z M58.551,55.846h6.562v-3.875h-6.562V55.846z"/>
	<path fill="#F91791" d="M82.73,58.691h-9.413c-0.782,0-1.419-0.637-1.419-1.419v-6.719c0-0.789,0.637-1.42,1.419-1.42h9.413
		c0.782,0,1.413,0.631,1.413,1.42v6.719C84.143,58.054,83.512,58.691,82.73,58.691z M74.743,55.846h6.562v-3.875h-6.562V55.846z"/>
</g>
</svg>
